<?xml version="1.0" standalone="no"?>
<!DOCTYPE svg PUBLIC "-//W3C//DTD SVG 1.1//EN" "http://www.w3.org/Graphics/SVG/1.1/DTD/svg11.dtd" >
<svg xmlns="http://www.w3.org/2000/svg">
<metadata>
This is a custom SVG webfont generated by Font Squirrel.
Copyright   : Copyright  IGMA FONTS 2006 All rights reserved  please read the included text file for more info
Designer    : IGMA FONTS  Brian Kent
Foundry     : IGMA FONTS
</metadata>
<defs>
<font id="webfontO3gtoO7e" horiz-adv-x="1677" >
<font-face units-per-em="2048" ascent="1638" descent="-410" />
<missing-glyph horiz-adv-x="1024" />
<glyph unicode=" "  horiz-adv-x="1024" />
<glyph unicode="&#x09;" horiz-adv-x="1024" />
<glyph unicode="&#xa0;" horiz-adv-x="1024" />
<glyph unicode="!" horiz-adv-x="608" d="M526 223q0 45 -17 86t-48 72t-72 48t-86 17q-47 0 -87 -17t-69.5 -48t-47 -72t-17.5 -86q0 -92 65.5 -157.5t155.5 -65.5q45 0 86 17.5t72 48t48 70.5t17 87zM526 1292q0 45 -17 86t-48 72t-72 48.5t-86 17.5q-47 0 -87 -17.5t-69.5 -48.5t-47 -72t-17.5 -86v-534 q0 -92 65.5 -157.5t155.5 -65.5q45 0 86 17t72 48t48 71t17 87v534zM674 223q0 -78 -29 -144.5t-80 -117.5t-118.5 -79.5t-143.5 -28.5q-152 0 -260.5 108.5t-108.5 261.5q0 78 30 147.5t83 121.5q-4 0 -4 4q-109 109 -109 262v534q0 76 29 143.5t78 119t116.5 80 t145.5 28.5q76 0 143.5 -28.5t118.5 -80t80 -119t29 -143.5v-534q0 -80 -31 -148.5t-84 -120.5q53 -51 84 -119.5t31 -146.5z" />
<glyph unicode="&#x22;" horiz-adv-x="1142" d="M1061 1292q0 45 -17.5 86t-48 72t-71.5 48.5t-86 17.5q-47 0 -87 -17.5t-70 -48.5t-47.5 -72t-17.5 -86v-268q0 -47 17.5 -87t47.5 -69.5t70 -47t87 -17.5q92 0 157.5 65.5t65.5 155.5v268zM526 1292q0 45 -17 86t-48 72t-72 48.5t-86 17.5q-47 0 -87 -17.5t-69.5 -48.5 t-47 -72t-17.5 -86v-268q0 -47 17.5 -87t47 -69.5t69.5 -47t87 -17.5q92 0 157.5 65.5t65.5 155.5v268zM1208 1024q0 -152 -108.5 -260.5t-261.5 -108.5q-80 0 -148.5 30t-120.5 83l-4 -4q-109 -109 -262 -109q-78 0 -144.5 29t-116.5 79t-79 116.5t-29 144.5v268 q0 76 29 143.5t78 119t116.5 80t145.5 28.5t146.5 -30.5t119.5 -84.5q51 53 120 84t149 31q76 0 143.5 -28.5t118.5 -80t79.5 -119t28.5 -143.5v-268z" />
<glyph unicode="#" d="M883 713h-88v90h88v-90zM1595 492q0 47 -17 86.5t-48 69.5t-72 47.5t-86 17.5h-45v90h45q92 0 157.5 65.5t65.5 155.5q0 45 -17 86t-48 71.5t-72 48t-86 17.5h-45v45q0 92 -65.5 158t-155.5 66q-47 0 -87 -17.5t-70.5 -48.5t-48 -72t-17.5 -86v-45h-88v45q0 45 -17.5 86 t-48.5 72t-72 48.5t-86 17.5q-47 0 -87 -17.5t-70.5 -48.5t-48 -72t-17.5 -86v-45h-45q-47 0 -87 -17.5t-69.5 -48t-47 -71.5t-17.5 -86q0 -47 17.5 -87t47 -69.5t69.5 -47t87 -17.5h45v-90h-45q-47 0 -87 -17.5t-69.5 -47.5t-47 -70.5t-17.5 -85.5q0 -92 65.5 -158 t155.5 -66h45v-45q0 -47 17.5 -87t48 -70.5t70.5 -48t87 -17.5q45 0 86 17.5t72 48t48.5 70.5t17.5 87v45h88v-45q0 -47 17.5 -87t48 -70.5t70.5 -48t87 -17.5t87 17.5t69.5 48t47 70.5t17.5 87v45h45q45 0 86 17.5t72 48.5t48 71t17 87zM1743 492q0 -66 -21.5 -124.5 t-58.5 -106.5t-88 -82t-113 -48q-14 -59 -47 -110.5t-80 -88t-105.5 -58t-123.5 -21.5q-80 0 -148.5 30.5t-119.5 83.5q-51 -53 -120 -83.5t-147 -30.5q-66 0 -124 21.5t-106 58t-82 88t-48 110.5q-47 10 -89 36t-79 62q-109 109 -109 263q0 78 30 146.5t83 119.5 q-53 49 -83 117.5t-30 148.5q0 66 20.5 124t57.5 105t87.5 81t111.5 48q14 61 48 112.5t82 88.5t106.5 58.5t123.5 21.5q78 0 146.5 -30.5t120.5 -84.5q51 53 119.5 84t148.5 31q152 0 260 -109q74 -74 98 -172q59 -16 110.5 -49t88.5 -81t58.5 -106.5t21.5 -121.5 q0 -152 -109 -260l-6 -6q53 -49 84 -117.5t31 -148.5z" />
<glyph unicode="$" d="M838 981q-47 0 -87 -17.5t-70 -48t-47.5 -71.5t-17.5 -86q0 -92 66 -157.5t156 -65.5q45 0 86 17t71.5 48t48 71t17.5 87q0 45 -17.5 86t-48 71.5t-71.5 48t-86 17.5zM82 758q0 -92 65.5 -157.5t155.5 -65.5q47 0 88 17t71 47t47 71t17 88q0 129 90 219q92 92 222 92h534 q45 0 86 17.5t72 48t48 70.5t17 87q0 45 -17 86t-48 72t-72 48.5t-86 17.5h-315l4 43q0 45 -17.5 86t-48 71.5t-71.5 48t-86 17.5q-47 0 -87 -17.5t-70 -48t-47.5 -71.5t-17.5 -86q0 -41 13 -74q-242 -70 -396 -271q-151 -200 -151 -456zM1595 758q0 45 -17 86t-48 71.5 t-72 48t-86 17.5q-47 0 -87 -17.5t-69.5 -48t-47 -71.5t-17.5 -86q0 -133 -92 -221q-94 -90 -221 -91h-535q-47 0 -87 -17t-69.5 -48t-47 -72t-17.5 -86q0 -92 65.5 -157.5t155.5 -65.5h318q-4 -20 -5 -43q0 -92 66 -157.5t156 -65.5q45 0 86 17.5t71.5 48t48 70.5t17.5 87 q0 37 -14 74q240 68 393 268q155 201 155 459zM-66 758q0 303 183 545q145 190 352 280q4 72 33.5 135.5t79 110.5t115 73.5t141.5 26.5q61 0 117.5 -20.5t102.5 -55t79.5 -84t52.5 -106.5h182q76 0 143.5 -28.5t119 -80t80 -119t28.5 -143.5q0 -80 -31 -148.5t-84 -119.5 q53 -51 84 -119.5t31 -146.5q0 -307 -187 -549q-145 -188 -350 -277q-4 -72 -34.5 -135t-80 -110t-115 -74t-138.5 -27q-152 0 -260 109q-70 70 -95 158h-180q-152 0 -260.5 108.5t-108.5 261.5q0 78 30 147.5t83 121.5q-4 0 -4 4q-109 108 -109 262z" />
<glyph unicode="%" d="M1595 223q0 45 -17 86t-48 72t-72 48t-86 17q-47 0 -87 -17t-69.5 -48t-47 -72t-17.5 -86q0 -92 65.5 -157.5t155.5 -65.5q45 0 86 17.5t72 48t48 70.5t17 87zM82 1292q0 -92 65.5 -157.5t155.5 -65.5q47 0 88 17.5t71 47t47 70.5t17 88q0 45 -17 86t-48 72t-72 48.5 t-86 17.5q-47 0 -87 -17.5t-69.5 -48.5t-47 -72t-17.5 -86zM1530 1135q66 66 65 157q0 45 -17 86t-47 71t-71 47t-88 17q-94 0 -158 -63l-1067 -1069q-66 -66 -65 -158q0 -47 17.5 -87t48 -70.5t70.5 -48t87 -17.5q90 0 156 66zM565 -39q-109 -109 -260 -108 q-78 0 -144.5 28.5t-117.5 79.5t-80 117.5t-29 144.5q0 154 109 262l1067 1069q106 106 262 107q78 0 145.5 -28.5t118 -79t79 -118t28.5 -143.5q0 -80 -27.5 -144.5t-81.5 -117.5zM-66 1292q0 76 29 143.5t78 119t116.5 80t145.5 28.5q76 0 143.5 -28.5t118.5 -80t80 -119 t29 -143.5q0 -78 -29 -145.5t-79 -117.5t-117.5 -78.5t-145.5 -28.5q-152 0 -260.5 108t-108.5 262zM1743 223q0 -78 -28.5 -144.5t-80 -117.5t-119 -79.5t-143.5 -28.5q-152 0 -260 108.5t-108 261.5q0 76 28.5 143.5t77.5 119t116.5 80t145.5 28.5q76 0 143.5 -28.5 t119 -80t80 -119t28.5 -143.5z" />
<glyph unicode="&#x26;" d="M1595 758q0 45 -17 86t-48 71.5t-72 48t-86 17.5q-47 0 -87 -17.5t-69.5 -48t-47 -71.5t-17.5 -86q0 -133 -92 -221q-94 -90 -221 -91h-217q88 88 217 89q45 0 86 17t71.5 48t48 71t17.5 87q0 45 -17.5 86t-48 71.5t-71.5 48t-86 17.5q-131 0 -256 -47q43 63 111.5 99 t144.5 36h534q45 0 86 17.5t72 48t48 70.5t17 87q0 45 -17 86t-48 72t-72 48.5t-86 17.5h-315l4 43q0 45 -17.5 86t-48 71.5t-71.5 48t-86 17.5q-47 0 -87 -17.5t-70 -48t-47.5 -71.5t-17.5 -86q0 -41 13 -74q-242 -70 -396 -271q-152 -201 -151 -456q0 -115 90 -178 q-45 -86 -67.5 -172t-22.5 -185q0 -92 65.5 -157.5t155.5 -65.5h318q-4 -20 -5 -43q0 -92 66 -157.5t156 -65.5q45 0 86 17.5t71.5 48t48 70.5t17.5 87q0 37 -14 74q240 68 393 268q155 201 155 459zM1743 758q0 -307 -187 -549q-145 -188 -350 -277q-4 -72 -34.5 -135 t-80 -110t-115 -74t-138.5 -27q-152 0 -260 109q-70 70 -95 158h-180q-152 0 -260.5 108.5t-108.5 261.5q0 174 62 328q-29 45 -45.5 96t-16.5 111q0 303 183 545q145 190 352 280q4 72 33.5 135.5t79 110.5t115 73.5t141.5 26.5q61 0 117.5 -20.5t102.5 -55t79.5 -84 t52.5 -106.5h182q76 0 143.5 -28.5t119 -80t80 -119t28.5 -143.5q0 -80 -31 -148.5t-84 -119.5q53 -51 84 -119.5t31 -146.5z" />
<glyph unicode="'" horiz-adv-x="608" d="M526 1292q0 45 -17 86t-48 72t-72 48.5t-86 17.5q-47 0 -87 -17.5t-69.5 -48.5t-47 -72t-17.5 -86v-268q0 -47 17.5 -87t47 -69.5t69.5 -47t87 -17.5q92 0 157.5 65.5t65.5 155.5v268zM674 1024q0 -152 -108.5 -260.5t-262.5 -108.5q-78 0 -144.5 29t-116.5 79t-79 116.5 t-29 144.5v268q0 76 29 143.5t78 119t116.5 80t145.5 28.5q76 0 143.5 -28.5t118.5 -80t80 -119t29 -143.5v-268z" />
<glyph unicode="(" horiz-adv-x="1142" d="M1061 223q0 45 -17.5 86t-48 72t-71.5 48t-86 17q-127 0 -222 91q-90 94 -90 221q0 129 90 219q92 92 222 92q45 0 86 17.5t71.5 48t48 70.5t17.5 87q0 45 -17.5 86t-48 72t-71.5 48.5t-86 17.5q-311 0 -535 -224q-221 -221 -221 -534q0 -315 221 -536.5t535 -221.5 q45 0 86 17.5t71.5 48t48 70.5t17.5 87zM1208 223q0 -78 -28.5 -144.5t-79.5 -117.5t-119 -79.5t-143 -28.5q-375 0 -639.5 264t-264.5 641q0 375 265 639q266 266 639 266q76 0 143.5 -28.5t118.5 -80t79.5 -119t28.5 -143.5q0 -78 -28.5 -144.5t-79.5 -117.5t-119 -79.5 t-143 -28.5q-68 0 -117 -50q-47 -47 -47 -114q0 -70 49 -119q45 -45 115 -45q76 0 143.5 -28.5t118.5 -80t79.5 -119t28.5 -143.5z" />
<glyph unicode=")" horiz-adv-x="1142" d="M1061 758q0 313 -223 534q-221 223 -535 224q-47 0 -87 -17.5t-69.5 -48.5t-47 -72t-17.5 -86q0 -92 65.5 -157.5t155.5 -65.5q129 0 221 -92t92 -219q0 -133 -92 -221q-94 -90 -221 -91q-47 0 -87 -17t-69.5 -48t-47 -72t-17.5 -86q0 -92 65.5 -157.5t155.5 -65.5 q313 0 535 221q223 224 223 537zM1208 758q0 -375 -266 -641q-264 -264 -639 -264q-152 0 -260.5 108.5t-108.5 261.5q0 76 29 143.5t78 119t116.5 80t145.5 28.5q70 0 119 49q47 47 47 115q0 66 -49 115t-117 49q-152 0 -260.5 108.5t-108.5 261.5q0 76 29 143.5t78 119 t116.5 80t145.5 28.5q375 0 639 -266q266 -264 266 -639z" />
<glyph unicode="*" horiz-adv-x="1372" d="M1137 805q70 20 111.5 79.5t41.5 131.5q0 39 -10 69q-23 70 -80 112t-129 42q-35 0 -72 -12l-92 -29v94q0 45 -17.5 86t-48 72t-71.5 48.5t-86 17.5q-47 0 -87 -17.5t-69.5 -48.5t-47 -72t-17.5 -86v-96l-90 29q-35 12 -70 12q-74 0 -131 -42t-80 -114q-10 -31 -10 -67 q0 -74 41 -132.5t113 -80.5l88 -29l-56 -74q-41 -57 -41 -129q0 -117 90 -182q57 -41 129 -41q55 0 102.5 22.5t80.5 67.5l55 78l55 -78q68 -90 181 -90q45 0 77.5 13.5t53.5 27.5q92 70 92 180q0 72 -43 131l-56 76zM1438 1016q0 -98 -47.5 -181t-126.5 -133 q27 -61 26 -135q0 -182 -153 -299q-35 -23 -90.5 -46t-126.5 -23q-137 0 -238 82q-49 -41 -109.5 -61.5t-126.5 -20.5q-121 0 -215 69q-76 55 -113.5 132t-37.5 169q0 68 22 131q-78 49 -123 132t-45 182q0 33 5.5 61.5t13.5 52.5l-2 -2q39 121 134 189.5t218 68.5h23 q14 59 48 110.5t81 88.5t105 58.5t124 21.5q63 0 121.5 -21.5t107 -58.5t81 -88t48.5 -111q8 2 29 2q123 0 216 -69.5t132 -183.5q8 -25 13.5 -54.5t5.5 -62.5z" />
<glyph unicode="+" horiz-adv-x="1142" d="M1061 758q0 45 -17.5 86t-48 71.5t-71.5 48t-86 17.5h-43v43q0 45 -17.5 86t-48.5 71.5t-72 48t-86 17.5q-47 0 -87 -17.5t-70.5 -48t-48 -71.5t-17.5 -86v-43h-45q-47 0 -87 -17.5t-69.5 -48t-47 -71.5t-17.5 -86q0 -92 65.5 -157.5t155.5 -65.5h45v-43q0 -47 17.5 -87 t48 -71t70.5 -48.5t87 -17.5q45 0 86 17.5t72 48.5t48.5 70.5t17.5 87.5v43h43q45 0 86 17t71.5 48t48 71t17.5 87zM1208 758q0 -66 -21.5 -124.5t-58 -106.5t-88 -81.5t-110.5 -48.5q-16 -59 -49 -110t-81 -88t-106.5 -57.5t-122.5 -20.5q-66 0 -123 20.5t-105 57.5t-82 88 t-48 110q-47 10 -90 36t-80 63q-109 109 -109 262q0 66 20.5 124t57.5 105t88.5 81t112.5 48q14 59 48 110.5t81 88.5t105.5 58.5t123.5 21.5q63 0 122 -21.5t107 -58.5t80.5 -88t49.5 -111q59 -16 110.5 -49t88 -81t58 -106.5t21.5 -121.5z" />
<glyph unicode="," horiz-adv-x="608" d="M526 223q0 45 -17 86t-48 72t-72 48t-86 17q-47 0 -87 -17t-69.5 -48t-47 -72t-17.5 -86v-266q0 -92 65.5 -157.5t155.5 -65.5q45 0 86 17.5t72 48t48 70.5t17 87v266zM674 -43q0 -78 -29 -144.5t-80 -117.5t-118.5 -80t-143.5 -29q-152 0 -260.5 108.5t-108.5 262.5v266 q0 76 29 143.5t78 119t116.5 80t145.5 28.5q76 0 143.5 -28.5t118.5 -80t80 -119t29 -143.5v-266z" />
<glyph unicode="-" horiz-adv-x="1142" d="M1061 758q0 45 -17.5 86t-48 71.5t-71.5 48t-86 17.5h-535q-47 0 -87 -17.5t-69.5 -48t-47 -71.5t-17.5 -86q0 -92 65.5 -157.5t155.5 -65.5h535q45 0 86 17t71.5 48t48 71t17.5 87zM1208 758q0 -78 -28.5 -144.5t-79.5 -118t-119 -80t-143 -28.5h-535 q-152 0 -260.5 108.5t-108.5 262.5q0 76 29 143.5t78 118.5t116.5 79.5t145.5 28.5h535q76 0 143.5 -28.5t118.5 -79.5t79.5 -118.5t28.5 -143.5z" />
<glyph unicode="." horiz-adv-x="608" d="M526 223q0 45 -17 86t-48 72t-72 48t-86 17q-47 0 -87 -17t-69.5 -48t-47 -72t-17.5 -86q0 -92 65.5 -157.5t155.5 -65.5q45 0 86 17.5t72 48t48 70.5t17 87zM674 223q0 -78 -29 -144.5t-80 -117.5t-118.5 -79.5t-143.5 -28.5q-152 0 -260.5 108.5t-108.5 261.5 q0 76 29 143.5t78 119t116.5 80t145.5 28.5q76 0 143.5 -28.5t118.5 -80t80 -119t29 -143.5z" />
<glyph unicode="/" d="M1530 1135q66 66 65 157q0 45 -17 86t-47 71t-71 47t-88 17q-94 0 -158 -63l-1067 -1069q-66 -66 -65 -158q0 -47 17.5 -87t48 -70.5t70.5 -48t87 -17.5q90 0 156 66zM565 -39q-109 -109 -260 -108q-78 0 -144.5 28.5t-117.5 79.5t-80 117.5t-29 144.5q0 154 109 262 l1067 1069q106 106 262 107q78 0 145.5 -28.5t118 -79t79 -118t28.5 -143.5q0 -80 -27.5 -144.5t-81.5 -117.5z" />
<glyph unicode="0" d="M1061 758q0 45 -17.5 86t-48 71.5t-71.5 48t-86 17.5q-47 0 -87 -17.5t-70 -48t-47.5 -71.5t-17.5 -86q0 -92 66 -157.5t156 -65.5q45 0 86 17t71.5 48t48 71t17.5 87zM1151 758q0 -133 -92 -221q-94 -90 -221 -91q-127 0 -222 91q-90 94 -90 221q0 129 90 219 q92 92 222 92q129 0 221 -92t92 -219zM1595 758q0 313 -223 534q-221 223 -534 224q-311 0 -535 -224q-221 -221 -221 -534q0 -315 221 -536.5t535 -221.5q313 0 534 221q223 224 223 537zM1743 758q0 -375 -266 -641q-264 -264 -639 -264t-639.5 264t-264.5 641 q0 375 265 639q266 266 639 266q375 0 639 -266q266 -264 266 -639z" />
<glyph unicode="1" horiz-adv-x="608" d="M526 1292q0 45 -17 86t-48 72t-72 48.5t-86 17.5q-47 0 -87 -17.5t-69.5 -48.5t-47 -72t-17.5 -86v-1069q0 -92 65.5 -157.5t155.5 -65.5q45 0 86 17.5t72 48t48 70.5t17 87v1069zM674 223q0 -78 -29 -144.5t-80 -117.5t-118.5 -79.5t-143.5 -28.5q-152 0 -260.5 108.5 t-108.5 261.5v1069q0 76 29 143.5t78 119t116.5 80t145.5 28.5q76 0 143.5 -28.5t118.5 -80t80 -119t29 -143.5v-1069z" />
<glyph unicode="2" d="M1595 223q0 45 -17 86t-48 72t-72 48t-86 17h-534q-47 0 -87 -17t-70 -48t-47.5 -72t-17.5 -86q0 -92 66 -157.5t156 -65.5h534q45 0 86 17.5t72 48t48 70.5t17 87zM526 223q0 129 90 219q92 92 222 93h534q45 0 86 17t72 48t48 71t17 87q0 313 -223 534 q-221 223 -534 224h-535q-47 0 -87 -17.5t-69.5 -48.5t-47 -72t-17.5 -86q0 -92 65.5 -157.5t155.5 -65.5h535q68 0 121 -22.5t98 -65.5h-219q-311 0 -535 -223q-221 -221 -221 -535q0 -92 65.5 -157.5t155.5 -65.5q47 0 88 17.5t71 47t47 70.5t17 88zM1743 223 q0 -78 -28.5 -144.5t-80 -117.5t-119 -79.5t-143.5 -28.5h-534q-152 0 -260 108l-7 6q-51 -53 -119.5 -83.5t-148.5 -30.5q-152 0 -260.5 108.5t-108.5 261.5q0 375 265 639q16 16 32.5 30.5t32.5 31.5q-131 12 -221 106q-109 109 -109 262q0 76 29 143.5t78 119t116.5 80 t145.5 28.5h535q375 0 639 -266q266 -264 266 -639q0 -80 -31 -148.5t-84 -120.5q53 -51 84 -119.5t31 -146.5z" />
<glyph unicode="3" d="M82 758q0 -92 65.5 -157.5t155.5 -65.5h535q45 0 86 17t71.5 48t48 71t17.5 87q0 45 -17.5 86t-48 71.5t-71.5 48t-86 17.5h-535q-47 0 -87 -17.5t-69.5 -48t-47 -71.5t-17.5 -86zM1595 758q0 313 -223 534q-221 223 -534 224h-535q-47 0 -87 -17.5t-69.5 -48.5t-47 -72 t-17.5 -86q0 -92 65.5 -157.5t155.5 -65.5h535q129 0 221 -92t92 -219q0 -133 -92 -221q-94 -90 -221 -91h-535q-47 0 -87 -17t-69.5 -48t-47 -72t-17.5 -86q0 -92 65.5 -157.5t155.5 -65.5h535q313 0 534 221q223 224 223 537zM-66 758q0 78 30 147.5t83 120.5q-4 0 -4 4 q-109 109 -109 262q0 76 29 143.5t78 119t116.5 80t145.5 28.5h535q375 0 639 -266q266 -264 266 -639t-266 -641q-264 -264 -639 -264h-535q-152 0 -260.5 108.5t-108.5 261.5q0 78 30 147.5t83 121.5q-4 0 -4 4q-109 108 -109 262z" />
<glyph unicode="4" d="M1595 1292q0 45 -17 86t-48 72t-72 48.5t-86 17.5q-47 0 -87 -17.5t-69.5 -48.5t-47 -72t-17.5 -86v-311h-625v311q0 45 -17 86t-48 72t-72 48.5t-86 17.5q-47 0 -87 -17.5t-69.5 -48.5t-47 -72t-17.5 -86v-534q0 -92 65.5 -157.5t155.5 -65.5h848v-312 q0 -92 65.5 -157.5t155.5 -65.5q45 0 86 17.5t72 48t48 70.5t17 87v1069zM1743 223q0 -78 -28.5 -144.5t-80 -117.5t-119 -79.5t-143.5 -28.5q-152 0 -260 108.5t-108 261.5v164h-701q-152 0 -260.5 108.5t-108.5 262.5v534q0 76 29 143.5t78 119t116.5 80t145.5 28.5 q76 0 143.5 -28.5t118.5 -80t80 -119t29 -143.5v-164h330v164q0 76 28.5 143.5t77.5 119t116.5 80t145.5 28.5q76 0 143.5 -28.5t119 -80t80 -119t28.5 -143.5v-1069z" />
<glyph unicode="5" d="M1061 223q0 45 -17.5 86t-48 72t-71.5 48t-86 17h-535q-47 0 -87 -17t-69.5 -48t-47 -72t-17.5 -86q0 -92 65.5 -157.5t155.5 -65.5h535q45 0 86 17.5t71.5 48t48 70.5t17.5 87zM1595 223q0 313 -223 535q-221 223 -534 223h-312v88h846q45 0 86 17.5t72 48t48 70.5 t17 87q0 45 -17 86t-48 72t-72 48.5t-86 17.5h-1069q-47 0 -87 -17.5t-69.5 -48.5t-47 -72t-17.5 -86v-534q0 -92 65.5 -157.5t155.5 -65.5h535q129 0 221 -92.5t92 -219.5q0 -92 65.5 -157.5t155.5 -65.5q45 0 86 17.5t72 48t48 70.5t17 87zM1743 223q0 -78 -28.5 -144.5 t-80 -117.5t-119 -79.5t-143.5 -28.5q-152 0 -260 108l-6 6q-51 -53 -121 -83.5t-147 -30.5h-535q-152 0 -260.5 108.5t-108.5 261.5q0 78 30 147.5t83 121.5q-4 0 -4 4q-109 109 -109 262v534q0 76 29 143.5t78 119t116.5 80t145.5 28.5h1069q76 0 143.5 -28.5t119 -80 t80 -119t28.5 -143.5q0 -72 -25.5 -136t-70.5 -113.5t-106.5 -81t-131.5 -37.5l68 -62q266 -264 266 -639z" />
<glyph unicode="6" d="M838 446q-129 0 -217 89h436q-90 -89 -219 -89zM1595 758q0 45 -17 86t-48 71.5t-72 48t-86 17.5h-751q88 88 217 88h534q45 0 86 17.5t72 48t48 70.5t17 87q0 45 -17 86t-48 72t-72 48.5t-86 17.5h-534q-311 0 -535 -224q-221 -221 -221 -534q0 -315 221 -536.5 t535 -221.5q313 0 534 221q223 224 223 537zM1743 758q0 -375 -266 -641q-264 -264 -639 -264t-639.5 264t-264.5 641q0 375 265 639q266 266 639 266h534q76 0 143.5 -28.5t119 -80t80 -119t28.5 -143.5q0 -80 -31 -148.5t-84 -119.5q53 -51 84 -119.5t31 -146.5z" />
<glyph unicode="7" d="M1595 1292q0 45 -17 86t-48 72t-72 48.5t-86 17.5h-1069q-47 0 -87 -17.5t-69.5 -48.5t-47 -72t-17.5 -86q0 -92 65.5 -157.5t155.5 -65.5h848v-846q0 -92 65.5 -157.5t155.5 -65.5q45 0 86 17.5t72 48t48 70.5t17 87v1069zM1743 223q0 -78 -28.5 -144.5t-80 -117.5 t-119 -79.5t-143.5 -28.5q-152 0 -260 108.5t-108 261.5v699h-701q-152 0 -260.5 108.5t-108.5 261.5q0 76 29 143.5t78 119t116.5 80t145.5 28.5h1069q76 0 143.5 -28.5t119 -80t80 -119t28.5 -143.5v-1069z" />
<glyph unicode="8" d="M621 446q88 88 217 89q68 0 121 -23t98 -66h-436zM1057 1069q-90 -88 -219 -88t-217 88h436zM1374 758q104 104 162.5 242.5t58.5 291.5q0 45 -17 86t-48 72t-72 48.5t-86 17.5h-1069q-47 0 -87 -17.5t-69.5 -48.5t-47 -72t-17.5 -86q0 -154 58.5 -292t162.5 -242 q-104 -104 -162.5 -242.5t-58.5 -292.5q0 -92 65.5 -157.5t155.5 -65.5h1069q45 0 86 17.5t72 48t48 70.5t17 87q0 154 -58.5 292.5t-162.5 242.5zM1743 1292q0 -150 -45 -285t-129 -249q84 -115 129 -251t45 -284q0 -78 -28.5 -144.5t-80 -117.5t-119 -79.5t-143.5 -28.5 h-1069q-152 0 -260.5 108.5t-108.5 261.5q0 147 45.5 283.5t129.5 251.5q-84 115 -129.5 250t-45.5 284q0 76 29 143.5t78 119t116.5 80t145.5 28.5h1069q76 0 143.5 -28.5t119 -80t80 -119t28.5 -143.5z" />
<glyph unicode="9" d="M1595 758q0 313 -223 534q-221 223 -534 224h-535q-47 0 -87 -17.5t-69.5 -48.5t-47 -72t-17.5 -86q0 -315 221 -536t535 -221q45 0 86 17t71.5 48t48 71t17.5 87q0 45 -17.5 86t-48 71.5t-71.5 48t-86 17.5q-129 0 -217 88h217q129 0 221 -92t92 -219v-535 q0 -92 65.5 -157.5t155.5 -65.5q45 0 86 17.5t72 48t48 70.5t17 87v535zM1743 223q0 -78 -28.5 -144.5t-80 -117.5t-119 -79.5t-143.5 -28.5q-152 0 -260 108.5t-108 261.5v203q-82 -39 -166 -39q-375 0 -639.5 264t-264.5 641q0 76 29 143.5t78 119t116.5 80t145.5 28.5 h535q375 0 639 -266q266 -264 266 -639v-535z" />
<glyph unicode=":" horiz-adv-x="608" d="M526 223q0 45 -17 86t-48 72t-72 48t-86 17q-47 0 -87 -17t-69.5 -48t-47 -72t-17.5 -86q0 -92 65.5 -157.5t155.5 -65.5q45 0 86 17.5t72 48t48 70.5t17 87zM82 1292q0 -92 65.5 -157.5t155.5 -65.5q45 0 86 17.5t72 48t48 70.5t17 87q0 45 -17 86t-48 72t-72 48.5 t-86 17.5q-47 0 -87 -17.5t-69.5 -48.5t-47 -72t-17.5 -86zM-66 1292q0 76 29 143.5t78 119t116.5 80t145.5 28.5q76 0 143.5 -28.5t118.5 -80t80 -119t29 -143.5q0 -78 -29 -144.5t-80 -117.5t-118.5 -79.5t-143.5 -28.5q-152 0 -260.5 108t-108.5 262zM674 223 q0 -78 -29 -144.5t-80 -117.5t-118.5 -79.5t-143.5 -28.5q-152 0 -260.5 108.5t-108.5 261.5q0 76 29 143.5t78 119t116.5 80t145.5 28.5q76 0 143.5 -28.5t118.5 -80t80 -119t29 -143.5z" />
<glyph unicode=";" horiz-adv-x="608" d="M526 223q0 45 -17 86t-48 72t-72 48t-86 17q-47 0 -87 -17t-69.5 -48t-47 -72t-17.5 -86v-266q0 -92 65.5 -157.5t155.5 -65.5q45 0 86 17.5t72 48t48 70.5t17 87v266zM82 1292q0 -92 65.5 -157.5t155.5 -65.5q45 0 86 17.5t72 48t48 70.5t17 87q0 45 -17 86t-48 72 t-72 48.5t-86 17.5q-47 0 -87 -17.5t-69.5 -48.5t-47 -72t-17.5 -86zM674 -43q0 -78 -29 -144.5t-80 -117.5t-118.5 -80t-143.5 -29q-152 0 -260.5 108.5t-108.5 262.5v266q0 76 29 143.5t78 119t116.5 80t145.5 28.5q76 0 143.5 -28.5t118.5 -80t80 -119t29 -143.5v-266z M-66 1292q0 76 29 143.5t78 119t116.5 80t145.5 28.5q76 0 143.5 -28.5t118.5 -80t80 -119t29 -143.5q0 -78 -29 -144.5t-80 -117.5t-118.5 -79.5t-143.5 -28.5q-152 0 -260.5 108t-108.5 262z" />
<glyph unicode="&#x3c;" horiz-adv-x="874" d="M618 758l109 110q66 66 66 156q0 47 -17.5 88t-48.5 70.5t-72 47t-86 17.5q-86 0 -157 -65l-267 -267q-63 -63 -63 -157t63 -158l267 -266q35 -35 73.5 -50.5t83.5 -15.5q92 0 158 65.5t66 155.5q0 92 -66 158zM831 752q53 -53 81 -118t28 -145q0 -152 -109 -260 q-53 -53 -117.5 -80.5t-144.5 -27.5q-74 0 -138 24.5t-124 83.5l-266 267q-106 106 -107 262q0 156 107 262l268 268q117 106 260 107q76 0 143.5 -29t119 -79t80 -117.5t28.5 -145.5q0 -152 -109 -260v2l-8 -8l8 -8v2z" />
<glyph unicode="=" horiz-adv-x="1142" d="M1061 492q0 47 -17.5 86.5t-48 69.5t-71.5 47.5t-86 17.5h-535q-47 0 -87 -17.5t-69.5 -47.5t-47 -70.5t-17.5 -85.5q0 -92 65.5 -158t155.5 -66h535q45 0 86 17.5t71.5 48.5t48 71t17.5 87zM82 1024q0 -47 17.5 -87t47 -69.5t69.5 -47t87 -17.5h535q92 0 157.5 65.5 t65.5 155.5q0 45 -17.5 86t-48 71.5t-71.5 48t-86 17.5h-535q-47 0 -87 -17.5t-69.5 -48t-47 -71.5t-17.5 -86zM1208 492q0 -78 -28.5 -144.5t-79.5 -118t-119 -80t-143 -28.5h-535q-152 0 -260.5 108.5t-108.5 262.5q0 78 30 146.5t83 119.5q-53 49 -83 117.5t-30 148.5 q0 76 29 143.5t78 118.5t116.5 80t145.5 29h535q76 0 143.5 -29t118.5 -80t79.5 -118.5t28.5 -143.5q0 -152 -108 -260l-6 -6q53 -49 83.5 -117.5t30.5 -148.5z" />
<glyph unicode="&#x3e;" horiz-adv-x="874" d="M727 600q66 66 66 158t-66 157l-266 267q-66 66 -158 65q-47 0 -87 -17.5t-69.5 -47t-47 -70.5t-17.5 -88q0 -92 63 -156l111 -110l-111 -111q-63 -63 -63 -158q0 -47 17.5 -87t47 -69.5t69.5 -47t87 -17.5q92 0 158 66zM565 229q-53 -53 -117.5 -80.5t-144.5 -27.5 q-78 0 -145.5 28.5t-116.5 79t-78 117t-29 143.5q0 156 107 263l6 6l-6 6q-106 106 -107 260q0 78 29 145.5t79 117.5t116.5 79t144.5 29q154 0 262 -109l266 -266q109 -109 109 -262q0 -80 -27.5 -144.5t-81.5 -117.5z" />
<glyph unicode="?" d="M1061 223q0 45 -17.5 86t-48 72t-71.5 48t-86 17q-47 0 -87 -17t-70 -48t-47.5 -72t-17.5 -86q0 -92 66 -157.5t156 -65.5q45 0 86 17.5t71.5 48t48 70.5t17.5 87zM1595 1292q0 45 -17 86t-48 72t-72 48.5t-86 17.5h-534q-311 0 -535 -224q-221 -221 -221 -534 q0 -92 65.5 -157.5t155.5 -65.5q47 0 88 17t71 47t47 71t17 88q0 129 90 219q92 92 222 92h219q-90 -88 -219 -88q-47 0 -87 -17.5t-70 -48t-47.5 -71.5t-17.5 -86q0 -92 66 -157.5t156 -65.5q313 0 534 221q223 223 223 536zM1208 223q0 -78 -28.5 -144.5t-79.5 -117.5 t-119 -79.5t-143 -28.5q-152 0 -260.5 108.5t-108.5 261.5q0 78 29.5 147.5t83.5 121.5q-4 0 -4 4q-2 2 -3.5 2t-3.5 2q-51 -53 -119.5 -83t-148.5 -30q-152 0 -260.5 108.5t-108.5 262.5q0 375 265 639q266 266 639 266h534q76 0 143.5 -28.5t119 -80t80 -119t28.5 -143.5 q0 -375 -266 -641q-150 -150 -336 -215q31 -47 49 -100.5t18 -112.5z" />
<glyph unicode="@" d="M1595 758q0 313 -223 534q-221 223 -534 224q-311 0 -535 -224q-221 -221 -221 -534v-535q0 -92 65.5 -157.5t155.5 -65.5q47 0 88 17.5t71 47t47 70.5t17 88v535q0 129 90 219q92 92 222 92q68 0 121 -22.5t98 -65.5h-219q-47 0 -87 -17.5t-70 -48t-47.5 -71.5 t-17.5 -86v-535q0 -92 66 -157.5t156 -65.5q313 0 534 221q223 224 223 537zM1743 758q0 -375 -266 -641q-264 -264 -639 -264q-152 0 -260 108l-7 6q-51 -53 -119.5 -83.5t-148.5 -30.5q-152 0 -260.5 108.5t-108.5 261.5v535q0 375 265 639q266 266 639 266 q375 0 639 -266q266 -264 266 -639z" />
<glyph unicode="A" d="M1061 758q0 45 -17.5 86t-48 71.5t-71.5 48t-86 17.5q-47 0 -87 -17.5t-70 -48t-47.5 -71.5t-17.5 -86q0 -92 66 -157.5t156 -65.5q45 0 86 17t71.5 48t48 71t17.5 87zM1595 758q0 313 -223 534q-221 223 -534 224q-311 0 -535 -224q-221 -221 -221 -534v-535 q0 -92 65.5 -157.5t155.5 -65.5q47 0 88 17.5t71 47t47 70.5t17 88v535q0 129 90 219q92 92 222 92q129 0 221 -92t92 -219v-535q0 -92 65.5 -157.5t155.5 -65.5q45 0 86 17.5t72 48t48 70.5t17 87v535zM1743 223q0 -78 -28.5 -144.5t-80 -117.5t-119 -79.5t-143.5 -28.5 q-152 0 -260 108.5t-108 261.5v203q-82 -39 -166 -39q-90 0 -164 37v-201q0 -78 -29 -145.5t-79 -117.5t-117.5 -78.5t-145.5 -28.5q-152 0 -260.5 108.5t-108.5 261.5v535q0 375 265 639q266 266 639 266q375 0 639 -266q266 -264 266 -639v-535z" />
<glyph unicode="B" d="M1595 758q0 115 -90 178q45 86 67.5 172t22.5 184q0 45 -17 86t-48 72t-72 48.5t-86 17.5h-534q-311 0 -535 -224q-221 -221 -221 -534v-535q0 -92 65.5 -157.5t155.5 -65.5q47 0 88 17.5t71 47t47 70.5t17 88v535q0 129 90 219q92 92 222 92h219q-90 -88 -219 -88 q-47 0 -87 -17.5t-70 -48t-47.5 -71.5t-17.5 -86q0 -92 66 -157.5t156 -65.5q131 0 256 47q-43 -63 -111 -99.5t-145 -36.5q-47 0 -87 -17t-70 -48t-47.5 -72t-17.5 -86q0 -92 66 -157.5t156 -65.5q313 0 534 221q223 224 223 537zM1743 758q0 -375 -266 -641 q-264 -264 -639 -264q-152 0 -260 108l-7 6q-51 -53 -119.5 -83.5t-148.5 -30.5q-152 0 -260.5 108.5t-108.5 261.5v535q0 375 265 639q266 266 639 266h534q76 0 143.5 -28.5t119 -80t80 -119t28.5 -143.5q0 -92 -15.5 -171t-46.5 -156q29 -45 45.5 -97.5t16.5 -109.5z" />
<glyph unicode="C" d="M1595 223q0 45 -17 86t-48 72t-72 48t-86 17h-534q-127 0 -222 91q-90 94 -90 221q0 129 90 219q92 92 222 92h534q45 0 86 17.5t72 48t48 70.5t17 87q0 45 -17 86t-48 72t-72 48.5t-86 17.5h-534q-311 0 -535 -224q-221 -221 -221 -534q0 -315 221 -536.5t535 -221.5 h534q45 0 86 17.5t72 48t48 70.5t17 87zM1743 223q0 -78 -28.5 -144.5t-80 -117.5t-119 -79.5t-143.5 -28.5h-534q-375 0 -639.5 264t-264.5 641q0 375 265 639q266 266 639 266h534q76 0 143.5 -28.5t119 -80t80 -119t28.5 -143.5q0 -78 -28.5 -144.5t-80 -117.5 t-119 -79.5t-143.5 -28.5h-534q-68 0 -117 -50q-47 -47 -47 -114q0 -70 49 -119q45 -45 115 -45h534q76 0 143.5 -28.5t119 -80t80 -119t28.5 -143.5z" />
<glyph unicode="D" d="M1595 758q0 313 -223 534q-221 223 -534 224h-535q-47 0 -87 -17.5t-69.5 -48.5t-47 -72t-17.5 -86q0 -92 65.5 -157.5t155.5 -65.5h535q129 0 221 -92t92 -219q0 -133 -92 -221q-94 -90 -221 -91h-312v312q0 45 -17 86t-48 71.5t-72 48t-86 17.5q-47 0 -87 -17.5 t-69.5 -48t-47 -71.5t-17.5 -86v-535q0 -92 65.5 -157.5t155.5 -65.5h535q313 0 534 221q223 224 223 537zM1743 758q0 -375 -266 -641q-264 -264 -639 -264h-535q-152 0 -260.5 108.5t-108.5 261.5v535q0 78 30 147.5t83 120.5q-4 0 -4 4q-109 109 -109 262q0 76 29 143.5 t78 119t116.5 80t145.5 28.5h535q375 0 639 -266q266 -264 266 -639zM635 922q39 -78 39 -164v-164h164q70 0 118 49q47 47 48 115q0 66 -49.5 115t-116.5 49h-203z" />
<glyph unicode="E" d="M1595 758q0 45 -17 86t-48 71.5t-72 48t-86 17.5h-534q-47 0 -87 -17.5t-70 -48t-47.5 -71.5t-17.5 -86q0 -92 66 -157.5t156 -65.5h534q45 0 86 17t72 48t48 71t17 87zM1595 223q0 45 -17 86t-48 72t-72 48t-86 17h-534q-127 0 -222 91q-90 94 -90 221q0 129 90 219 q92 92 222 92h534q45 0 86 17.5t72 48t48 70.5t17 87q0 45 -17 86t-48 72t-72 48.5t-86 17.5h-534q-311 0 -535 -224q-221 -221 -221 -534q0 -315 221 -536.5t535 -221.5h534q45 0 86 17.5t72 48t48 70.5t17 87zM1743 758q0 -80 -31 -148.5t-84 -120.5q53 -51 84 -119.5 t31 -146.5t-28.5 -144.5t-80 -117.5t-119 -79.5t-143.5 -28.5h-534q-375 0 -639.5 264t-264.5 641q0 375 265 639q266 266 639 266h534q76 0 143.5 -28.5t119 -80t80 -119t28.5 -143.5q0 -80 -31 -148.5t-84 -119.5q53 -51 84 -119.5t31 -146.5z" />
<glyph unicode="F" d="M1595 758q0 45 -17 86t-48 71.5t-72 48t-86 17.5h-534q-47 0 -87 -17.5t-70 -48t-47.5 -71.5t-17.5 -86q0 -92 66 -157.5t156 -65.5h534q45 0 86 17t72 48t48 71t17 87zM526 758q0 129 90 219q92 92 222 92h534q45 0 86 17.5t72 48t48 70.5t17 87q0 45 -17 86t-48 72 t-72 48.5t-86 17.5h-534q-311 0 -535 -224q-221 -221 -221 -534v-535q0 -92 65.5 -157.5t155.5 -65.5q47 0 88 17.5t71 47t47 70.5t17 88v535zM1743 758q0 -78 -28.5 -144.5t-80 -118t-119 -80t-143.5 -28.5h-534q-90 0 -164 37v-201q0 -78 -29 -145.5t-79 -117.5 t-117.5 -78.5t-145.5 -28.5q-152 0 -260.5 108.5t-108.5 261.5v535q0 375 265 639q266 266 639 266h534q76 0 143.5 -28.5t119 -80t80 -119t28.5 -143.5q0 -80 -31 -148.5t-84 -119.5q53 -51 84 -119.5t31 -146.5z" />
<glyph unicode="G" d="M1595 758q0 45 -17 86t-48 71.5t-72 48t-86 17.5h-534q-47 0 -87 -17.5t-70 -48t-47.5 -71.5t-17.5 -86q0 -92 66 -157.5t156 -65.5h313v-89h-313q-127 0 -222 91q-90 94 -90 221q0 129 90 219q92 92 222 92h534q45 0 86 17.5t72 48t48 70.5t17 87q0 45 -17 86t-48 72 t-72 48.5t-86 17.5h-534q-311 0 -535 -224q-221 -221 -221 -534q0 -315 221 -536.5t535 -221.5h534q45 0 86 17.5t72 48t48 70.5t17 87v535zM1743 223q0 -78 -28.5 -144.5t-80 -117.5t-119 -79.5t-143.5 -28.5h-534q-375 0 -639.5 264t-264.5 641q0 375 265 639 q266 266 639 266h534q76 0 143.5 -28.5t119 -80t80 -119t28.5 -143.5q0 -80 -31 -148.5t-84 -119.5q53 -51 84 -119.5t31 -146.5v-535z" />
<glyph unicode="H" d="M1061 758q0 45 -17.5 86t-48 71.5t-71.5 48t-86 17.5q-47 0 -87 -17.5t-70 -48t-47.5 -71.5t-17.5 -86q0 -92 66 -157.5t156 -65.5q45 0 86 17t71.5 48t48 71t17.5 87zM1595 1292q0 45 -17 86t-48 72t-72 48.5t-86 17.5q-47 0 -87 -17.5t-69.5 -48.5t-47 -72t-17.5 -86 v-1069q0 -92 65.5 -157.5t155.5 -65.5q45 0 86 17.5t72 48t48 70.5t17 87v1069zM526 1292q0 45 -17 86t-48 72t-72 48.5t-86 17.5q-47 0 -87 -17.5t-69.5 -48.5t-47 -72t-17.5 -86v-1069q0 -92 65.5 -157.5t155.5 -65.5q47 0 88 17.5t71 47t47 70.5t17 88v1069zM1743 223 q0 -78 -28.5 -144.5t-80 -117.5t-119 -79.5t-143.5 -28.5q-152 0 -260 108.5t-108 261.5v203q-82 -39 -166 -39q-90 0 -164 37v-201q0 -78 -29 -145.5t-79 -117.5t-117.5 -78.5t-145.5 -28.5q-152 0 -260.5 108.5t-108.5 261.5v1069q0 76 29 143.5t78 119t116.5 80 t145.5 28.5q76 0 143.5 -28.5t118.5 -80t80 -119t29 -143.5v-200q37 16 78 26t86 10q84 0 166 -38v202q0 76 28.5 143.5t77.5 119t116.5 80t145.5 28.5q76 0 143.5 -28.5t119 -80t80 -119t28.5 -143.5v-1069z" />
<glyph unicode="I" d="M82 1292q0 -92 65.5 -157.5t155.5 -65.5h1069q45 0 86 17.5t72 48t48 70.5t17 87q0 45 -17 86t-48 72t-72 48.5t-86 17.5h-1069q-47 0 -87 -17.5t-69.5 -48.5t-47 -72t-17.5 -86zM838 981q-47 0 -87 -17.5t-70 -48t-47.5 -71.5t-17.5 -86q0 -92 66 -157.5t156 -65.5 q45 0 86 17t71.5 48t48 71t17.5 87q0 45 -17.5 86t-48 71.5t-71.5 48t-86 17.5zM1595 223q0 45 -17 86t-48 72t-72 48t-86 17h-1069q-47 0 -87 -17t-69.5 -48t-47 -72t-17.5 -86q0 -92 65.5 -157.5t155.5 -65.5h1069q45 0 86 17.5t72 48t48 70.5t17 87zM-66 1292 q0 76 29 143.5t78 119t116.5 80t145.5 28.5h1069q76 0 143.5 -28.5t119 -80t80 -119t28.5 -143.5q0 -78 -28.5 -144.5t-80 -117.5t-119 -79.5t-143.5 -28.5h-203q39 -78 39 -164t-39 -164h203q76 0 143.5 -28.5t119 -80t80 -119t28.5 -143.5q0 -78 -28.5 -144.5t-80 -117.5 t-119 -79.5t-143.5 -28.5h-1069q-152 0 -260.5 108.5t-108.5 261.5q0 76 29 143.5t78 119t116.5 80t145.5 28.5h203q-37 74 -37 164t37 164h-203q-152 0 -260.5 108t-108.5 262z" />
<glyph unicode="J" d="M1595 1292q0 45 -17 86t-48 72t-72 48.5t-86 17.5q-47 0 -87 -17.5t-69.5 -48.5t-47 -72t-17.5 -86v-534q0 -133 -92 -221q-94 -90 -221 -91q-127 0 -222 91q-90 94 -90 221q0 45 -17 86t-48 71.5t-72 48t-86 17.5q-47 0 -87 -17.5t-69.5 -48t-47 -71.5t-17.5 -86 q0 -315 221 -536.5t535 -221.5q313 0 534 221q223 223 223 537v534zM1743 758q0 -375 -266 -641q-264 -264 -639 -264t-639.5 264t-264.5 641q0 76 29 143.5t78 118.5t116.5 79.5t145.5 28.5q76 0 143.5 -28.5t118.5 -79.5t80 -118.5t29 -143.5q0 -70 45 -115 q49 -49 119 -49t118 49q47 47 48 115v534q0 76 28.5 143.5t77.5 119t116.5 80t145.5 28.5q76 0 143.5 -28.5t119 -80t80 -119t28.5 -143.5v-534z" />
<glyph unicode="K" d="M1595 223q0 240 -135 430q-129 190 -348 275q43 68 110.5 104.5t149.5 36.5q45 0 86 17.5t72 48t48 70.5t17 87q0 45 -17 86t-48 72t-72 48.5t-86 17.5q-313 0 -534 -224q-221 -225 -222 -534q0 -92 66 -157.5t156 -65.5q129 0 221 -92.5t92 -219.5q0 -92 65.5 -157.5 t155.5 -65.5q45 0 86 17.5t72 48t48 70.5t17 87zM526 1292q0 45 -17 86t-48 72t-72 48.5t-86 17.5q-47 0 -87 -17.5t-69.5 -48.5t-47 -72t-17.5 -86v-1069q0 -92 65.5 -157.5t155.5 -65.5q47 0 88 17.5t71 47t47 70.5t17 88v1069zM1743 223q0 -78 -28.5 -144.5t-80 -117.5 t-119 -79.5t-143.5 -28.5q-152 0 -260 108.5t-108 261.5q0 66 -49.5 115t-116.5 49q-90 0 -164 37v-201q0 -78 -29 -145.5t-79 -117.5t-117.5 -78.5t-145.5 -28.5q-152 0 -260.5 108.5t-108.5 261.5v1069q0 76 29 143.5t78 119t116.5 80t145.5 28.5q72 0 136.5 -25.5 t113.5 -70.5t81 -106.5t38 -131.5q27 33 61 68q264 266 639 266q76 0 143.5 -28.5t119 -80t80 -119t28.5 -143.5q0 -72 -25.5 -136t-70.5 -113.5t-106.5 -81t-131.5 -37.5q96 -82 172 -187v2q162 -225 162 -516z" />
<glyph unicode="L" d="M1595 223q0 45 -17 86t-48 72t-72 48t-86 17h-846v846q0 45 -17 86t-48 72t-72 48.5t-86 17.5q-47 0 -87 -17.5t-69.5 -48.5t-47 -72t-17.5 -86v-1069q0 -92 65.5 -157.5t155.5 -65.5h1069q45 0 86 17.5t72 48t48 70.5t17 87zM1743 223q0 -78 -28.5 -144.5t-80 -117.5 t-119 -79.5t-143.5 -28.5h-1069q-152 0 -260.5 108.5t-108.5 261.5v1069q0 76 29 143.5t78 119t116.5 80t145.5 28.5q76 0 143.5 -28.5t118.5 -80t80 -119t29 -143.5v-698h698q76 0 143.5 -28.5t119 -80t80 -119t28.5 -143.5z" />
<glyph unicode="M" d="M1061 758q0 45 -17.5 86t-48 71.5t-71.5 48t-86 17.5q-47 0 -87 -17.5t-70 -48t-47.5 -71.5t-17.5 -86v-535q0 -92 66 -157.5t156 -65.5q45 0 86 17.5t71.5 48t48 70.5t17.5 87v535zM1595 758q0 313 -223 534q-221 223 -534 224q-311 0 -535 -224q-221 -221 -221 -534 v-535q0 -92 65.5 -157.5t155.5 -65.5q47 0 88 17.5t71 47t47 70.5t17 88v535q0 129 90 219q92 92 222 92q129 0 221 -92t92 -219v-535q0 -92 65.5 -157.5t155.5 -65.5q45 0 86 17.5t72 48t48 70.5t17 87v535zM1743 223q0 -78 -28.5 -144.5t-80 -117.5t-119 -79.5 t-143.5 -28.5q-152 0 -260 108l-6 6q-51 -53 -121 -83.5t-147 -30.5q-152 0 -260 108l-7 6q-51 -53 -119.5 -83.5t-148.5 -30.5q-152 0 -260.5 108.5t-108.5 261.5v535q0 375 265 639q266 266 639 266q375 0 639 -266q266 -264 266 -639v-535z" />
<glyph unicode="N" d="M1595 1292q0 45 -17 86t-48 72t-72 48.5t-86 17.5q-47 0 -87 -17.5t-69.5 -48.5t-47 -72t-17.5 -86v-534q0 -92 65.5 -157.5t155.5 -65.5q45 0 86 17t72 48t48 71t17 87v534zM526 758q0 45 -17 86t-48 71.5t-72 48t-86 17.5q-47 0 -87 -17.5t-69.5 -48t-47 -71.5 t-17.5 -86v-535q0 -92 65.5 -157.5t155.5 -65.5q47 0 88 17.5t71 47t47 70.5t17 88v535zM1595 223q0 45 -17 86t-48 72t-72 48t-86 17q-127 0 -221 91q-90 94 -90 221q0 313 -223 534q-221 223 -535 224q-47 0 -87 -17.5t-69.5 -48.5t-47 -72t-17.5 -86q0 -92 65.5 -157.5 t155.5 -65.5q129 0 221 -92t92 -219q0 -315 221.5 -536.5t534.5 -221.5q45 0 86 17.5t72 48t48 70.5t17 87zM1743 758q0 -80 -31 -148.5t-84 -120.5q53 -51 84 -119.5t31 -146.5t-28.5 -144.5t-80 -117.5t-119 -79.5t-143.5 -28.5q-375 0 -639 264q-16 16 -32 34l-29 33 q-8 -72 -40 -132t-81 -104t-112.5 -69.5t-135.5 -25.5q-152 0 -260.5 108.5t-108.5 261.5v535q0 78 30 147.5t83 120.5q-4 0 -4 4q-109 109 -109 262q0 76 29 143.5t78 119t116.5 80t145.5 28.5q375 0 639 -266q33 -33 64 -70q6 70 36.5 131.5t78.5 107.5t112.5 71.5 t138.5 25.5q76 0 143.5 -28.5t119 -80t80 -119t28.5 -143.5v-534z" />
<glyph unicode="O" d="M1151 758q0 -133 -92 -221q-94 -90 -221 -91q-127 0 -222 91q-90 94 -90 221q0 129 90 219q92 92 222 92q129 0 221 -92t92 -219zM1595 758q0 313 -223 534q-221 223 -534 224q-311 0 -535 -224q-221 -221 -221 -534q0 -315 221 -536.5t535 -221.5q313 0 534 221 q223 224 223 537zM1743 758q0 -375 -266 -641q-264 -264 -639 -264t-639.5 264t-264.5 641q0 375 265 639q266 266 639 266q375 0 639 -266q266 -264 266 -639zM1004 758q0 66 -49.5 115t-116.5 49q-68 0 -117 -50q-47 -47 -47 -114q0 -70 49 -119q45 -45 115 -45t118 49 q48 47 48 115z" />
<glyph unicode="P" d="M1595 1292q0 45 -17 86t-48 72t-72 48.5t-86 17.5h-534q-311 0 -535 -224q-221 -221 -221 -534v-535q0 -92 65.5 -157.5t155.5 -65.5q47 0 88 17.5t71 47t47 70.5t17 88v535q0 129 90 219q92 92 222 92h219q-90 -88 -219 -88q-47 0 -87 -17.5t-70 -48t-47.5 -71.5 t-17.5 -86q0 -92 66 -157.5t156 -65.5q313 0 534 221q223 223 223 536zM1743 1292q0 -375 -266 -641q-264 -264 -639 -264q-90 0 -164 37v-201q0 -78 -29 -145.5t-79 -117.5t-117.5 -78.5t-145.5 -28.5q-152 0 -260.5 108.5t-108.5 261.5v535q0 375 265 639q266 266 639 266 h534q76 0 143.5 -28.5t119 -80t80 -119t28.5 -143.5z" />
<glyph unicode="Q" d="M1151 758q0 -133 -92 -221q-94 -90 -221 -91q-127 0 -222 91q-90 94 -90 221q0 129 90 219q92 92 222 92q129 0 221 -92t92 -219zM1595 223q0 115 -90 178q45 86 67.5 172t22.5 185q0 313 -223 534q-221 223 -534 224q-311 0 -535 -224q-221 -221 -221 -534 q0 -315 221 -536.5t535 -221.5q193 0 356 90q68 -90 178 -90q45 0 86 17.5t72 48t48 70.5t17 87zM1743 223q0 -78 -28.5 -144.5t-80 -117.5t-119 -79.5t-143.5 -28.5q-113 0 -205 63q-162 -63 -329 -63q-375 0 -639.5 264t-264.5 641q0 375 265 639q266 266 639 266 q375 0 639 -266q266 -264 266 -639q0 -92 -15.5 -171t-46.5 -157q29 -45 45.5 -97.5t16.5 -109.5zM1004 758q0 66 -49.5 115t-116.5 49q-68 0 -117 -50q-47 -47 -47 -114q0 -70 45 -115q49 -49 119 -49t118 49q48 47 48 115z" />
<glyph unicode="R" d="M1374 758q104 104 162.5 242.5t58.5 291.5q0 45 -17 86t-48 72t-72 48.5t-86 17.5h-534q-311 0 -535 -224q-221 -221 -221 -534v-535q0 -92 65.5 -157.5t155.5 -65.5q47 0 88 17.5t71 47t47 70.5t17 88v535q0 129 90 219q92 92 222 92h219q-90 -88 -219 -88 q-47 0 -87 -17.5t-70 -48t-47.5 -71.5t-17.5 -86q0 -92 66 -157.5t156 -65.5q129 0 221 -92.5t92 -219.5q0 -92 65.5 -157.5t155.5 -65.5q45 0 86 17.5t72 48t48 70.5t17 87q0 154 -58.5 292.5t-162.5 242.5zM1743 1292q0 -150 -45 -285t-129 -249q84 -115 129 -251t45 -284 q0 -78 -28.5 -144.5t-80 -117.5t-119 -79.5t-143.5 -28.5q-152 0 -260 108.5t-108 261.5q0 66 -49.5 115t-116.5 49q-90 0 -164 37v-201q0 -78 -29 -145.5t-79 -117.5t-117.5 -78.5t-145.5 -28.5q-152 0 -260.5 108.5t-108.5 261.5v535q0 375 265 639q266 266 639 266h534 q76 0 143.5 -28.5t119 -80t80 -119t28.5 -143.5z" />
<glyph unicode="S" d="M1061 223q0 45 -17.5 86t-48 72t-71.5 48t-86 17h-535q-47 0 -87 -17t-69.5 -48t-47 -72t-17.5 -86q0 -92 65.5 -157.5t155.5 -65.5h535q45 0 86 17.5t71.5 48t48 70.5t17.5 87zM616 1292q0 -92 66 -157.5t156 -65.5h534q45 0 86 17.5t72 48t48 70.5t17 87q0 45 -17 86 t-48 72t-72 48.5t-86 17.5h-534q-47 0 -87 -17.5t-70 -48.5t-47.5 -72t-17.5 -86zM1595 223q0 313 -223 535q-221 223 -534 223q-127 0 -222 90q-90 94 -90 221q0 45 -17 86t-48 72t-72 48.5t-86 17.5q-47 0 -87 -17.5t-69.5 -48.5t-47 -72t-17.5 -86q0 -315 221 -536 t535 -221q129 0 221 -92.5t92 -219.5q0 -92 65.5 -157.5t155.5 -65.5q45 0 86 17.5t72 48t48 70.5t17 87zM1743 223q0 -78 -28.5 -144.5t-80 -117.5t-119 -79.5t-143.5 -28.5q-152 0 -260 108l-6 6q-51 -53 -121 -83.5t-147 -30.5h-535q-152 0 -260.5 108.5t-108.5 261.5 q0 72 25 135.5t69 112.5t104.5 81t131.5 40l-33 29q-16 14 -32 30q-264 264 -265 641q0 76 29 143.5t78 119t116.5 80t145.5 28.5t146.5 -30.5t119.5 -84.5q51 53 120 84t149 31h534q76 0 143.5 -28.5t119 -80t80 -119t28.5 -143.5q0 -72 -25.5 -136t-70.5 -113.5 t-106.5 -81t-131.5 -37.5l68 -62q266 -264 266 -639z" />
<glyph unicode="T" d="M1595 1292q0 45 -17 86t-48 72t-72 48.5t-86 17.5h-1069q-47 0 -87 -17.5t-69.5 -48.5t-47 -72t-17.5 -86q0 -92 65.5 -157.5t155.5 -65.5h313v-846q0 -92 66 -157.5t156 -65.5q45 0 86 17.5t71.5 48t48 70.5t17.5 87v846h311q45 0 86 17.5t72 48t48 70.5t17 87z M1743 1292q0 -78 -28.5 -144.5t-80 -117.5t-119 -79.5t-143.5 -28.5h-164v-699q0 -78 -28.5 -144.5t-79.5 -117.5t-119 -79.5t-143 -28.5q-152 0 -260.5 108.5t-108.5 261.5v699h-166q-152 0 -260.5 108.5t-108.5 261.5q0 76 29 143.5t78 119t116.5 80t145.5 28.5h1069 q76 0 143.5 -28.5t119 -80t80 -119t28.5 -143.5z" />
<glyph unicode="U" d="M1595 1292q0 45 -17 86t-48 72t-72 48.5t-86 17.5q-47 0 -87 -17.5t-69.5 -48.5t-47 -72t-17.5 -86v-534q0 -133 -92 -221q-94 -90 -221 -91q-127 0 -222 91q-90 94 -90 221v534q0 45 -17 86t-48 72t-72 48.5t-86 17.5q-47 0 -87 -17.5t-69.5 -48.5t-47 -72t-17.5 -86 v-534q0 -315 221 -536.5t535 -221.5q313 0 534 221q223 223 223 537v534zM1743 758q0 -375 -266 -641q-264 -264 -639 -264t-639.5 264t-264.5 641v534q0 76 29 143.5t78 119t116.5 80t145.5 28.5q76 0 143.5 -28.5t118.5 -80t80 -119t29 -143.5v-534q0 -70 45 -115 q49 -49 119 -49t118 49q47 47 48 115v534q0 76 28.5 143.5t77.5 119t116.5 80t145.5 28.5q76 0 143.5 -28.5t119 -80t80 -119t28.5 -143.5v-534z" />
<glyph unicode="V" d="M1595 1292q0 45 -17 86t-48 72t-72 48.5t-86 17.5q-47 0 -87 -17.5t-69.5 -48.5t-47 -72t-17.5 -86v-846h-313q-127 0 -222 91q-90 94 -90 221v534q0 45 -17 86t-48 72t-72 48.5t-86 17.5q-47 0 -87 -17.5t-69.5 -48.5t-47 -72t-17.5 -86v-534q0 -315 221 -536.5 t535 -221.5h534q45 0 86 17.5t72 48t48 70.5t17 87v1069zM1743 223q0 -78 -28.5 -144.5t-80 -117.5t-119 -79.5t-143.5 -28.5h-534q-375 0 -639.5 264t-264.5 641v534q0 76 29 143.5t78 119t116.5 80t145.5 28.5q76 0 143.5 -28.5t118.5 -80t80 -119t29 -143.5v-534 q0 -70 45 -115q49 -49 119 -49h166v698q0 76 28.5 143.5t77.5 119t116.5 80t145.5 28.5q76 0 143.5 -28.5t119 -80t80 -119t28.5 -143.5v-1069z" />
<glyph unicode="W" d="M616 758q0 -92 66 -157.5t156 -65.5q45 0 86 17t71.5 48t48 71t17.5 87v534q0 45 -17.5 86t-48 72t-71.5 48.5t-86 17.5q-47 0 -87 -17.5t-70 -48.5t-47.5 -72t-17.5 -86v-534zM1595 1292q0 45 -17 86t-48 72t-72 48.5t-86 17.5q-47 0 -87 -17.5t-69.5 -48.5t-47 -72 t-17.5 -86v-534q0 -133 -92 -221q-94 -90 -221 -91q-127 0 -222 91q-90 94 -90 221v534q0 45 -17 86t-48 72t-72 48.5t-86 17.5q-47 0 -87 -17.5t-69.5 -48.5t-47 -72t-17.5 -86v-534q0 -315 221 -536.5t535 -221.5q313 0 534 221q223 223 223 537v534zM1743 758 q0 -375 -266 -641q-264 -264 -639 -264t-639.5 264t-264.5 641v534q0 76 29 143.5t78 119t116.5 80t145.5 28.5t146.5 -30.5t119.5 -84.5q51 53 120 84t149 31q78 0 146.5 -30.5t119.5 -84.5q51 53 119.5 84t148.5 31q76 0 143.5 -28.5t119 -80t80 -119t28.5 -143.5v-534z " />
<glyph unicode="X" d="M1374 758q104 104 162.5 242.5t58.5 291.5q0 45 -17 86t-48 72t-72 48.5t-86 17.5q-47 0 -87 -17.5t-69.5 -48.5t-47 -72t-17.5 -86q0 -133 -92 -221q-94 -90 -221 -90t-222 90q-90 94 -90 221q0 45 -17 86t-48 72t-72 48.5t-86 17.5q-47 0 -87 -17.5t-69.5 -48.5 t-47 -72t-17.5 -86q0 -154 58.5 -292t162.5 -242q-104 -104 -162.5 -242.5t-58.5 -292.5q0 -92 65.5 -157.5t155.5 -65.5q47 0 88 17.5t71 47t47 70.5t17 88q0 129 90 219q92 92 222 93q129 0 221 -92.5t92 -219.5q0 -92 65.5 -157.5t155.5 -65.5q45 0 86 17.5t72 48 t48 70.5t17 87q0 154 -58.5 292.5t-162.5 242.5zM1743 1292q0 -150 -45 -285t-129 -249q84 -115 129 -251t45 -284q0 -78 -28.5 -144.5t-80 -117.5t-119 -79.5t-143.5 -28.5q-152 0 -260 108.5t-108 261.5q0 66 -49.5 115t-116.5 49q-68 0 -117 -49q-47 -47 -47 -115 q0 -78 -29 -145.5t-79 -117.5t-117.5 -78.5t-145.5 -28.5q-152 0 -260.5 108.5t-108.5 261.5q0 147 45.5 283.5t129.5 251.5q-84 115 -129.5 250t-45.5 284q0 76 29 143.5t78 119t116.5 80t145.5 28.5q76 0 143.5 -28.5t118.5 -80t80 -119t29 -143.5q0 -70 49 -118 q45 -45 115 -46q70 0 118 50q47 47 48 114q0 76 28.5 143.5t77.5 119t116.5 80t145.5 28.5q76 0 143.5 -28.5t119 -80t80 -119t28.5 -143.5z" />
<glyph unicode="Y" d="M1061 569q229 70 383 273q152 201 151 450q0 45 -17 86t-48 72t-72 48.5t-86 17.5q-47 0 -87 -17.5t-69.5 -48.5t-47 -72t-17.5 -86q0 -133 -92 -221q-94 -90 -221 -90t-222 90q-90 94 -90 221q0 45 -17 86t-48 72t-72 48.5t-86 17.5q-47 0 -87 -17.5t-69.5 -48.5 t-47 -72t-17.5 -86q0 -254 149 -452q152 -201 385 -271v-346q0 -92 66 -157.5t156 -65.5q45 0 86 17.5t71.5 48t48 70.5t17.5 87v346zM1561 754q-145 -197 -353 -287v-244q0 -78 -28.5 -144.5t-79.5 -117.5t-119 -79.5t-143 -28.5q-152 0 -260.5 108.5t-108.5 261.5v242 q-209 92 -354 287q-180 238 -181 540q0 76 29 143.5t78 119t116.5 80t145.5 28.5q76 0 143.5 -28.5t118.5 -80t80 -119t29 -143.5q0 -70 49 -118q45 -45 115 -46q70 0 118 50q47 47 48 114q0 76 28.5 143.5t77.5 119t116.5 80t145.5 28.5q76 0 143.5 -28.5t119 -80t80 -119 t28.5 -143.5q0 -296 -182 -538z" />
<glyph unicode="Z" d="M1595 223q0 45 -17 86t-48 72t-72 48t-86 17h-530l688 689q66 66 65 157q0 39 -16 84q-27 66 -82 103t-125 37h-1069q-47 0 -87 -17.5t-69.5 -48.5t-47 -72t-17.5 -86q0 -92 65.5 -157.5t155.5 -65.5h533l-689 -688q-66 -66 -65 -158q0 -47 16 -84q27 -66 82.5 -102.5 t122.5 -36.5h1069q45 0 86 17.5t72 48t48 70.5t17 87zM1743 223q0 -78 -28.5 -144.5t-80 -117.5t-119 -79.5t-143.5 -28.5h-1069q-115 0 -207 61t-135 172l2 -8q-29 61 -29 145q0 154 109 262l436 437h-176q-152 0 -260.5 108.5t-108.5 261.5q0 76 29 143.5t78 119t116.5 80 t145.5 28.5h1069q117 0 209 -61.5t135 -174.5q27 -76 27 -135q0 -154 -109 -262l-436 -436h174q76 0 143.5 -28.5t119 -80t80 -119t28.5 -143.5z" />
<glyph unicode="[" horiz-adv-x="1142" d="M1061 223q0 45 -17.5 86t-48 72t-71.5 48t-86 17h-312v623h312q45 0 86 17.5t71.5 48t48 70.5t17.5 87q0 45 -17.5 86t-48 72t-71.5 48.5t-86 17.5h-535q-47 0 -87 -17.5t-69.5 -48.5t-47 -72t-17.5 -86v-1069q0 -92 65.5 -157.5t155.5 -65.5h535q45 0 86 17.5t71.5 48 t48 70.5t17.5 87zM1208 223q0 -78 -28.5 -144.5t-79.5 -117.5t-119 -79.5t-143 -28.5h-535q-152 0 -260.5 108.5t-108.5 261.5v1069q0 76 29 143.5t78 119t116.5 80t145.5 28.5h535q76 0 143.5 -28.5t118.5 -80t79.5 -119t28.5 -143.5q0 -78 -28.5 -144.5t-79.5 -117.5 t-119 -79.5t-143 -28.5h-164v-328h164q76 0 143.5 -28.5t118.5 -80t79.5 -119t28.5 -143.5z" />
<glyph unicode="\" d="M1530 66q66 66 65 157q0 92 -65 158l-1069 1069q-63 63 -156 63q-47 0 -88 -18t-70.5 -49t-47 -71t-17.5 -83q0 -92 65 -157l1067 -1069q72 -66 158 -66q92 0 158 66zM1634 -39q-109 -109 -262 -108q-143 0 -260 106l-1069 1071q-109 109 -109 262q0 74 29 140.5 t79 116.5t117.5 81t145.5 31q154 0 260 -107l1069 -1069q53 -53 81 -117.5t28 -144.5t-28 -144.5t-81 -117.5z" />
<glyph unicode="]" horiz-adv-x="1142" d="M1061 1292q0 45 -17.5 86t-48 72t-71.5 48.5t-86 17.5h-535q-47 0 -87 -17.5t-69.5 -48.5t-47 -72t-17.5 -86q0 -92 65.5 -157.5t155.5 -65.5h313v-623h-313q-47 0 -87 -17t-69.5 -48t-47 -72t-17.5 -86q0 -92 65.5 -157.5t155.5 -65.5h535q45 0 86 17.5t71.5 48t48 70.5 t17.5 87v1069zM1208 223q0 -78 -28.5 -144.5t-79.5 -117.5t-119 -79.5t-143 -28.5h-535q-152 0 -260.5 108.5t-108.5 261.5q0 76 29 143.5t78 119t116.5 80t145.5 28.5h166v328h-166q-152 0 -260.5 108.5t-108.5 261.5q0 76 29 143.5t78 119t116.5 80t145.5 28.5h535 q76 0 143.5 -28.5t118.5 -80t79.5 -119t28.5 -143.5v-1069z" />
<glyph unicode="^" horiz-adv-x="1142" d="M995 868q66 66 66 156q0 92 -66 158l-266 268q-63 63 -158 63q-94 0 -157 -63l-267 -268q-66 -66 -65 -158q0 -92 63 -156q66 -66 160 -65q43 0 84 16.5t72 48.5l110 109l109 -109q35 -35 74 -50t84 -15q91 -1 157 65zM1100 764q-53 -53 -117.5 -81t-144.5 -28 q-74 0 -138.5 25t-124.5 84l-6 6l-6 -6l4 2q-53 -55 -121.5 -83t-140.5 -28q-156 0 -264 109q-53 53 -80 119.5t-27 140.5q0 154 109 262l266 268q106 106 262 107q156 0 263 -107l266 -268q53 -53 80.5 -117.5t27.5 -144.5q1 -151 -108 -260z" />
<glyph unicode="_" horiz-adv-x="1142" d="M1061 -43q0 47 -17.5 87t-48 69.5t-71.5 47t-86 17.5h-535q-47 0 -87 -17.5t-69.5 -47t-47 -70.5t-17.5 -86q0 -92 65.5 -157.5t155.5 -65.5h535q45 0 86 17.5t71.5 48t48 70.5t17.5 87zM1208 -43q0 -78 -28.5 -144.5t-79.5 -117.5t-119 -80t-143 -29h-535 q-152 0 -260.5 108.5t-108.5 262.5q0 76 29 143.5t79 117.5t116.5 79t144.5 29h535q76 0 143.5 -29t118.5 -78t79.5 -116.5t28.5 -145.5z" />
<glyph unicode="`" horiz-adv-x="608" d="M526 1292q0 45 -17 86t-48 72t-72 48.5t-86 17.5q-47 0 -87 -17.5t-69.5 -48.5t-47 -72t-17.5 -86v-268q0 -47 17.5 -87t47 -69.5t69.5 -47t87 -17.5q92 0 157.5 65.5t65.5 155.5v268zM674 1024q0 -152 -108.5 -260.5t-262.5 -108.5q-78 0 -144.5 29t-116.5 79t-79 116.5 t-29 144.5v268q0 76 29 143.5t78 119t116.5 80t145.5 28.5q76 0 143.5 -28.5t118.5 -80t80 -119t29 -143.5v-268z" />
<glyph unicode="a" d="M1595 758q0 313 -223 534q-221 223 -534 224q-311 0 -535 -224q-221 -221 -221 -534q0 -315 221 -536.5t535 -221.5q45 0 86 17.5t71.5 48t48 70.5t17.5 87q0 45 -17.5 86t-48 72t-71.5 48t-86 17q-127 0 -222 91q-90 94 -90 221q0 129 90 219q92 92 222 92 q129 0 221 -92t92 -219v-535q0 -92 65.5 -157.5t155.5 -65.5q45 0 86 17.5t72 48t48 70.5t17 87v535zM1743 223q0 -78 -28.5 -144.5t-80 -117.5t-119 -79.5t-143.5 -28.5q-152 0 -260 108l-6 6q-51 -53 -121 -83.5t-147 -30.5q-375 0 -639.5 264t-264.5 641q0 375 265 639 q266 266 639 266q375 0 639 -266q266 -264 266 -639v-535zM838 594q84 0 166 -39v203q0 66 -49.5 115t-116.5 49q-68 0 -117 -50q-47 -47 -47 -114q0 -70 49 -119q45 -45 115 -45z" />
<glyph unicode="b" d="M1595 758q0 313 -223 534q-221 223 -534 224q-47 0 -87 -17.5t-70 -48.5t-47.5 -72t-17.5 -86q0 -92 66 -157.5t156 -65.5q129 0 221 -92t92 -219q0 -133 -92 -221q-94 -90 -221 -91q-127 0 -222 91q-90 94 -90 221v801q0 45 -17 86t-48 71.5t-72 48t-86 17.5 q-47 0 -87 -17.5t-69.5 -48t-47 -71.5t-17.5 -86v-801q0 -315 221 -536.5t535 -221.5q313 0 534 221q223 224 223 537zM1743 758q0 -375 -266 -641q-264 -264 -639 -264t-639.5 264t-264.5 641v801q0 76 29 143t78 118.5t116.5 80t145.5 28.5q68 0 129.5 -23.5t109.5 -64.5 t80.5 -97t45.5 -122q76 41 170 41q375 0 639 -266q266 -264 266 -639zM838 922q-90 0 -164 36v-200q0 -70 49 -119q45 -45 115 -45t118 49q47 47 48 115q0 66 -49 115t-117 49z" />
<glyph unicode="c" horiz-adv-x="1605" d="M1493 379q31 51 31 113q0 45 -17.5 84.5t-48.5 70.5t-70.5 49.5t-84.5 18.5q-131 0 -195 -113q-43 -74 -112.5 -115t-155.5 -41q-129 0 -221.5 92.5t-92.5 219.5q0 131 92 221q94 90 222 90q180 0 268 -156q31 -53 83 -82.5t112 -29.5q57 0 110 30q111 63 111 191 q0 61 -31 115q-51 88 -122 158.5t-154.5 119.5t-179 75t-197.5 26q-313 0 -537 -224q-221 -221 -221 -534t221 -537q223 -221 537 -221q201 0 377 102q174 101 276 277zM1620 305q-117 -205 -330 -330q-213 -123 -450 -122q-371 0 -641 264q-264 270 -265 641q0 375 265 639 q266 266 641 266q123 0 236.5 -30.5t214 -89t184.5 -142.5t145 -191v2q51 -90 51 -190q0 -166 -115 -268q53 -51 84 -119t31 -143q0 -49 -12 -97.5t-39 -91.5v2zM979 674q12 25 28.5 45l32.5 39q-16 18 -32.5 38.5t-28.5 43.5q-45 82 -139 82q-70 0 -119 -50 q-47 -47 -47 -114q0 -66 49 -115t117 -49q47 0 82.5 21.5t58.5 60.5z" />
<glyph unicode="d" d="M1595 1559q0 45 -17 86t-48 71.5t-72 48t-86 17.5q-47 0 -87 -17.5t-69.5 -48t-47 -71.5t-17.5 -86v-801q0 -133 -92 -221q-94 -90 -221 -91q-127 0 -222 91q-90 94 -90 221q0 129 90 219q92 92 222 92q45 0 86 17.5t71.5 48t48 70.5t17.5 87q0 45 -17.5 86t-48 72 t-71.5 48.5t-86 17.5q-311 0 -535 -224q-221 -221 -221 -534q0 -315 221 -536.5t535 -221.5q313 0 534 221q223 223 223 537v801zM1743 758q0 -375 -266 -641q-264 -264 -639 -264t-639.5 264t-264.5 641q0 375 265 639q266 266 639 266q47 0 89 -11.5t81 -31.5 q10 66 41.5 122t80 98t109.5 65.5t133 23.5q76 0 143.5 -28.5t119 -80t80 -119t28.5 -142.5v-801zM956 643q47 47 48 115v203q-82 -39 -166 -39q-68 0 -117 -50q-47 -47 -47 -114q0 -70 45 -115q49 -49 119 -49q69 0 118 49z" />
<glyph unicode="e" d="M838 981q-47 0 -87 -17.5t-70 -48t-47.5 -71.5t-17.5 -86q0 -92 66 -157.5t156 -65.5q45 0 86 17t71.5 48t48 71t17.5 87q0 45 -17.5 86t-48 71.5t-71.5 48t-86 17.5zM1595 223q0 45 -17 86t-48 72t-72 48t-86 17h-534q-127 0 -222 91q-90 94 -90 221q0 129 90 219 q92 92 222 92h534q45 0 86 17.5t72 48t48 70.5t17 87q0 45 -17 86t-48 72t-72 48.5t-86 17.5h-534q-311 0 -535 -224q-221 -221 -221 -534q0 -315 221 -536.5t535 -221.5h534q45 0 86 17.5t72 48t48 70.5t17 87zM1743 223q0 -78 -28.5 -144.5t-80 -117.5t-119 -79.5 t-143.5 -28.5h-534q-375 0 -639.5 264t-264.5 641q0 375 265 639q266 266 639 266h534q76 0 143.5 -28.5t119 -80t80 -119t28.5 -143.5q0 -78 -28.5 -144.5t-80 -117.5t-119 -79.5t-143.5 -28.5h-203q39 -78 39 -164t-39 -164h203q76 0 143.5 -28.5t119 -80t80 -119 t28.5 -143.5z" />
<glyph unicode="f" d="M1061 758q0 45 -17.5 86t-48 71.5t-71.5 48t-86 17.5q-47 0 -87 -17.5t-70 -48t-47.5 -71.5t-17.5 -86q0 -92 66 -157.5t156 -65.5q45 0 86 17t71.5 48t48 71t17.5 87zM1595 1292q0 45 -17 86t-48 72t-72 48.5t-86 17.5h-534q-311 0 -535 -224q-221 -221 -221 -534v-535 q0 -92 65.5 -157.5t155.5 -65.5q47 0 88 17.5t71 47t47 70.5t17 88v535q0 129 90 219q92 92 222 92h534q45 0 86 17.5t72 48t48 70.5t17 87zM1208 758q0 -78 -28.5 -144.5t-79.5 -118t-119 -80t-143 -28.5q-90 0 -164 37v-201q0 -78 -29 -145.5t-79 -117.5t-117.5 -78.5 t-145.5 -28.5q-152 0 -260.5 108.5t-108.5 261.5v535q0 375 265 639q266 266 639 266h534q76 0 143.5 -28.5t119 -80t80 -119t28.5 -143.5q0 -78 -28.5 -144.5t-80 -117.5t-119 -79.5t-143.5 -28.5h-203q39 -78 39 -164z" />
<glyph unicode="g" d="M1595 758q0 313 -223 534q-221 223 -534 224h-535q-47 0 -87 -17.5t-69.5 -48.5t-47 -72t-17.5 -86q0 -315 221 -536t535 -221q45 0 86 17t71.5 48t48 71t17.5 87q0 45 -17.5 86t-48 71.5t-71.5 48t-86 17.5q-129 0 -217 88h217q129 0 221 -92t92 -219q0 -133 -92 -221 q-94 -90 -221 -91h-535q-47 0 -87 -17t-69.5 -48t-47 -72t-17.5 -86q0 -92 65.5 -157.5t155.5 -65.5h535q313 0 534 221q223 224 223 537zM1743 758q0 -375 -266 -641q-264 -264 -639 -264h-535q-152 0 -260.5 108.5t-108.5 261.5q0 72 25 135.5t69 112.5t104.5 81t131.5 40 l-33 29q-16 14 -32 30q-264 264 -265 641q0 76 29 143.5t78 119t116.5 80t145.5 28.5h535q375 0 639 -266q266 -264 266 -639z" />
<glyph unicode="h" d="M1595 1292q0 45 -17 86t-48 72t-72 48.5t-86 17.5q-47 0 -87 -17.5t-69.5 -48.5t-47 -72t-17.5 -86v-311h-625v311q0 45 -17 86t-48 72t-72 48.5t-86 17.5q-47 0 -87 -17.5t-69.5 -48.5t-47 -72t-17.5 -86v-1069q0 -92 65.5 -157.5t155.5 -65.5q47 0 88 17.5t71 47 t47 70.5t17 88v312h625v-312q0 -92 65.5 -157.5t155.5 -65.5q45 0 86 17.5t72 48t48 70.5t17 87v1069zM1743 223q0 -78 -28.5 -144.5t-80 -117.5t-119 -79.5t-143.5 -28.5q-152 0 -260 108.5t-108 261.5v164h-330v-164q0 -78 -29 -145.5t-79 -117.5t-117.5 -78.5 t-145.5 -28.5q-152 0 -260.5 108.5t-108.5 261.5v1069q0 76 29 143.5t78 119t116.5 80t145.5 28.5q76 0 143.5 -28.5t118.5 -80t80 -119t29 -143.5v-164h330v164q0 76 28.5 143.5t77.5 119t116.5 80t145.5 28.5q76 0 143.5 -28.5t119 -80t80 -119t28.5 -143.5v-1069z" />
<glyph unicode="i" d="M1595 223q0 45 -17 86t-48 72t-72 48t-86 17h-311v623h311q45 0 86 17.5t72 48t48 70.5t17 87q0 45 -17 86t-48 72t-72 48.5t-86 17.5h-1069q-47 0 -87 -17.5t-69.5 -48.5t-47 -72t-17.5 -86q0 -92 65.5 -157.5t155.5 -65.5h313v-623h-313q-47 0 -87 -17t-69.5 -48 t-47 -72t-17.5 -86q0 -92 65.5 -157.5t155.5 -65.5h1069q45 0 86 17.5t72 48t48 70.5t17 87zM1743 223q0 -78 -28.5 -144.5t-80 -117.5t-119 -79.5t-143.5 -28.5h-1069q-152 0 -260.5 108.5t-108.5 261.5q0 76 29 143.5t78 119t116.5 80t145.5 28.5h166v328h-166 q-152 0 -260.5 108.5t-108.5 261.5q0 76 29 143.5t78 119t116.5 80t145.5 28.5h1069q76 0 143.5 -28.5t119 -80t80 -119t28.5 -143.5q0 -78 -28.5 -144.5t-80 -117.5t-119 -79.5t-143.5 -28.5h-164v-328h164q76 0 143.5 -28.5t119 -80t80 -119t28.5 -143.5z" />
<glyph unicode="j" d="M1151 1292q0 -92 65.5 -157.5t155.5 -65.5q45 0 86 17.5t72 48t48 70.5t17 87q0 45 -17 86t-48 72t-72 48.5t-86 17.5q-47 0 -87 -17.5t-69.5 -48.5t-47 -72t-17.5 -86zM1595 758q0 45 -17 86t-48 71.5t-72 48t-86 17.5q-47 0 -87 -17.5t-69.5 -48t-47 -71.5t-17.5 -86 q0 -133 -92 -221q-94 -90 -221 -91q-127 0 -222 91q-90 94 -90 221q0 45 -17 86t-48 71.5t-72 48t-86 17.5q-47 0 -87 -17.5t-69.5 -48t-47 -71.5t-17.5 -86q0 -315 221 -536.5t535 -221.5q313 0 534 221q223 224 223 537zM1004 1292q0 76 28.5 143.5t77.5 119t116.5 80 t145.5 28.5q76 0 143.5 -28.5t119 -80t80 -119t28.5 -143.5q0 -80 -31 -148.5t-84 -119.5q53 -51 84 -119.5t31 -146.5q0 -375 -266 -641q-264 -264 -639 -264t-639.5 264t-264.5 641q0 76 29 143.5t78 118.5t116.5 79.5t145.5 28.5q76 0 143.5 -28.5t118.5 -79.5t80 -118.5 t29 -143.5q0 -70 49 -119q45 -45 115 -45t118 49q47 47 48 115q0 78 29.5 147.5t82.5 120.5q-4 0 -4 4q-108 108 -108 262z" />
<glyph unicode="k" d="M526 1292q0 45 -17 86t-48 72t-72 48.5t-86 17.5q-47 0 -87 -17.5t-69.5 -48.5t-47 -72t-17.5 -86v-1069q0 -92 65.5 -157.5t155.5 -65.5q47 0 88 17.5t71 47t47 70.5t17 88v1069zM1595 223q0 45 -17 86t-48 72t-72 48t-86 17q-82 0 -149.5 38t-110.5 104q217 82 350 274 q133 195 133 430q0 45 -17 86t-48 72t-72 48.5t-86 17.5q-47 0 -87 -17.5t-69.5 -48.5t-47 -72t-17.5 -86q0 -133 -92 -221q-94 -90 -221 -90q-47 0 -87 -17.5t-70 -48t-47.5 -71.5t-17.5 -86q0 -315 221.5 -536.5t534.5 -221.5q45 0 86 17.5t72 48t48 70.5t17 87zM674 1092 q37 16 78 26t86 10q70 0 118 50q47 47 48 114q0 76 28.5 143.5t77.5 119t116.5 80t145.5 28.5q76 0 143.5 -28.5t119 -80t80 -119t28.5 -143.5q0 -281 -160 -514q-72 -104 -172 -186q70 -8 130.5 -40t105.5 -81t70.5 -112.5t25.5 -135.5q0 -78 -28.5 -144.5t-80 -117.5 t-119 -79.5t-143.5 -28.5q-375 0 -639 264q-16 16 -32 34l-29 33q-8 -72 -40 -132t-81 -104t-112.5 -69.5t-135.5 -25.5q-152 0 -260.5 108.5t-108.5 261.5v1069q0 76 29 143.5t78 119t116.5 80t145.5 28.5q76 0 143.5 -28.5t118.5 -80t80 -119t29 -143.5v-200z" />
<glyph unicode="l" d="M1595 223q0 45 -17 86t-48 72t-72 48t-86 17h-534q-127 0 -222 91q-90 94 -90 221v534q0 45 -17 86t-48 72t-72 48.5t-86 17.5q-47 0 -87 -17.5t-69.5 -48.5t-47 -72t-17.5 -86v-534q0 -315 221 -536.5t535 -221.5h534q45 0 86 17.5t72 48t48 70.5t17 87zM1743 223 q0 -78 -28.5 -144.5t-80 -117.5t-119 -79.5t-143.5 -28.5h-534q-375 0 -639.5 264t-264.5 641v534q0 76 29 143.5t78 119t116.5 80t145.5 28.5q76 0 143.5 -28.5t118.5 -80t80 -119t29 -143.5v-534q0 -70 49 -119q45 -45 115 -45h534q76 0 143.5 -28.5t119 -80t80 -119 t28.5 -143.5z" />
<glyph unicode="m" d="M1061 758q0 45 -17.5 86t-48 71.5t-71.5 48t-86 17.5q-47 0 -87 -17.5t-70 -48t-47.5 -71.5t-17.5 -86v-535q0 -92 66 -157.5t156 -65.5q45 0 86 17.5t71.5 48t48 70.5t17.5 87v535zM1595 758q0 313 -223 534q-221 223 -534 224q-311 0 -535 -224q-221 -221 -221 -534 v-535q0 -92 65.5 -157.5t155.5 -65.5q47 0 88 17.5t71 47t47 70.5t17 88v535q0 129 90 219q92 92 222 92q129 0 221 -92t92 -219v-535q0 -92 65.5 -157.5t155.5 -65.5q45 0 86 17.5t72 48t48 70.5t17 87v535zM1743 223q0 -78 -28.5 -144.5t-80 -117.5t-119 -79.5 t-143.5 -28.5q-152 0 -260 108l-6 6q-51 -53 -121 -83.5t-147 -30.5q-152 0 -260 108l-7 6q-51 -53 -119.5 -83.5t-148.5 -30.5q-152 0 -260.5 108.5t-108.5 261.5v535q0 375 265 639q266 266 639 266q375 0 639 -266q266 -264 266 -639v-535z" />
<glyph unicode="n" d="M1595 758q0 313 -223 534q-221 223 -534 224q-311 0 -535 -224q-221 -221 -221 -534v-535q0 -92 65.5 -157.5t155.5 -65.5q47 0 88 17.5t71 47t47 70.5t17 88v535q0 129 90 219q92 92 222 92q129 0 221 -92t92 -219v-535q0 -92 65.5 -157.5t155.5 -65.5q45 0 86 17.5 t72 48t48 70.5t17 87v535zM1743 223q0 -78 -28.5 -144.5t-80 -117.5t-119 -79.5t-143.5 -28.5q-152 0 -260 108.5t-108 261.5v535q0 66 -49.5 115t-116.5 49q-68 0 -117 -50q-47 -47 -47 -114v-535q0 -78 -29 -145.5t-79 -117.5t-117.5 -78.5t-145.5 -28.5 q-152 0 -260.5 108.5t-108.5 261.5v535q0 375 265 639q266 266 639 266q375 0 639 -266q266 -264 266 -639v-535z" />
<glyph unicode="o" d="M1151 758q0 -133 -92 -221q-94 -90 -221 -91q-127 0 -222 91q-90 94 -90 221q0 129 90 219q92 92 222 92q129 0 221 -92t92 -219zM1595 758q0 313 -223 534q-221 223 -534 224q-311 0 -535 -224q-221 -221 -221 -534q0 -315 221 -536.5t535 -221.5q313 0 534 221 q223 224 223 537zM1743 758q0 -375 -266 -641q-264 -264 -639 -264t-639.5 264t-264.5 641q0 375 265 639q266 266 639 266q375 0 639 -266q266 -264 266 -639zM1004 758q0 66 -49.5 115t-116.5 49q-68 0 -117 -50q-47 -47 -47 -114q0 -70 49 -119q45 -45 115 -45t118 49 q48 47 48 115z" />
<glyph unicode="p" d="M1595 758q0 313 -223 534q-221 223 -534 224q-311 0 -535 -224q-221 -221 -221 -534v-801q0 -92 65.5 -157.5t155.5 -65.5q47 0 88 17.5t71 47t47 70.5t17 88v801q0 129 90 219q92 92 222 92q129 0 221 -92t92 -219q0 -133 -92 -221q-94 -90 -221 -91q-47 0 -87 -17 t-70 -48t-47.5 -72t-17.5 -86q0 -92 66 -157.5t156 -65.5q313 0 534 221q223 224 223 537zM1743 758q0 -375 -266 -641q-264 -264 -639 -264q-92 0 -170 41q-10 -66 -43 -122.5t-81 -97.5t-109.5 -64.5t-131.5 -23.5q-152 0 -260.5 108.5t-108.5 262.5v801q0 375 265 639 q266 266 639 266q375 0 639 -266q266 -264 266 -639zM674 557q37 16 78 26.5t86 10.5q70 0 118 49q47 47 48 115q0 66 -49.5 115t-116.5 49q-68 0 -117 -50q-47 -47 -47 -114v-201z" />
<glyph unicode="q" d="M1595 758q0 313 -223 534q-221 223 -534 224q-311 0 -535 -224q-221 -221 -221 -534q0 -315 221 -536.5t535 -221.5q45 0 86 17.5t71.5 48t48 70.5t17.5 87q0 45 -17.5 86t-48 72t-71.5 48t-86 17q-127 0 -222 91q-90 94 -90 221q0 129 90 219q92 92 222 92 q129 0 221 -92t92 -219v-801q0 -92 65.5 -157.5t155.5 -65.5q45 0 86 17.5t72 48t48 70.5t17 87v801zM1743 -43q0 -78 -28.5 -144.5t-80 -117.5t-119 -80t-143.5 -29q-152 0 -260 109q-86 86 -104 199q-78 -41 -170 -41q-375 0 -639.5 264t-264.5 641q0 375 265 639 q266 266 639 266q375 0 639 -266q266 -264 266 -639v-801zM838 594q84 0 166 -39v203q0 66 -49.5 115t-116.5 49q-68 0 -117 -50q-47 -47 -47 -114q0 -70 49 -119q45 -45 115 -45z" />
<glyph unicode="r" d="M1595 1292q0 45 -17 86t-48 72t-72 48.5t-86 17.5h-534q-311 0 -535 -224q-221 -221 -221 -534v-535q0 -92 65.5 -157.5t155.5 -65.5q47 0 88 17.5t71 47t47 70.5t17 88v535q0 129 90 219q92 92 222 92h534q45 0 86 17.5t72 48t48 70.5t17 87zM1743 1292 q0 -78 -28.5 -144.5t-80 -117.5t-119 -79.5t-143.5 -28.5h-534q-68 0 -117 -50q-47 -47 -47 -114v-535q0 -78 -29 -145.5t-79 -117.5t-117.5 -78.5t-145.5 -28.5q-152 0 -260.5 108.5t-108.5 261.5v535q0 375 265 639q266 266 639 266h534q76 0 143.5 -28.5t119 -80t80 -119 t28.5 -143.5z" />
<glyph unicode="s" d="M838 981q-47 0 -87 -17.5t-70 -48t-47.5 -71.5t-17.5 -86q0 -92 66 -157.5t156 -65.5q45 0 86 17t71.5 48t48 71t17.5 87q0 45 -17.5 86t-48 71.5t-71.5 48t-86 17.5zM82 758q0 -92 65.5 -157.5t155.5 -65.5q47 0 88 17t71 47t47 71t17 88q0 129 90 219q92 92 222 92h534 q45 0 86 17.5t72 48t48 70.5t17 87q0 45 -17 86t-48 72t-72 48.5t-86 17.5h-534q-311 0 -535 -224q-221 -221 -221 -534zM1595 758q0 45 -17 86t-48 71.5t-72 48t-86 17.5q-47 0 -87 -17.5t-69.5 -48t-47 -71.5t-17.5 -86q0 -133 -92 -221q-94 -90 -221 -91h-535 q-47 0 -87 -17t-69.5 -48t-47 -72t-17.5 -86q0 -92 65.5 -157.5t155.5 -65.5h535q313 0 534 221q223 224 223 537zM-66 758q0 375 265 639q266 266 639 266h534q76 0 143.5 -28.5t119 -80t80 -119t28.5 -143.5q0 -80 -31 -148.5t-84 -119.5q53 -51 84 -119.5t31 -146.5 q0 -375 -266 -641q-264 -264 -639 -264h-535q-152 0 -260.5 108.5t-108.5 261.5q0 78 30 147.5t83 121.5q-4 0 -4 4q-109 108 -109 262z" />
<glyph unicode="t" horiz-adv-x="1142" d="M616 1292q0 -92 66 -157.5t156 -65.5q45 0 86 17.5t71.5 48t48 70.5t17.5 87q0 45 -17.5 86t-48 72t-71.5 48.5t-86 17.5q-47 0 -87 -17.5t-70 -48.5t-47.5 -72t-17.5 -86zM1061 223q0 45 -17.5 86t-48 72t-71.5 48t-86 17q-127 0 -222 91q-90 94 -90 221v801 q0 45 -17 86t-48 71.5t-72 48t-86 17.5q-47 0 -87 -17.5t-69.5 -48t-47 -71.5t-17.5 -86v-801q0 -315 221 -536.5t535 -221.5q45 0 86 17.5t71.5 48t48 70.5t17.5 87zM1208 223q0 -78 -28.5 -144.5t-79.5 -117.5t-119 -79.5t-143 -28.5q-375 0 -639.5 264t-264.5 641v801 q0 76 29 143t78 118.5t116.5 80t145.5 28.5q68 0 129.5 -23.5t109.5 -64.5t80.5 -97t45.5 -122q76 41 170 41q76 0 143.5 -28.5t118.5 -80t79.5 -119t28.5 -143.5q0 -78 -28.5 -144.5t-79.5 -117.5t-119 -79.5t-143 -28.5q-90 0 -164 36v-200q0 -70 45 -115q49 -49 119 -49 q76 0 143.5 -28.5t118.5 -80t79.5 -119t28.5 -143.5z" />
<glyph unicode="u" d="M1595 1292q0 45 -17 86t-48 72t-72 48.5t-86 17.5q-47 0 -87 -17.5t-69.5 -48.5t-47 -72t-17.5 -86v-534q0 -133 -92 -221q-94 -90 -221 -91q-127 0 -222 91q-90 94 -90 221v534q0 45 -17 86t-48 72t-72 48.5t-86 17.5q-47 0 -87 -17.5t-69.5 -48.5t-47 -72t-17.5 -86 v-534q0 -315 221 -536.5t535 -221.5q313 0 534 221q223 223 223 537v534zM1743 758q0 -375 -266 -641q-264 -264 -639 -264t-639.5 264t-264.5 641v534q0 76 29 143.5t78 119t116.5 80t145.5 28.5q76 0 143.5 -28.5t118.5 -80t80 -119t29 -143.5v-534q0 -70 45 -115 q49 -49 119 -49t118 49q47 47 48 115v534q0 76 28.5 143.5t77.5 119t116.5 80t145.5 28.5q76 0 143.5 -28.5t119 -80t80 -119t28.5 -143.5v-534z" />
<glyph unicode="v" d="M1595 1292q0 45 -17 86t-48 72t-72 48.5t-86 17.5q-47 0 -87 -17.5t-69.5 -48.5t-47 -72t-17.5 -86v-534q0 -133 -92 -221q-94 -90 -221 -91h-312v846q0 45 -17 86t-48 72t-72 48.5t-86 17.5q-47 0 -87 -17.5t-69.5 -48.5t-47 -72t-17.5 -86v-1069q0 -92 65.5 -157.5 t155.5 -65.5h535q313 0 534 221q223 223 223 537v534zM1743 758q0 -375 -266 -641q-264 -264 -639 -264h-535q-152 0 -260.5 108.5t-108.5 261.5v1069q0 76 29 143.5t78 119t116.5 80t145.5 28.5q76 0 143.5 -28.5t118.5 -80t80 -119t29 -143.5v-698h164q70 0 118 49 q47 47 48 115v534q0 76 28.5 143.5t77.5 119t116.5 80t145.5 28.5q76 0 143.5 -28.5t119 -80t80 -119t28.5 -143.5v-534z" />
<glyph unicode="w" d="M616 758q0 -92 66 -157.5t156 -65.5q45 0 86 17t71.5 48t48 71t17.5 87v534q0 45 -17.5 86t-48 72t-71.5 48.5t-86 17.5q-47 0 -87 -17.5t-70 -48.5t-47.5 -72t-17.5 -86v-534zM1595 1292q0 45 -17 86t-48 72t-72 48.5t-86 17.5q-47 0 -87 -17.5t-69.5 -48.5t-47 -72 t-17.5 -86v-534q0 -133 -92 -221q-94 -90 -221 -91q-127 0 -222 91q-90 94 -90 221v534q0 45 -17 86t-48 72t-72 48.5t-86 17.5q-47 0 -87 -17.5t-69.5 -48.5t-47 -72t-17.5 -86v-534q0 -315 221 -536.5t535 -221.5q313 0 534 221q223 223 223 537v534zM1743 758 q0 -375 -266 -641q-264 -264 -639 -264t-639.5 264t-264.5 641v534q0 76 29 143.5t78 119t116.5 80t145.5 28.5t146.5 -30.5t119.5 -84.5q51 53 120 84t149 31q78 0 146.5 -30.5t119.5 -84.5q51 53 119.5 84t148.5 31q76 0 143.5 -28.5t119 -80t80 -119t28.5 -143.5v-534z " />
<glyph unicode="x" d="M1595 223q0 45 -17 86t-48 72t-72 48t-86 17q-127 0 -221 91q-90 94 -90 221q0 129 90 219q92 92 221 92q45 0 86 17.5t72 48t48 70.5t17 87q0 45 -17 86t-48 72t-72 48.5t-86 17.5q-156 0 -292 -58.5t-242 -163.5q-111 106 -246 164t-289 58q-47 0 -87 -17.5 t-69.5 -48.5t-47 -72t-17.5 -86q0 -92 65.5 -157.5t155.5 -65.5q129 0 221 -92t92 -219q0 -133 -92 -221q-94 -90 -221 -91q-47 0 -87 -17t-69.5 -48t-47 -72t-17.5 -86q0 -92 65.5 -157.5t155.5 -65.5q156 0 292 58.5t243 162.5q111 -106 246 -163.5t288 -57.5 q45 0 86 17.5t72 48t48 70.5t17 87zM1743 223q0 -78 -28.5 -144.5t-80 -117.5t-119 -79.5t-143.5 -28.5q-150 0 -284 45t-250 129q-115 -84 -250 -129t-285 -45q-152 0 -260.5 108.5t-108.5 261.5q0 76 29 143.5t78 119t116.5 80t145.5 28.5q70 0 119 49q47 47 47 115 q0 66 -49 115t-117 49q-152 0 -260.5 108.5t-108.5 261.5q0 76 29 143.5t78 119t116.5 80t145.5 28.5q147 0 282.5 -45t252.5 -131q115 86 249 131t285 45q76 0 143.5 -28.5t119 -80t80 -119t28.5 -143.5q0 -78 -28.5 -144.5t-80 -117.5t-119 -79.5t-143.5 -28.5 q-68 0 -117 -50q-47 -47 -47 -114q0 -70 45 -115q49 -49 119 -49q76 0 143.5 -28.5t119 -80t80 -119t28.5 -143.5z" />
<glyph unicode="y" d="M82 1292q0 -315 221 -536t535 -221q45 0 86 17t71.5 48t48 71t17.5 87q0 45 -17.5 86t-48 71.5t-71.5 48t-86 17.5q-127 0 -222 90q-90 94 -90 221q0 45 -17 86t-48 72t-72 48.5t-86 17.5q-47 0 -87 -17.5t-69.5 -48.5t-47 -72t-17.5 -86zM1595 1292q0 45 -17 86t-48 72 t-72 48.5t-86 17.5q-47 0 -87 -17.5t-69.5 -48.5t-47 -72t-17.5 -86v-534q0 -133 -92 -221q-94 -90 -221 -91h-535q-47 0 -87 -17t-69.5 -48t-47 -72t-17.5 -86q0 -92 65.5 -157.5t155.5 -65.5h535q313 0 534 221q223 223 223 537v534zM-66 1292q0 76 29 143.5t78 119 t116.5 80t145.5 28.5q76 0 143.5 -28.5t118.5 -80t80 -119t29 -143.5q0 -70 45 -114q49 -49 119 -50q84 0 166 -38v202q0 76 28.5 143.5t77.5 119t116.5 80t145.5 28.5q76 0 143.5 -28.5t119 -80t80 -119t28.5 -143.5v-534q0 -375 -266 -641q-264 -264 -639 -264h-535 q-152 0 -260.5 108.5t-108.5 261.5q0 72 25 135.5t69 112.5t104.5 81t131.5 40l-33 29q-16 14 -32 30q-265 264 -265 641z" />
<glyph unicode="z" d="M1595 223q0 45 -17 86t-48 72t-72 48t-86 17h-534q-47 0 -87 -17t-70 -48t-47.5 -72t-17.5 -86q0 -92 66 -157.5t156 -65.5h534q45 0 86 17.5t72 48t48 70.5t17 87zM82 1292q0 -92 65.5 -157.5t155.5 -65.5h535q45 0 86 17.5t71.5 48t48 70.5t17.5 87q0 45 -17.5 86 t-48 72t-71.5 48.5t-86 17.5h-535q-47 0 -87 -17.5t-69.5 -48.5t-47 -72t-17.5 -86zM526 223q0 129 90 219q92 92 222 93q313 0 534 221q223 223 223 536q0 45 -17 86t-48 72t-72 48.5t-86 17.5q-47 0 -87 -17.5t-69.5 -48.5t-47 -72t-17.5 -86q0 -133 -92 -221 q-94 -90 -221 -90q-311 0 -535 -223q-221 -221 -221 -535q0 -92 65.5 -157.5t155.5 -65.5q47 0 88 17.5t71 47t47 70.5t17 88zM-66 1292q0 76 29 143.5t78 119t116.5 80t145.5 28.5h535q78 0 146.5 -30.5t119.5 -84.5q51 53 119.5 84t148.5 31q76 0 143.5 -28.5t119 -80 t80 -119t28.5 -143.5q0 -375 -266 -641q-33 -33 -66 -59q70 -8 130.5 -40t105.5 -81t70.5 -112.5t25.5 -135.5q0 -78 -28.5 -144.5t-80 -117.5t-119 -79.5t-143.5 -28.5h-534q-152 0 -260 108l-7 6q-51 -53 -119.5 -83.5t-148.5 -30.5q-152 0 -260.5 108.5t-108.5 261.5 q0 375 265 639q16 16 32.5 30.5t32.5 31.5q-131 12 -221 106q-109 108 -109 262z" />
<glyph unicode="{" horiz-adv-x="1411" d="M1329 223q0 45 -17.5 86t-48 72t-71.5 48t-86 17q-127 0 -221 91q-90 94 -90 221q0 129 90 219q92 92 221 92q45 0 86 17.5t71.5 48t48 70.5t17.5 87q0 45 -17.5 86t-48 72t-71.5 48.5t-86 17.5q-258 0 -457 -154q-201 -154 -270 -395q-45 14 -74 14q-47 0 -87 -17.5 t-70.5 -48t-48 -71.5t-17.5 -86q0 -47 17.5 -87t48 -71t70.5 -48t87 -17q37 0 74 14q70 -242 270 -395q199 -154 457 -154q45 0 86 17.5t71.5 48t48 70.5t17.5 87zM1477 223q0 -78 -29 -144.5t-80 -117.5t-118.5 -79.5t-143.5 -28.5q-307 0 -547 184q-186 139 -278 350 q-74 4 -136.5 35t-109.5 81t-74 115.5t-27 139.5t27 139.5t74 114.5t109.5 79.5t136.5 34.5q92 209 278 353q240 184 547 184q76 0 143.5 -28.5t118.5 -80t80 -119t29 -143.5q0 -78 -29 -144.5t-80 -117.5t-118.5 -79.5t-143.5 -28.5q-68 0 -117 -50q-47 -47 -47 -114 q0 -70 45 -115q49 -49 119 -49q76 0 143.5 -28.5t118.5 -80t80 -119t29 -143.5z" />
<glyph unicode="|" horiz-adv-x="608" d="M526 1559q0 45 -17 86t-48 71.5t-72 48t-86 17.5q-47 0 -87 -17.5t-69.5 -48t-47 -71.5t-17.5 -86v-1602q0 -92 65.5 -157.5t155.5 -65.5q45 0 86 17.5t72 48t48 70.5t17 87v1602zM674 -43q0 -78 -29 -144.5t-80 -117.5t-118.5 -80t-143.5 -29q-152 0 -260.5 108.5 t-108.5 262.5v1602q0 76 29 143t78 118.5t116.5 80t145.5 28.5q76 0 143.5 -28.5t118.5 -80t80 -119t29 -142.5v-1602z" />
<glyph unicode="}" horiz-adv-x="1411" d="M1329 758q0 45 -17.5 86t-48 71.5t-71.5 48t-86 17.5q-37 0 -74 -14q-70 242 -270.5 395.5t-456.5 153.5q-47 0 -87 -17.5t-70.5 -48.5t-48 -72t-17.5 -86q0 -47 17.5 -87t48 -70.5t70.5 -48t87 -17.5q129 0 219 -92q92 -90 92 -219t-92 -221q-90 -90 -219 -91 q-47 0 -87 -17t-70.5 -48t-48 -72t-17.5 -86q0 -47 17.5 -87t48 -70.5t70.5 -48t87 -17.5q256 0 457 153.5t270 395.5q45 -14 74 -14q45 0 86 17t71.5 48t48 71t17.5 87zM1477 758q0 -74 -27 -139.5t-74 -115.5t-110.5 -81t-135.5 -35q-90 -207 -278 -350 q-240 -184 -547 -184q-78 0 -144.5 28.5t-117.5 79.5t-80 117.5t-29 144.5q0 76 29 143.5t80 119t117.5 80t144.5 28.5q68 0 115 47q49 49 49 117t-49 114q-47 49 -115 50q-78 0 -144.5 28.5t-117.5 79.5t-80 117.5t-29 144.5q0 76 29 143.5t80 119t117.5 80t144.5 28.5 q307 0 547 -184q188 -147 278 -353q72 -4 135.5 -34.5t110.5 -79.5t74 -114.5t27 -139.5z" />
<glyph unicode="~" d="M1595 1024q0 45 -17 86t-48 71.5t-72 48t-86 17.5q-47 0 -87 -17.5t-69.5 -48t-47 -71.5t-17.5 -86q0 -127 -90 -217v217q0 45 -17.5 86t-48 71.5t-71.5 48t-86 17.5q-313 0 -534.5 -221t-221.5 -534q0 -92 65.5 -158t155.5 -66q47 0 88 17.5t71 47t47 70.5t17 89 q0 61 23.5 117.5t66.5 99.5v-217q0 -92 66 -158t156 -66q315 0 536 221.5t221 534.5zM1743 1024q0 -375 -264.5 -639t-640.5 -264q-152 0 -260 108q-2 2 -3.5 2t-3.5 2q-51 -53 -119.5 -82.5t-148.5 -29.5q-152 0 -260.5 108.5t-108.5 262.5q0 375 264.5 639t639.5 264 q78 0 146.5 -31t119.5 -84q51 53 119.5 84t148.5 31q76 0 143.5 -29t119 -80t80 -118.5t28.5 -143.5z" />
<glyph unicode="&#xaa;" d="M1595 758q0 313 -223 534q-221 223 -534 224q-311 0 -535 -224q-221 -221 -221 -534q0 -315 221 -536.5t535 -221.5q45 0 86 17.5t71.5 48t48 70.5t17.5 87q0 45 -17.5 86t-48 72t-71.5 48t-86 17q-127 0 -222 91q-90 94 -90 221q0 129 90 219q92 92 222 92 q129 0 221 -92t92 -219v-535q0 -92 65.5 -157.5t155.5 -65.5q45 0 86 17.5t72 48t48 70.5t17 87v535zM1743 223q0 -78 -28.5 -144.5t-80 -117.5t-119 -79.5t-143.5 -28.5q-152 0 -260 108l-6 6q-51 -53 -121 -83.5t-147 -30.5q-375 0 -639.5 264t-264.5 641q0 375 265 639 q266 266 639 266q375 0 639 -266q266 -264 266 -639v-535zM838 594q84 0 166 -39v203q0 66 -49.5 115t-116.5 49q-68 0 -117 -50q-47 -47 -47 -114q0 -70 49 -119q45 -45 115 -45z" />
<glyph unicode="&#xad;" horiz-adv-x="1142" d="M1061 758q0 45 -17.5 86t-48 71.5t-71.5 48t-86 17.5h-535q-47 0 -87 -17.5t-69.5 -48t-47 -71.5t-17.5 -86q0 -92 65.5 -157.5t155.5 -65.5h535q45 0 86 17t71.5 48t48 71t17.5 87zM1208 758q0 -78 -28.5 -144.5t-79.5 -118t-119 -80t-143 -28.5h-535 q-152 0 -260.5 108.5t-108.5 262.5q0 76 29 143.5t78 118.5t116.5 79.5t145.5 28.5h535q76 0 143.5 -28.5t118.5 -79.5t79.5 -118.5t28.5 -143.5z" />
<glyph unicode="&#xb2;" d="M1595 223q0 45 -17 86t-48 72t-72 48t-86 17h-534q-47 0 -87 -17t-70 -48t-47.5 -72t-17.5 -86q0 -92 66 -157.5t156 -65.5h534q45 0 86 17.5t72 48t48 70.5t17 87zM526 223q0 129 90 219q92 92 222 93h534q45 0 86 17t72 48t48 71t17 87q0 313 -223 534 q-221 223 -534 224h-535q-47 0 -87 -17.5t-69.5 -48.5t-47 -72t-17.5 -86q0 -92 65.5 -157.5t155.5 -65.5h535q68 0 121 -22.5t98 -65.5h-219q-311 0 -535 -223q-221 -221 -221 -535q0 -92 65.5 -157.5t155.5 -65.5q47 0 88 17.5t71 47t47 70.5t17 88zM1743 223 q0 -78 -28.5 -144.5t-80 -117.5t-119 -79.5t-143.5 -28.5h-534q-152 0 -260 108l-7 6q-51 -53 -119.5 -83.5t-148.5 -30.5q-152 0 -260.5 108.5t-108.5 261.5q0 375 265 639q16 16 32.5 30.5t32.5 31.5q-131 12 -221 106q-109 109 -109 262q0 76 29 143.5t78 119t116.5 80 t145.5 28.5h535q375 0 639 -266q266 -264 266 -639q0 -80 -31 -148.5t-84 -120.5q53 -51 84 -119.5t31 -146.5z" />
<glyph unicode="&#xb3;" d="M82 758q0 -92 65.5 -157.5t155.5 -65.5h535q45 0 86 17t71.5 48t48 71t17.5 87q0 45 -17.5 86t-48 71.5t-71.5 48t-86 17.5h-535q-47 0 -87 -17.5t-69.5 -48t-47 -71.5t-17.5 -86zM1595 758q0 313 -223 534q-221 223 -534 224h-535q-47 0 -87 -17.5t-69.5 -48.5t-47 -72 t-17.5 -86q0 -92 65.5 -157.5t155.5 -65.5h535q129 0 221 -92t92 -219q0 -133 -92 -221q-94 -90 -221 -91h-535q-47 0 -87 -17t-69.5 -48t-47 -72t-17.5 -86q0 -92 65.5 -157.5t155.5 -65.5h535q313 0 534 221q223 224 223 537zM-66 758q0 78 30 147.5t83 120.5q-4 0 -4 4 q-109 109 -109 262q0 76 29 143.5t78 119t116.5 80t145.5 28.5h535q375 0 639 -266q266 -264 266 -639t-266 -641q-264 -264 -639 -264h-535q-152 0 -260.5 108.5t-108.5 261.5q0 78 30 147.5t83 121.5q-4 0 -4 4q-109 108 -109 262z" />
<glyph unicode="&#xb9;" horiz-adv-x="608" d="M526 1292q0 45 -17 86t-48 72t-72 48.5t-86 17.5q-47 0 -87 -17.5t-69.5 -48.5t-47 -72t-17.5 -86v-1069q0 -92 65.5 -157.5t155.5 -65.5q45 0 86 17.5t72 48t48 70.5t17 87v1069zM674 223q0 -78 -29 -144.5t-80 -117.5t-118.5 -79.5t-143.5 -28.5q-152 0 -260.5 108.5 t-108.5 261.5v1069q0 76 29 143.5t78 119t116.5 80t145.5 28.5q76 0 143.5 -28.5t118.5 -80t80 -119t29 -143.5v-1069z" />
<glyph unicode="&#xba;" d="M1151 758q0 -133 -92 -221q-94 -90 -221 -91q-127 0 -222 91q-90 94 -90 221q0 129 90 219q92 92 222 92q129 0 221 -92t92 -219zM1595 758q0 313 -223 534q-221 223 -534 224q-311 0 -535 -224q-221 -221 -221 -534q0 -315 221 -536.5t535 -221.5q313 0 534 221 q223 224 223 537zM1743 758q0 -375 -266 -641q-264 -264 -639 -264t-639.5 264t-264.5 641q0 375 265 639q266 266 639 266q375 0 639 -266q266 -264 266 -639zM1004 758q0 66 -49.5 115t-116.5 49q-68 0 -117 -50q-47 -47 -47 -114q0 -70 49 -119q45 -45 115 -45t118 49 q48 47 48 115z" />
<glyph unicode="&#xc0;" d="M1061 492q0 47 -17.5 86.5t-48 69.5t-71.5 47.5t-86 17.5q-47 0 -87 -17.5t-70 -47.5t-47.5 -70.5t-17.5 -85.5q0 -92 66 -158t156 -66q45 0 86 17.5t71.5 48.5t48 71t17.5 87zM1595 758q0 313 -223 534q-221 223 -534 224q-311 0 -535 -224q-221 -221 -221 -534v-535 q0 -92 65.5 -157.5t155.5 -65.5q47 0 88 17.5t71 47t47 70.5t17 88v535q0 129 90 219q92 92 222 92q129 0 221 -92t92 -219v-535q0 -92 65.5 -157.5t155.5 -65.5q45 0 86 17.5t72 48t48 70.5t17 87v535zM1743 223q0 -78 -28.5 -144.5t-80 -117.5t-119 -79.5t-143.5 -28.5 q-152 0 -260 108q-86 86 -104 201q-78 -41 -170 -41q-94 0 -170 39q-10 -66 -43 -122t-81 -97t-109.5 -64.5t-131.5 -23.5q-152 0 -260.5 108.5t-108.5 261.5v535q0 375 265 639q266 266 639 266q375 0 639 -266q266 -264 266 -639v-535zM721 872q-18 -18 -33 -43 q35 14 72 22.5t78 8.5q80 0 147 -31q-6 12 -13 22.5t-18 20.5q-49 49 -116 50q-68 -1 -117 -50z" />
<glyph unicode="&#xc1;" d="M1595 758q0 313 -223 534q-221 223 -534 224h-535q-47 0 -87 -17.5t-69.5 -48.5t-47 -72t-17.5 -86q0 -92 65.5 -157.5t155.5 -65.5h535q129 0 221 -92t92 -219q0 -133 -92 -221q-94 -90 -221 -91h-217q88 88 217 89q45 0 86 17t71.5 48t48 71t17.5 87q0 45 -17.5 86 t-48 71.5t-71.5 48t-86 17.5q-311 0 -535 -223q-221 -221 -221 -535q0 -92 65.5 -157.5t155.5 -65.5h535q313 0 534 221q223 224 223 537zM1743 758q0 -375 -266 -641q-264 -264 -639 -264h-535q-152 0 -260.5 108.5t-108.5 261.5q0 375 265 639q16 16 32.5 30.5t32.5 31.5 q-131 12 -221 106q-109 109 -109 262q0 76 29 143.5t78 119t116.5 80t145.5 28.5h535q375 0 639 -266q266 -264 266 -639z" />
<glyph unicode="&#xc2;" d="M1595 758q0 313 -223 534q-221 223 -534 224h-535q-47 0 -87 -17.5t-69.5 -48.5t-47 -72t-17.5 -86q0 -92 65.5 -157.5t155.5 -65.5h535q129 0 221 -92t92 -219q0 -133 -92 -221q-94 -90 -221 -91q-129 0 -217 89h217q45 0 86 17t71.5 48t48 71t17.5 87q0 45 -17.5 86 t-48 71.5t-71.5 48t-86 17.5h-535q-47 0 -87 -17.5t-69.5 -48t-47 -71.5t-17.5 -86q0 -315 221 -536.5t535 -221.5q313 0 534 221q223 224 223 537zM1743 758q0 -375 -266 -641q-264 -264 -639 -264t-639.5 264t-264.5 641q0 78 30 147.5t83 120.5q-4 0 -4 4 q-109 109 -109 262q0 76 29 143.5t78 119t116.5 80t145.5 28.5h535q375 0 639 -266q266 -264 266 -639z" />
<glyph unicode="&#xc3;" d="M1595 223q0 45 -17 86t-48 72t-72 48t-86 17h-534q-127 0 -222 91q-90 94 -90 221q0 129 90 219q92 92 222 92q129 0 221 -92t92 -219q0 -92 65.5 -157.5t155.5 -65.5q45 0 86 17t72 48t48 71t17 87q0 313 -223 534q-221 223 -534 224q-311 0 -535 -224 q-221 -221 -221 -534q0 -315 221 -536.5t535 -221.5h534q45 0 86 17.5t72 48t48 70.5t17 87zM1743 223q0 -78 -28.5 -144.5t-80 -117.5t-119 -79.5t-143.5 -28.5h-534q-375 0 -639.5 264t-264.5 641q0 375 265 639q266 266 639 266q375 0 639 -266q266 -264 266 -639 q0 -80 -31 -148.5t-84 -120.5q53 -51 84 -119.5t31 -146.5zM719 643q49 -49 119 -49h202q-37 74 -36 164q0 66 -49.5 115t-116.5 49q-68 0 -117 -50q-47 -47 -47 -114q0 -70 45 -115z" />
<glyph unicode="&#xc4;" d="M1374 758q104 104 162.5 242.5t58.5 291.5q0 45 -17 86t-48 72t-72 48.5t-86 17.5h-534q-311 0 -535 -224q-221 -221 -221 -534v-535q0 -92 65.5 -157.5t155.5 -65.5q47 0 88 17.5t71 47t47 70.5t17 88v535q0 129 90 219q92 92 222 92h219q-90 -88 -219 -88 q-47 0 -87 -17.5t-70 -48t-47.5 -71.5t-17.5 -86q0 -92 66 -157.5t156 -65.5q68 0 121 -23t98 -66h-219q-47 0 -87 -17t-70 -48t-47.5 -72t-17.5 -86q0 -92 66 -157.5t156 -65.5h534q45 0 86 17.5t72 48t48 70.5t17 87q0 154 -58.5 292.5t-162.5 242.5zM1743 1292 q0 -150 -45 -285t-129 -249q84 -115 129 -251t45 -284q0 -78 -28.5 -144.5t-80 -117.5t-119 -79.5t-143.5 -28.5h-534q-152 0 -260 108l-7 6q-51 -53 -119.5 -83.5t-148.5 -30.5q-152 0 -260.5 108.5t-108.5 261.5v535q0 375 265 639q266 266 639 266h534q76 0 143.5 -28.5 t119 -80t80 -119t28.5 -143.5z" />
<glyph unicode="&#xc5;" d="M1505 580q41 31 65.5 78t24.5 100q0 313 -223 534q-221 223 -534 224q-311 0 -535 -224q-221 -221 -221 -534v-535q0 -92 65.5 -157.5t155.5 -65.5q47 0 88 17.5t71 47t47 70.5t17 88v535q0 129 90 219q92 92 222 92q80 0 146.5 -36t109.5 -99q-125 47 -256 47 q-47 0 -87 -17.5t-70 -48t-47.5 -71.5t-17.5 -86q0 -92 66 -157.5t156 -65.5q68 0 121 -23t98 -66h-219q-47 0 -87 -17t-70 -48t-47.5 -72t-17.5 -86q0 -92 66 -157.5t156 -65.5h534q45 0 86 17.5t72 48t48 70.5t17 87q0 187 -90 357zM1743 758q0 -115 -64 -207 q63 -162 64 -328q0 -78 -28.5 -144.5t-80 -117.5t-119 -79.5t-143.5 -28.5h-534q-152 0 -260 108l-7 6q-51 -53 -119.5 -83.5t-148.5 -30.5q-152 0 -260.5 108.5t-108.5 261.5v535q0 375 265 639q266 266 639 266q375 0 639 -266q266 -264 266 -639z" />
<glyph unicode="&#xc6;" horiz-adv-x="2746" d="M2664 758q0 45 -17 86t-48 71.5t-72 48t-86 17.5h-534q-47 0 -87 -17.5t-71 -48t-48.5 -71.5t-17.5 -86q0 -47 17.5 -87t48.5 -71t71 -48t87 -17h534q45 0 86 17t72 48t48 71t17 87zM2664 223q0 45 -17 86t-48 72t-72 48t-86 17h-534q-127 0 -221 91q-90 94 -91 221 q0 129 91 219q92 92 221 92h534q45 0 86 17.5t72 48t48 70.5t17 87q0 45 -17 86t-48 72t-72 48.5t-86 17.5h-534q-156 0 -292 -58.5t-243 -163.5q-111 106 -246 164t-288 58q-311 0 -535 -224q-221 -221 -221 -534v-535q0 -47 17.5 -87t48 -70.5t70.5 -48t87 -17.5t87 17.5 t70 48t47 70.5t17 87v535q0 129 90 219q92 92 222 92q129 0 221 -92t92 -219q0 -315 221 -536.5t535 -221.5h534q45 0 86 17.5t72 48t48 70.5t17 87zM1061 758q0 45 -17.5 86t-48 71.5t-71.5 48t-86 17.5q-47 0 -87 -17.5t-70 -48t-47.5 -71.5t-17.5 -86q0 -92 66 -157.5 t156 -65.5q45 0 86 17t71.5 48t48 71t17.5 87zM2812 223q0 -78 -28.5 -144.5t-80 -117.5t-119 -79.5t-143.5 -28.5h-534q-375 0 -639 264q-154 154 -217 338q-45 -33 -99.5 -50.5t-113.5 -17.5q-90 0 -164 37v-201q0 -78 -29 -144.5t-78 -117.5t-116.5 -79.5t-145.5 -28.5 t-144.5 28.5t-117.5 79.5t-80 117.5t-29 144.5v535q0 375 265 639q266 266 639 266q147 0 282 -45t252 -131q115 86 249 131t286 45h534q76 0 143.5 -28.5t119 -80t80 -119t28.5 -143.5q0 -80 -31 -148.5t-84 -119.5q53 -51 84 -119.5t31 -146.5q0 -80 -31 -148.5 t-84 -120.5q53 -51 84 -119.5t31 -146.5z" />
<glyph unicode="&#xc7;" d="M1595 758q0 313 -223 534q-221 223 -534 224h-535q-47 0 -87 -17.5t-69.5 -48.5t-47 -72t-17.5 -86v-1069q0 -92 65.5 -157.5t155.5 -65.5q47 0 88 17.5t71 47t47 70.5t17 88v846h312q129 0 221 -92t92 -219q0 -133 -92 -221q-94 -90 -221 -91q-47 0 -87 -17t-70 -48 t-47.5 -72t-17.5 -86q0 -92 66 -157.5t156 -65.5q313 0 534 221q223 224 223 537zM1743 758q0 -375 -266 -641q-264 -264 -639 -264q-152 0 -260 108l-7 6q-51 -53 -119.5 -83.5t-148.5 -30.5q-152 0 -260.5 108.5t-108.5 261.5v1069q0 76 29 143.5t78 119t116.5 80 t145.5 28.5h535q375 0 639 -266q266 -264 266 -639zM674 922v-365q37 16 78 26.5t86 10.5q70 0 118 49q47 47 48 115q0 66 -49.5 115t-116.5 49h-164z" />
<glyph unicode="&#xc8;" d="M1595 758q0 313 -223 534q-221 223 -534 224h-535q-47 0 -87 -17.5t-69.5 -48.5t-47 -72t-17.5 -86v-534q0 -92 65.5 -157.5t155.5 -65.5q47 0 88 17t71 47t47 71t17 88v311h312q129 0 221 -92t92 -219q0 -133 -92 -221q-94 -90 -221 -91h-535q-47 0 -87 -17t-69.5 -48 t-47 -72t-17.5 -86q0 -92 65.5 -157.5t155.5 -65.5h535q313 0 534 221q223 224 223 537zM1743 758q0 -375 -266 -641q-264 -264 -639 -264h-535q-152 0 -260.5 108.5t-108.5 261.5q0 78 30 147.5t83 121.5q-4 0 -4 4q-109 109 -109 262v534q0 76 29 143.5t78 119t116.5 80 t145.5 28.5h535q375 0 639 -266q266 -264 266 -639zM674 758q0 -86 -39 -164h203q70 0 118 49q47 47 48 115q0 66 -49.5 115t-116.5 49h-164v-164z" />
<glyph unicode="&#xc9;" horiz-adv-x="1605" d="M1061 758q0 92 -65.5 157.5t-155.5 65.5q-47 0 -87 -17.5t-71 -48t-48.5 -71.5t-17.5 -86q0 -47 17.5 -87t48.5 -71t71 -48t87 -17t87 17t69.5 48t47 71t17.5 87zM1493 379q31 51 31 113q0 45 -17.5 84.5t-48.5 70.5t-70.5 49.5t-84.5 18.5q-131 0 -195 -113 q-43 -74 -112.5 -115t-155.5 -41q-129 0 -221.5 92.5t-92.5 219.5q0 131 92 221q94 90 222 90q180 0 268 -156q31 -53 83 -82.5t112 -29.5q57 0 110 30q111 63 111 191q0 61 -31 115q-51 88 -122 158.5t-154.5 119.5t-179 75t-197.5 26q-313 0 -537 -224 q-221 -221 -221 -534t221 -537q223 -221 537 -221q201 0 377 102q174 101 276 277zM1620 305q-117 -205 -330 -330q-213 -123 -450 -122q-371 0 -641 264q-264 270 -265 641q0 375 265 639q266 266 641 266q123 0 236.5 -30.5t214 -89t184.5 -142.5t145 -191v2 q51 -90 51 -190q0 -166 -115 -268q53 -51 84 -119t31 -143q0 -49 -12 -97.5t-39 -91.5v2z" />
<glyph unicode="&#xca;" d="M1595 223q0 45 -17 86t-48 72t-72 48t-86 17h-534q-127 0 -222 91q-90 94 -90 221q0 129 90 219q92 92 222 92q68 0 121 -22.5t98 -65.5h-219q-47 0 -87 -17.5t-70 -48t-47.5 -71.5t-17.5 -86q0 -92 66 -157.5t156 -65.5h534q45 0 86 17t72 48t48 71t17 87 q0 313 -223 534q-221 223 -534 224q-311 0 -535 -224q-221 -221 -221 -534q0 -315 221 -536.5t535 -221.5h534q45 0 86 17.5t72 48t48 70.5t17 87zM1743 223q0 -78 -28.5 -144.5t-80 -117.5t-119 -79.5t-143.5 -28.5h-534q-375 0 -639.5 264t-264.5 641q0 375 265 639 q266 266 639 266q375 0 639 -266q266 -264 266 -639q0 -80 -31 -148.5t-84 -120.5q53 -51 84 -119.5t31 -146.5z" />
<glyph unicode="&#xcb;" d="M1595 223q0 45 -17 86t-48 72t-72 48t-86 17h-534q-127 0 -222 91q-90 94 -90 221q0 129 90 219q92 92 222 92h219q-90 -88 -219 -88q-47 0 -87 -17.5t-70 -48t-47.5 -71.5t-17.5 -86q0 -92 66 -157.5t156 -65.5q313 0 534 221q223 223 223 536q0 45 -17 86t-48 72 t-72 48.5t-86 17.5h-534q-311 0 -535 -224q-221 -221 -221 -534q0 -315 221 -536.5t535 -221.5h534q45 0 86 17.5t72 48t48 70.5t17 87zM1743 223q0 -78 -28.5 -144.5t-80 -117.5t-119 -79.5t-143.5 -28.5h-534q-375 0 -639.5 264t-264.5 641q0 375 265 639q266 266 639 266 h534q76 0 143.5 -28.5t119 -80t80 -119t28.5 -143.5q0 -375 -266 -641q-33 -33 -66 -59q70 -8 130.5 -40t105.5 -81t70.5 -112.5t25.5 -135.5z" />
<glyph unicode="&#xcc;" d="M1061 758q0 45 -17.5 86t-48 71.5t-71.5 48t-86 17.5q-47 0 -87 -17.5t-70 -48t-47.5 -71.5t-17.5 -86q0 -92 66 -157.5t156 -65.5q45 0 86 17t71.5 48t48 71t17.5 87zM1595 758q0 313 -223 534q-221 223 -534 224q-311 0 -535 -224q-221 -221 -221 -534v-535 q0 -92 65.5 -157.5t155.5 -65.5q47 0 88 17.5t71 47t47 70.5t17 88v535q0 129 90 219q92 92 222 92q129 0 221 -92t92 -219q0 -92 65.5 -157.5t155.5 -65.5q45 0 86 17t72 48t48 71t17 87zM1743 758q0 -78 -28.5 -144.5t-80 -118t-119 -80t-143.5 -28.5q-152 0 -260 109 l-6 6q-51 -53 -121 -84t-147 -31q-90 0 -164 37v-201q0 -78 -29 -145.5t-79 -117.5t-117.5 -78.5t-145.5 -28.5q-152 0 -260.5 108.5t-108.5 261.5v535q0 375 265 639q266 266 639 266q375 0 639 -266q266 -264 266 -639z" />
<glyph unicode="&#xcd;" d="M1595 758q0 45 -17 86t-48 71.5t-72 48t-86 17.5h-534q-47 0 -87 -17.5t-70 -48t-47.5 -71.5t-17.5 -86q0 -92 66 -157.5t156 -65.5h219q-90 -88 -219 -89q-127 0 -222 91q-90 94 -90 221q0 129 90 219q92 92 222 92h534q45 0 86 17.5t72 48t48 70.5t17 87q0 45 -17 86 t-48 72t-72 48.5t-86 17.5h-534q-311 0 -535 -224q-221 -221 -221 -534q0 -315 221 -536.5t535 -221.5q313 0 534 221q223 224 223 537zM1743 758q0 -375 -266 -641q-264 -264 -639 -264t-639.5 264t-264.5 641q0 375 265 639q266 266 639 266h534q76 0 143.5 -28.5t119 -80 t80 -119t28.5 -143.5q0 -80 -31 -148.5t-84 -119.5q53 -51 84 -119.5t31 -146.5z" />
<glyph unicode="&#xce;" d="M1595 223q0 313 -223 535q-221 223 -534 223q-47 0 -87 -17.5t-70 -48t-47.5 -71.5t-17.5 -86q0 -92 66 -157.5t156 -65.5q68 0 121 -23t98 -66h-219q-127 0 -222 91q-90 94 -90 221q0 129 90 219q92 92 222 92h534q45 0 86 17.5t72 48t48 70.5t17 87q0 45 -17 86t-48 72 t-72 48.5t-86 17.5h-534q-311 0 -535 -224q-221 -221 -221 -534q0 -315 221 -536.5t535 -221.5h534q45 0 86 17.5t72 48t48 70.5t17 87zM1743 223q0 -78 -28.5 -144.5t-80 -117.5t-119 -79.5t-143.5 -28.5h-534q-375 0 -639.5 264t-264.5 641q0 375 265 639q266 266 639 266 h534q76 0 143.5 -28.5t119 -80t80 -119t28.5 -143.5q0 -72 -25.5 -136t-70.5 -113.5t-106.5 -81t-131.5 -37.5l68 -62q266 -264 266 -639z" />
<glyph unicode="&#xcf;" d="M1595 758q0 313 -223 534q-221 223 -534 224q-311 0 -535 -224q-221 -221 -221 -534q0 -92 65.5 -157.5t155.5 -65.5h535q45 0 86 17t71.5 48t48 71t17.5 87q0 45 -17.5 86t-48 71.5t-71.5 48t-86 17.5h-217q88 88 217 88t221 -92t92 -219q0 -133 -92 -221 q-94 -90 -221 -91h-535q-47 0 -87 -17t-69.5 -48t-47 -72t-17.5 -86q0 -92 65.5 -157.5t155.5 -65.5h535q313 0 534 221q223 224 223 537zM1743 758q0 -375 -266 -641q-264 -264 -639 -264h-535q-152 0 -260.5 108.5t-108.5 261.5q0 78 30 147.5t83 121.5q-4 0 -4 4 q-109 109 -109 262q0 375 265 639q266 266 639 266q375 0 639 -266q266 -264 266 -639z" />
<glyph unicode="&#xd0;" horiz-adv-x="608" d="M82 1292q0 -92 65.5 -157.5t155.5 -65.5q45 0 86 17.5t72 48t48 70.5t17 87q0 45 -17 86t-48 72t-72 48.5t-86 17.5q-47 0 -87 -17.5t-69.5 -48.5t-47 -72t-17.5 -86zM526 758q0 45 -17 86t-48 71.5t-72 48t-86 17.5q-47 0 -87 -17.5t-69.5 -48t-47 -71.5t-17.5 -86v-535 q0 -92 65.5 -157.5t155.5 -65.5q45 0 86 17.5t72 48t48 70.5t17 87v535zM-66 1292q0 76 29 143.5t78 119t116.5 80t145.5 28.5q76 0 143.5 -28.5t118.5 -80t80 -119t29 -143.5q0 -80 -31 -148.5t-84 -119.5q53 -51 84 -119.5t31 -146.5v-535q0 -78 -29 -144.5t-80 -117.5 t-118.5 -79.5t-143.5 -28.5q-152 0 -260.5 108.5t-108.5 261.5v535q0 78 30 147.5t83 120.5q-4 0 -4 4q-109 108 -109 262z" />
<glyph unicode="&#xd1;" horiz-adv-x="608" d="M82 1292q0 -92 65.5 -157.5t155.5 -65.5q45 0 86 17.5t72 48t48 70.5t17 87q0 45 -17 86t-48 72t-72 48.5t-86 17.5q-47 0 -87 -17.5t-69.5 -48.5t-47 -72t-17.5 -86zM526 758q0 45 -17 86t-48 71.5t-72 48t-86 17.5q-47 0 -87 -17.5t-69.5 -48t-47 -71.5t-17.5 -86v-801 q0 -92 65.5 -157.5t155.5 -65.5q45 0 86 17.5t72 48t48 70.5t17 87v801zM-66 1292q0 76 29 143.5t78 119t116.5 80t145.5 28.5q76 0 143.5 -28.5t118.5 -80t80 -119t29 -143.5q0 -80 -31 -148.5t-84 -119.5q53 -51 84 -119.5t31 -146.5v-801q0 -78 -29 -144.5t-80 -117.5 t-118.5 -80t-143.5 -29q-152 0 -260.5 108.5t-108.5 262.5v801q0 78 30 147.5t83 120.5q-4 0 -4 4q-109 108 -109 262z" />
<glyph unicode="&#xd2;" horiz-adv-x="1142" d="M616 1292q0 -92 66 -157.5t156 -65.5q45 0 86 17.5t71.5 48t48 70.5t17.5 87q0 45 -17.5 86t-48 72t-71.5 48.5t-86 17.5q-47 0 -87 -17.5t-70 -48.5t-47.5 -72t-17.5 -86zM1061 758q0 45 -17.5 86t-48 71.5t-71.5 48t-86 17.5q-47 0 -87 -17.5t-70 -48t-47.5 -71.5 t-17.5 -86q0 -133 -92 -221q-94 -90 -221 -91q-47 0 -87 -17t-69.5 -48t-47 -72t-17.5 -86q0 -92 65.5 -157.5t155.5 -65.5q313 0 535 221q223 224 223 537zM469 1292q0 76 28.5 143.5t78 119t117 80t145.5 28.5q76 0 143.5 -28.5t118.5 -80t79.5 -119t28.5 -143.5 q0 -80 -30.5 -148.5t-83.5 -119.5q53 -51 83.5 -119.5t30.5 -146.5q0 -375 -266 -641q-264 -264 -639 -264q-152 0 -260.5 108.5t-108.5 261.5q0 76 29 143.5t78 119t116.5 80t145.5 28.5q70 0 119 49q47 47 47 115q0 78 29.5 147.5t83.5 120.5q-4 0 -4 4q-109 108 -109 262 z" />
<glyph unicode="&#xd3;" d="M1153 758l377 377q66 66 65 157q0 45 -17 86t-47 71t-71 47t-88 17q-94 0 -158 -63l-534 -535q-63 -63 -64 -157q0 -94 64 -158l534 -534q72 -66 158 -66q45 0 86 17.5t72 47t48 70.5t17 88q0 92 -65 158zM526 1292q0 45 -17 86t-48 72t-72 48.5t-86 17.5 q-47 0 -87 -17.5t-69.5 -48.5t-47 -72t-17.5 -86v-1069q0 -92 65.5 -157.5t155.5 -65.5q47 0 88 17.5t71 47t47 70.5t17 88v1069zM1634 485q53 -53 81 -117.5t28 -144.5q0 -78 -28.5 -145.5t-80 -117.5t-119 -78.5t-143.5 -28.5q-143 0 -260 106l-438 438v-174 q0 -78 -29 -145.5t-79 -117.5t-117.5 -78.5t-145.5 -28.5q-152 0 -260.5 108.5t-108.5 261.5v1069q0 76 29 143.5t78 119t116.5 80t145.5 28.5q76 0 143.5 -28.5t118.5 -80t80 -119t29 -143.5v-174l436 436q106 106 262 107q78 0 145.5 -28.5t118 -79t79 -118t28.5 -143.5 q0 -80 -27.5 -144.5t-81.5 -117.5l-272 -272z" />
<glyph unicode="&#xd4;" d="M1595 223q0 45 -17 86t-48 72t-72 48t-86 17q-127 0 -221 91q-90 94 -90 221q0 129 90 219q92 92 221 92q45 0 86 17.5t72 48t48 70.5t17 87q0 45 -17 86t-48 72t-72 48.5t-86 17.5q-313 0 -534 -224q-221 -225 -222 -534q0 -315 221.5 -536.5t534.5 -221.5q45 0 86 17.5 t72 48t48 70.5t17 87zM526 1292q0 45 -17 86t-48 72t-72 48.5t-86 17.5q-47 0 -87 -17.5t-69.5 -48.5t-47 -72t-17.5 -86v-1069q0 -92 65.5 -157.5t155.5 -65.5q47 0 88 17.5t71 47t47 70.5t17 88v1069zM1743 223q0 -78 -28.5 -144.5t-80 -117.5t-119 -79.5t-143.5 -28.5 q-375 0 -639 264q-16 16 -32 34l-29 33q-8 -72 -40 -132t-81 -104t-112.5 -69.5t-135.5 -25.5q-152 0 -260.5 108.5t-108.5 261.5v1069q0 76 29 143.5t78 119t116.5 80t145.5 28.5q72 0 136.5 -25.5t113.5 -70.5t81 -106.5t38 -131.5q27 33 61 68q264 266 639 266 q76 0 143.5 -28.5t119 -80t80 -119t28.5 -143.5q0 -78 -28.5 -144.5t-80 -117.5t-119 -79.5t-143.5 -28.5q-68 0 -117 -50q-47 -47 -47 -114q0 -70 49 -119q45 -45 115 -45q76 0 143.5 -28.5t119 -80t80 -119t28.5 -143.5z" />
<glyph unicode="&#xd5;" d="M1374 758q104 104 162.5 242.5t58.5 291.5q0 45 -17 86t-48 72t-72 48.5t-86 17.5q-47 0 -87 -17.5t-69.5 -48.5t-47 -72t-17.5 -86q0 -133 -92 -221q-94 -90 -221 -90q-47 0 -87 -17.5t-70 -48t-47.5 -71.5t-17.5 -86q0 -92 66 -157.5t156 -65.5q129 0 221 -92.5 t92 -219.5q0 -92 65.5 -157.5t155.5 -65.5q45 0 86 17.5t72 48t48 70.5t17 87q0 154 -58.5 292.5t-162.5 242.5zM526 1292q0 45 -17 86t-48 72t-72 48.5t-86 17.5q-47 0 -87 -17.5t-69.5 -48.5t-47 -72t-17.5 -86v-1069q0 -92 65.5 -157.5t155.5 -65.5q47 0 88 17.5t71 47 t47 70.5t17 88v1069zM674 1092q37 16 78 26t86 10q70 0 118 50q47 47 48 114q0 76 28.5 143.5t77.5 119t116.5 80t145.5 28.5q76 0 143.5 -28.5t119 -80t80 -119t28.5 -143.5q0 -150 -45 -285t-129 -249q84 -115 129 -251t45 -284q0 -78 -28.5 -144.5t-80 -117.5t-119 -79.5 t-143.5 -28.5q-152 0 -260 108.5t-108 261.5q0 66 -49.5 115t-116.5 49q-90 0 -164 37v-201q0 -78 -29 -145.5t-79 -117.5t-117.5 -78.5t-145.5 -28.5q-152 0 -260.5 108.5t-108.5 261.5v1069q0 76 29 143.5t78 119t116.5 80t145.5 28.5q76 0 143.5 -28.5t118.5 -80t80 -119 t29 -143.5v-200z" />
<glyph unicode="&#xd6;" d="M1595 1292q0 45 -17 86t-48 72t-72 48.5t-86 17.5q-47 0 -87 -17.5t-69.5 -48.5t-47 -72t-17.5 -86v-530l-690 688q-63 63 -156 63q-49 0 -86 -16q-63 -27 -100 -82t-37 -123v-1069q0 -92 65.5 -157.5t155.5 -65.5q47 0 88 17.5t71 47t47 70.5t17 88v531l688 -688 q63 -63 158 -64q43 0 86 16q63 27 100 82.5t37 122.5v1069zM1743 223q0 -115 -62.5 -207t-167.5 -135q-70 -27 -141 -26q-156 0 -262 106l-436 436v-174q0 -78 -29 -145.5t-79 -117.5t-117.5 -78.5t-145.5 -28.5q-152 0 -260.5 108.5t-108.5 261.5v1069q0 115 61.5 207 t166.5 135q63 27 143 27q154 0 260 -107l439 -438v176q0 76 28.5 143.5t77.5 119t116.5 80t145.5 28.5q76 0 143.5 -28.5t119 -80t80 -119t28.5 -143.5v-1069z" />
<glyph unicode="&#xd7;" d="M1151 758q0 -133 -92 -221q-94 -90 -221 -91q-127 0 -222 91q-90 94 -90 221q0 129 90 219q92 92 222 92q129 0 221 -92t92 -219zM1047 31q240 68 393 268q156 201 155 459q0 313 -223 534q-221 223 -534 224q-311 0 -535 -224q-221 -221 -221 -534q0 -256 154 -459 q158 -201 393 -268q-12 -35 -13 -74q0 -92 66 -157.5t156 -65.5q45 0 86 17.5t71.5 48t48 70.5t17.5 87q0 37 -14 74zM1556 209q-145 -188 -350 -277q-4 -72 -34.5 -135t-80 -110t-115 -74t-138.5 -27q-152 0 -260 109q-100 98 -109 237q-201 88 -350 277q-184 242 -185 549 q0 375 265 639q266 266 639 266q375 0 639 -266q266 -264 266 -639q-1 -307 -187 -549zM1004 758q0 66 -49.5 115t-116.5 49q-68 0 -117 -50q-47 -47 -47 -114q0 -70 45 -115q49 -49 119 -49t118 49q48 47 48 115z" />
<glyph unicode="&#xd8;" d="M1595 223q0 45 -17 86t-48 72t-72 48t-86 17q-82 0 -149.5 38t-110.5 104q217 82 350 274q133 195 133 430q0 45 -17 86t-48 72t-72 48.5t-86 17.5h-534q-311 0 -535 -224q-221 -221 -221 -534v-535q0 -92 65.5 -157.5t155.5 -65.5q47 0 88 17.5t71 47t47 70.5t17 88v535 q0 129 90 219q92 92 222 92h219q-90 -88 -219 -88q-47 0 -87 -17.5t-70 -48t-47.5 -71.5t-17.5 -86q0 -315 221.5 -536.5t534.5 -221.5q45 0 86 17.5t72 48t48 70.5t17 87zM1743 223q0 -78 -28.5 -144.5t-80 -117.5t-119 -79.5t-143.5 -28.5q-375 0 -639 264q-16 16 -32 34 l-29 33q-8 -72 -40 -132t-81 -104t-112.5 -69.5t-135.5 -25.5q-152 0 -260.5 108.5t-108.5 261.5v535q0 375 265 639q266 266 639 266h534q76 0 143.5 -28.5t119 -80t80 -119t28.5 -143.5q0 -281 -160 -514q-72 -104 -172 -186q70 -8 130.5 -40t105.5 -81t70.5 -112.5 t25.5 -135.5z" />
<glyph unicode="&#xd9;" d="M1505 580q41 31 65.5 78t24.5 100q0 313 -223 534q-221 223 -534 224q-311 0 -535 -224q-221 -221 -221 -534v-535q0 -92 65.5 -157.5t155.5 -65.5q47 0 88 17.5t71 47t47 70.5t17 88v535q0 129 90 219q92 92 222 92q80 0 146.5 -36t109.5 -99q-125 47 -256 47 q-47 0 -87 -17.5t-70 -48t-47.5 -71.5t-17.5 -86q0 -92 66 -157.5t156 -65.5q129 0 221 -92.5t92 -219.5q0 -92 65.5 -157.5t155.5 -65.5q45 0 86 17.5t72 48t48 70.5t17 87q0 187 -90 357zM1743 758q0 -115 -64 -207q63 -162 64 -328q0 -78 -28.5 -144.5t-80 -117.5 t-119 -79.5t-143.5 -28.5q-152 0 -260 108.5t-108 261.5q0 66 -49.5 115t-116.5 49q-90 0 -164 37v-201q0 -78 -29 -145.5t-79 -117.5t-117.5 -78.5t-145.5 -28.5q-152 0 -260.5 108.5t-108.5 261.5v535q0 375 265 639q266 266 639 266q375 0 639 -266q266 -264 266 -639z " />
<glyph unicode="&#xda;" d="M1595 758q0 313 -223 534q-221 223 -534 224q-311 0 -535 -224q-221 -221 -221 -534v-535q0 -92 65.5 -157.5t155.5 -65.5q47 0 88 17.5t71 47t47 70.5t17 88v535q0 129 90 219q92 92 222 92q129 0 221 -92t92 -219q0 -92 65.5 -157.5t155.5 -65.5q45 0 86 17t72 48 t48 71t17 87zM1743 758q0 -78 -28.5 -144.5t-80 -118t-119 -80t-143.5 -28.5q-152 0 -260 108.5t-108 262.5q0 66 -49.5 115t-116.5 49q-68 0 -117 -50q-47 -47 -47 -114v-535q0 -78 -29 -145.5t-79 -117.5t-117.5 -78.5t-145.5 -28.5q-152 0 -260.5 108.5t-108.5 261.5v535 q0 375 265 639q266 266 639 266q375 0 639 -266q266 -264 266 -639z" />
<glyph unicode="&#xdb;" d="M1595 758q0 45 -17 86t-48 71.5t-72 48t-86 17.5h-751q88 88 217 88h534q45 0 86 17.5t72 48t48 70.5t17 87q0 45 -17 86t-48 72t-72 48.5t-86 17.5h-534q-311 0 -535 -224q-221 -221 -221 -534q0 -92 65.5 -157.5t155.5 -65.5h754q-90 -88 -219 -89h-535q-47 0 -87 -17 t-69.5 -48t-47 -72t-17.5 -86q0 -92 65.5 -157.5t155.5 -65.5h535q313 0 534 221q223 224 223 537zM1743 758q0 -375 -266 -641q-264 -264 -639 -264h-535q-152 0 -260.5 108.5t-108.5 261.5q0 78 30 147.5t83 121.5q-4 0 -4 4q-109 109 -109 262q0 375 265 639 q266 266 639 266h534q76 0 143.5 -28.5t119 -80t80 -119t28.5 -143.5q0 -80 -31 -148.5t-84 -119.5q53 -51 84 -119.5t31 -146.5z" />
<glyph unicode="&#xdc;" horiz-adv-x="1142" d="M616 1024q0 -47 17.5 -87t47.5 -69.5t70 -47t87 -17.5q92 0 157.5 65.5t65.5 155.5q0 45 -17.5 86t-48 71.5t-71.5 48t-86 17.5q-47 0 -87 -17.5t-70 -48t-47.5 -71.5t-17.5 -86zM1061 223q0 45 -17.5 86t-48 72t-71.5 48t-86 17q-127 0 -222 91q-90 94 -90 221v534 q0 45 -17 86t-48 72t-72 48.5t-86 17.5q-47 0 -87 -17.5t-69.5 -48.5t-47 -72t-17.5 -86v-534q0 -315 221 -536.5t535 -221.5q45 0 86 17.5t71.5 48t48 70.5t17.5 87zM1208 223q0 -78 -28.5 -144.5t-79.5 -117.5t-119 -79.5t-143 -28.5q-375 0 -639.5 264t-264.5 641v534 q0 76 29 143.5t78 119t116.5 80t145.5 28.5q68 0 129.5 -23.5t110.5 -65.5t81.5 -98.5t43.5 -121.5q78 41 170 41q76 0 143.5 -29t118.5 -80t79.5 -118.5t28.5 -143.5q0 -152 -108.5 -260.5t-261.5 -108.5q-82 0 -150 31q10 -23 35 -47q45 -45 115 -45q76 0 143.5 -28.5 t118.5 -80t79.5 -119t28.5 -143.5z" />
<glyph unicode="&#xdd;" d="M616 1292q0 -92 66 -157.5t156 -65.5q45 0 86 17.5t71.5 48t48 70.5t17.5 87q0 45 -17.5 86t-48 72t-71.5 48.5t-86 17.5q-47 0 -87 -17.5t-70 -48.5t-47.5 -72t-17.5 -86zM1595 758q0 45 -17 86t-48 71.5t-72 48t-86 17.5q-47 0 -87 -17.5t-69.5 -48t-47 -71.5 t-17.5 -86q0 -133 -92 -221q-94 -90 -221 -91q-127 0 -222 91q-90 94 -90 221v801q0 45 -17 86t-48 71.5t-72 48t-86 17.5q-47 0 -87 -17.5t-69.5 -48t-47 -71.5t-17.5 -86v-801q0 -315 221 -536.5t535 -221.5q313 0 534 221q223 224 223 537zM1743 758q0 -375 -266 -641 q-264 -264 -639 -264t-639.5 264t-264.5 641v801q0 76 29 143t78 118.5t116.5 80t145.5 28.5q68 0 129.5 -23.5t109.5 -64.5t80.5 -97t45.5 -122q76 41 170 41q76 0 143.5 -28.5t118.5 -80t79.5 -119t28.5 -143.5q0 -78 -28.5 -144.5t-79.5 -117.5t-119 -79.5t-143 -28.5 q-90 0 -164 36v-200q0 -70 45 -115q49 -49 119 -49t118 49q47 47 48 115q0 76 28.5 143.5t77.5 118.5t116.5 79.5t145.5 28.5q76 0 143.5 -28.5t119 -79.5t80 -118.5t28.5 -143.5z" />
<glyph unicode="&#xde;" d="M616 1024q0 -47 17.5 -87t47.5 -69.5t70 -47t87 -17.5q92 0 157.5 65.5t65.5 155.5q0 45 -17.5 86t-48 71.5t-71.5 48t-86 17.5q-47 0 -87 -17.5t-70 -48t-47.5 -71.5t-17.5 -86zM1595 758q0 45 -17 86t-48 71.5t-72 48t-86 17.5q-47 0 -87 -17.5t-69.5 -48t-47 -71.5 t-17.5 -86q0 -133 -92 -221q-94 -90 -221 -91q-127 0 -222 91q-90 94 -90 221v534q0 45 -17 86t-48 72t-72 48.5t-86 17.5q-47 0 -87 -17.5t-69.5 -48.5t-47 -72t-17.5 -86v-534q0 -315 221 -536.5t535 -221.5q313 0 534 221q223 224 223 537zM1743 758q0 -375 -266 -641 q-264 -264 -639 -264t-639.5 264t-264.5 641v534q0 76 29 143.5t78 119t116.5 80t145.5 28.5q68 0 129.5 -23.5t110.5 -65.5t81.5 -98.5t43.5 -121.5q78 41 170 41q68 0 129 -23.5t109 -64.5t81 -97.5t45 -122.5q76 41 170 41q76 0 143.5 -28.5t119 -79.5t80 -118.5 t28.5 -143.5zM956 643q23 23 31 41q-35 -16 -71.5 -22.5t-77.5 -6.5q-82 0 -150 31q12 -25 31 -43q49 -49 119 -49q69 0 118 49z" />
<glyph unicode="&#xdf;" horiz-adv-x="1681" d="M1575 1192q25 49 24 100q0 137 -122 199q-49 25 -99 25q-63 0 -117.5 -33t-82.5 -92l-336 -670l-334 670q-29 57 -83 91t-116 34q-37 2 -78 -14.5t-73.5 -47.5t-54 -73t-19.5 -89q0 -51 25 -100l534 -1067q63 -125 199 -125q137 0 200 125zM1174 57q-104 -205 -332 -204 q-111 0 -195 53t-135 151l-535 1069q-20 41 -30 82t-10 84v6q0 76 33.5 142.5t86 116t118 78t126.5 28.5h8q102 0 191.5 -56.5t138.5 -150.5l203 -407l205 407h-3q47 98 137.5 152.5t196.5 54.5q78 0 164 -41q205 -100 205 -330q0 -43 -10.5 -84t-30.5 -82z" />
<glyph unicode="&#xe0;" d="M1153 758l377 377q66 66 65 157q0 45 -17 86t-47 71t-71 47t-88 17q-94 0 -158 -63l-376 -377l-377 377q-63 63 -156 63q-47 0 -88 -18t-70.5 -49t-47 -71t-17.5 -83q0 -92 65 -157l377 -377l-377 -377q-66 -66 -65 -158q0 -47 17.5 -87t48 -70.5t70.5 -48t87 -17.5 q90 0 156 66l377 376l376 -376q72 -66 158 -66q45 0 86 17.5t72 47t48 70.5t17 88q0 92 -65 158zM1634 485q53 -53 81 -117.5t28 -144.5q0 -78 -28.5 -145.5t-80 -117.5t-119 -78.5t-143.5 -28.5q-143 0 -260 106l-274 274l-273 -272q-109 -109 -260 -108q-78 0 -144.5 28.5 t-117.5 79.5t-80 117.5t-29 144.5q0 154 109 262l272 273l-272 272q-109 109 -109 262q0 74 29 140.5t79 116.5t117.5 81t145.5 31q154 0 260 -107l273 -272l272 272q106 106 262 107q78 0 145.5 -28.5t118 -79t79 -118t28.5 -143.5q0 -80 -27.5 -144.5t-81.5 -117.5 l-272 -272z" />
<glyph unicode="&#xe1;" d="M526 223q0 45 -17 86t-48 72t-72 48t-86 17q-47 0 -87 -17t-69.5 -48t-47 -72t-17.5 -86q0 -92 65.5 -157.5t155.5 -65.5q47 0 88 17.5t71 47t47 70.5t17 88zM1151 1292q0 -92 65.5 -157.5t155.5 -65.5q45 0 86 17.5t72 48t48 70.5t17 87q0 45 -17 86t-48 72t-72 48.5 t-86 17.5q-47 0 -87 -17.5t-69.5 -48.5t-47 -72t-17.5 -86zM1595 223q0 313 -223 535q-221 223 -534 223q-127 0 -222 90q-90 94 -90 221q0 45 -17 86t-48 72t-72 48.5t-86 17.5q-47 0 -87 -17.5t-69.5 -48.5t-47 -72t-17.5 -86q0 -315 221 -536t535 -221q129 0 221 -92.5 t92 -219.5q0 -92 65.5 -157.5t155.5 -65.5q45 0 86 17.5t72 48t48 70.5t17 87zM1004 1292q0 76 28.5 143.5t77.5 119t116.5 80t145.5 28.5q76 0 143.5 -28.5t119 -80t80 -119t28.5 -143.5q0 -72 -25.5 -136t-70.5 -113.5t-106.5 -81t-131.5 -37.5l68 -62q266 -264 266 -639 q0 -78 -28.5 -144.5t-80 -117.5t-119 -79.5t-143.5 -28.5q-152 0 -260 108.5t-108 261.5q0 66 -49.5 115t-116.5 49q-109 0 -215 23q51 -86 51 -187q0 -78 -29 -145.5t-79 -117.5t-117.5 -78.5t-145.5 -28.5q-152 0 -260.5 108.5t-108.5 261.5q0 72 25 135.5t69 112.5 t104.5 81t131.5 40l-33 29q-16 14 -32 30q-264 264 -265 641q0 76 29 143.5t78 119t116.5 80t145.5 28.5q76 0 143.5 -28.5t118.5 -80t80 -119t29 -143.5q0 -70 49 -118q45 -45 115 -46q113 0 215 -24q-49 82 -49 188z" />
<glyph unicode="&#xe2;" d="M1595 223q0 45 -17 86t-48 72t-72 48t-86 17q-47 0 -87 -17t-69.5 -48t-47 -72t-17.5 -86q0 -92 65.5 -157.5t155.5 -65.5q45 0 86 17.5t72 48t48 70.5t17 87zM82 1292q0 -92 65.5 -157.5t155.5 -65.5q47 0 88 17.5t71 47t47 70.5t17 88q0 45 -17 86t-48 72t-72 48.5 t-86 17.5q-47 0 -87 -17.5t-69.5 -48.5t-47 -72t-17.5 -86zM838 535q313 0 534 221q223 223 223 536q0 45 -17 86t-48 72t-72 48.5t-86 17.5q-47 0 -87 -17.5t-69.5 -48.5t-47 -72t-17.5 -86q0 -133 -92 -221q-94 -90 -221 -90q-311 0 -535 -223q-221 -221 -221 -535 q0 -92 65.5 -157.5t155.5 -65.5q47 0 88 17.5t71 47t47 70.5t17 88q0 129 90 219q93 93 222 93zM1743 223q0 -78 -28.5 -144.5t-80 -117.5t-119 -79.5t-143.5 -28.5q-152 0 -260 108.5t-108 261.5q0 102 49 187q-109 -23 -215 -23q-68 0 -117 -49q-47 -47 -47 -115 q0 -78 -29 -145.5t-79 -117.5t-117.5 -78.5t-145.5 -28.5q-152 0 -260.5 108.5t-108.5 261.5q0 375 265 639q16 16 32.5 30.5t32.5 31.5q-131 12 -221 106q-109 109 -109 262q0 76 29 143.5t78 119t116.5 80t145.5 28.5q76 0 143.5 -28.5t118.5 -80t80 -119t29 -143.5 q0 -102 -51 -188q100 25 215 24q70 0 118 50q47 47 48 114q0 76 28.5 143.5t77.5 119t116.5 80t145.5 28.5q76 0 143.5 -28.5t119 -80t80 -119t28.5 -143.5q0 -375 -266 -641q-33 -33 -66 -59q70 -8 130.5 -40t105.5 -81t70.5 -112.5t25.5 -135.5z" />
<glyph unicode="&#xe3;" d="M1061 223q0 45 -17.5 86t-48 72t-71.5 48t-86 17q-47 0 -87 -17t-70 -48t-47.5 -72t-17.5 -86q0 -92 66 -157.5t156 -65.5q45 0 86 17.5t71.5 48t48 70.5t17.5 87zM1595 1292q0 45 -17 86t-48 72t-72 48.5t-86 17.5q-47 0 -87 -17.5t-69.5 -48.5t-47 -72t-17.5 -86 q0 -133 -92 -221q-94 -90 -221 -90t-222 90q-90 94 -90 221q0 45 -17 86t-48 72t-72 48.5t-86 17.5q-47 0 -87 -17.5t-69.5 -48.5t-47 -72t-17.5 -86q0 -315 221 -536t535 -221q313 0 534 221q223 223 223 536zM1208 223q0 -78 -28.5 -144.5t-79.5 -117.5t-119 -79.5 t-143 -28.5q-152 0 -260.5 108.5t-108.5 261.5q0 119 66 213q-184 63 -336 215q-264 264 -265 641q0 76 29 143.5t78 119t116.5 80t145.5 28.5q76 0 143.5 -28.5t118.5 -80t80 -119t29 -143.5q0 -70 49 -118q45 -45 115 -46q70 0 118 50q47 47 48 114q0 76 28.5 143.5 t77.5 119t116.5 80t145.5 28.5q76 0 143.5 -28.5t119 -80t80 -119t28.5 -143.5q0 -375 -266 -641q-150 -150 -336 -215q31 -47 49 -100.5t18 -112.5z" />
<glyph unicode="&#xe4;" d="M1595 223q0 45 -17 86t-48 72t-72 48t-86 17h-534q-127 0 -222 91q-90 94 -90 221q0 45 -17 86t-48 71.5t-72 48t-86 17.5q-47 0 -87 -17.5t-69.5 -48t-47 -71.5t-17.5 -86q0 -315 221 -536.5t535 -221.5h534q45 0 86 17.5t72 48t48 70.5t17 87zM82 1292 q0 -92 65.5 -157.5t155.5 -65.5h535q129 0 221 -92t92 -219q0 -92 65.5 -157.5t155.5 -65.5q45 0 86 17t72 48t48 71t17 87q0 313 -223 534q-221 223 -534 224h-535q-47 0 -87 -17.5t-69.5 -48.5t-47 -72t-17.5 -86zM1061 758q0 45 -17.5 86t-48 71.5t-71.5 48t-86 17.5 q-47 0 -87 -17.5t-70 -48t-47.5 -71.5t-17.5 -86q0 -92 66 -157.5t156 -65.5q45 0 86 17t71.5 48t48 71t17.5 87zM1743 223q0 -78 -28.5 -144.5t-80 -117.5t-119 -79.5t-143.5 -28.5h-534q-375 0 -639.5 264t-264.5 641q0 78 30 147.5t83 120.5q-4 0 -4 4q-109 109 -109 262 q0 76 29 143.5t78 119t116.5 80t145.5 28.5h535q375 0 639 -266q266 -264 266 -639q0 -80 -31 -148.5t-84 -120.5q53 -51 84 -119.5t31 -146.5z" />
<glyph unicode="&#xe5;" d="M1595 223q0 45 -17 86t-48 72t-72 48t-86 17h-534q-129 0 -217 89h751q45 0 86 17t72 48t48 71t17 87q0 313 -223 534q-221 223 -534 224h-535q-47 0 -87 -17.5t-69.5 -48.5t-47 -72t-17.5 -86q0 -92 65.5 -157.5t155.5 -65.5h535q68 0 121 -22.5t98 -65.5h-754 q-47 0 -87 -17.5t-69.5 -48t-47 -71.5t-17.5 -86q0 -315 221 -536.5t535 -221.5h534q45 0 86 17.5t72 48t48 70.5t17 87zM1743 223q0 -78 -28.5 -144.5t-80 -117.5t-119 -79.5t-143.5 -28.5h-534q-375 0 -639.5 264t-264.5 641q0 78 30 147.5t83 120.5q-4 0 -4 4 q-109 109 -109 262q0 76 29 143.5t78 119t116.5 80t145.5 28.5h535q375 0 639 -266q266 -264 266 -639q0 -80 -31 -148.5t-84 -120.5q53 -51 84 -119.5t31 -146.5z" />
<glyph unicode="&#xe6;" horiz-adv-x="2746" d="M2664 758q0 45 -17 86t-48 71.5t-72 48t-86 17.5h-534q-47 0 -87 -17.5t-71 -48t-48.5 -71.5t-17.5 -86q0 -47 17.5 -87t48.5 -71t71 -48t87 -17h534q45 0 86 17t72 48t48 71t17 87zM2664 223q0 45 -17 86t-48 72t-72 48t-86 17h-534q-127 0 -221 91q-90 94 -91 221 q0 129 91 219q92 92 221 92h534q45 0 86 17.5t72 48t48 70.5t17 87q0 45 -17 86t-48 72t-72 48.5t-86 17.5h-534q-156 0 -292 -58.5t-243 -163.5q-111 106 -246 164t-288 58q-311 0 -535 -224q-221 -221 -221 -534q0 -315 221 -536.5t535 -221.5q45 0 86 17.5t71.5 48 t48 70.5t17.5 87q0 45 -17.5 86t-48 72t-71.5 48t-86 17q-127 0 -219.5 92.5t-92.5 219.5q0 129 90 219q92 92 222 92q129 0 221 -92t92 -219q0 -315 221 -536.5t535 -221.5h534q45 0 86 17.5t72 48t48 70.5t17 87zM2812 758q0 -80 -31 -148.5t-84 -120.5q53 -51 84 -119.5 t31 -146.5t-28.5 -144.5t-80 -117.5t-119 -79.5t-143.5 -28.5h-534q-375 0 -639 264q-16 16 -32 34l-30 33q-8 -70 -39.5 -130t-81 -105t-113 -70.5t-134.5 -25.5q-375 0 -639.5 264t-264.5 641q0 375 265 639q266 266 639 266q147 0 282 -45t252 -131q115 86 249 131 t286 45h534q76 0 143.5 -28.5t119 -80t80 -119t28.5 -143.5q0 -80 -31 -148.5t-84 -119.5q53 -51 84 -119.5t31 -146.5zM838 594q102 0 188 -51q-23 106 -22 215q0 66 -49.5 115t-116.5 49q-68 0 -117 -50q-47 -47 -47 -114q0 -66 49 -115t115 -49z" />
<glyph unicode="&#xe7;" d="M838 535q45 0 86 17t71.5 48t48 71t17.5 87q0 45 -17.5 86t-48 71.5t-71.5 48t-86 17.5q-47 0 -87 -17.5t-70 -48t-47.5 -71.5t-17.5 -86q0 -92 66 -157.5t156 -65.5zM1595 758q0 313 -223 534q-221 223 -534 224h-535q-47 0 -87 -17.5t-69.5 -48.5t-47 -72t-17.5 -86 q0 -92 65.5 -157.5t155.5 -65.5h535q129 0 221 -92t92 -219q0 -133 -92 -221q-94 -90 -221 -91h-535q-47 0 -87 -17t-69.5 -48t-47 -72t-17.5 -86q0 -92 65.5 -157.5t155.5 -65.5h535q313 0 534 221q223 224 223 537zM1743 758q0 -375 -266 -641q-264 -264 -639 -264h-535 q-152 0 -260.5 108.5t-108.5 261.5q0 76 29 143.5t78 119t116.5 80t145.5 28.5h203q-37 74 -37 164t37 164h-203q-152 0 -260.5 108.5t-108.5 261.5q0 76 29 143.5t78 119t116.5 80t145.5 28.5h535q375 0 639 -266q266 -264 266 -639z" />
<glyph unicode="&#xe8;" d="M1595 758q0 115 -90 178q45 86 67.5 172t22.5 184q0 45 -17 86t-48 72t-72 48.5t-86 17.5h-1069q-47 0 -87 -17.5t-69.5 -48.5t-47 -72t-17.5 -86q0 -92 65.5 -157.5t155.5 -65.5h754q-90 -88 -219 -88q-47 0 -87 -17.5t-70 -48t-47.5 -71.5t-17.5 -86q0 -92 66 -157.5 t156 -65.5q131 0 256 47q-43 -63 -111 -99.5t-145 -36.5h-535q-47 0 -87 -17t-69.5 -48t-47 -72t-17.5 -86q0 -92 65.5 -157.5t155.5 -65.5h535q313 0 534 221q223 224 223 537zM1743 758q0 -375 -266 -641q-264 -264 -639 -264h-535q-152 0 -260.5 108.5t-108.5 261.5 q0 76 29 143.5t78 119t116.5 80t145.5 28.5h203q-37 74 -37 164t37 164h-203q-152 0 -260.5 108.5t-108.5 261.5q0 76 29 143.5t78 119t116.5 80t145.5 28.5h1069q76 0 143.5 -28.5t119 -80t80 -119t28.5 -143.5q0 -92 -15.5 -171t-46.5 -156q29 -45 45.5 -97.5t16.5 -109.5 z" />
<glyph unicode="&#xe9;" d="M1595 1292q0 45 -17 86t-48 72t-72 48.5t-86 17.5q-47 0 -87 -17.5t-69.5 -48.5t-47 -72t-17.5 -86v-1069q0 -92 65.5 -157.5t155.5 -65.5q45 0 86 17.5t72 48t48 70.5t17 87v1069zM1061 758q0 45 -17.5 86t-48 71.5t-71.5 48t-86 17.5q-127 0 -222 90q-90 94 -90 221 q0 45 -17 86t-48 72t-72 48.5t-86 17.5q-47 0 -87 -17.5t-69.5 -48.5t-47 -72t-17.5 -86q0 -315 221 -536t535 -221q45 0 86 17t71.5 48t48 71t17.5 87zM1743 223q0 -78 -28.5 -144.5t-80 -117.5t-119 -79.5t-143.5 -28.5q-152 0 -260 108.5t-108 261.5v203 q-82 -39 -166 -39q-375 0 -639.5 264t-264.5 641q0 76 29 143.5t78 119t116.5 80t145.5 28.5q76 0 143.5 -28.5t118.5 -80t80 -119t29 -143.5q0 -70 49 -118q45 -45 115 -46q84 0 166 -38v202q0 76 28.5 143.5t77.5 119t116.5 80t145.5 28.5q76 0 143.5 -28.5t119 -80 t80 -119t28.5 -143.5v-1069z" />
<glyph unicode="&#xea;" d="M1595 1292q0 45 -17 86t-48 72t-72 48.5t-86 17.5q-47 0 -87 -17.5t-69.5 -48.5t-47 -72t-17.5 -86v-1069q0 -92 65.5 -157.5t155.5 -65.5q45 0 86 17.5t72 48t48 70.5t17 87v1069zM1061 758q0 45 -17.5 86t-48 71.5t-71.5 48t-86 17.5h-312v311q0 45 -17 86t-48 72 t-72 48.5t-86 17.5q-47 0 -87 -17.5t-69.5 -48.5t-47 -72t-17.5 -86v-534q0 -92 65.5 -157.5t155.5 -65.5h535q45 0 86 17t71.5 48t48 71t17.5 87zM1743 223q0 -78 -28.5 -144.5t-80 -117.5t-119 -79.5t-143.5 -28.5q-152 0 -260 108.5t-108 261.5v203q-82 -39 -166 -39 h-535q-152 0 -260.5 108.5t-108.5 262.5v534q0 76 29 143.5t78 119t116.5 80t145.5 28.5q76 0 143.5 -28.5t118.5 -80t80 -119t29 -143.5v-164h164q84 0 166 -38v202q0 76 28.5 143.5t77.5 119t116.5 80t145.5 28.5q76 0 143.5 -28.5t119 -80t80 -119t28.5 -143.5v-1069z " />
<glyph unicode="&#xeb;" d="M616 1292q0 -92 66 -157.5t156 -65.5h534q45 0 86 17.5t72 48t48 70.5t17 87q0 45 -17 86t-48 72t-72 48.5t-86 17.5h-534q-47 0 -87 -17.5t-70 -48.5t-47.5 -72t-17.5 -86zM1595 758q0 45 -17 86t-48 71.5t-72 48t-86 17.5h-534q-127 0 -222 90q-90 94 -90 221 q0 45 -17 86t-48 72t-72 48.5t-86 17.5q-47 0 -87 -17.5t-69.5 -48.5t-47 -72t-17.5 -86q0 -315 221 -536t535 -221h219q-90 -88 -219 -89h-535q-47 0 -87 -17t-69.5 -48t-47 -72t-17.5 -86q0 -92 65.5 -157.5t155.5 -65.5h535q313 0 534 221q223 224 223 537zM1743 758 q0 -375 -266 -641q-264 -264 -639 -264h-535q-152 0 -260.5 108.5t-108.5 261.5q0 72 25 135.5t69 112.5t104.5 81t131.5 40l-33 29q-16 14 -32 30q-264 264 -265 641q0 76 29 143.5t78 119t116.5 80t145.5 28.5t146.5 -30.5t119.5 -84.5q51 53 120 84t149 31h534 q76 0 143.5 -28.5t119 -80t80 -119t28.5 -143.5q0 -80 -31 -148.5t-84 -119.5q53 -51 84 -119.5t31 -146.5z" />
<glyph unicode="&#xec;" d="M838 446q-129 0 -217 89h217q68 0 121 -23t98 -66h-219zM1595 223q0 313 -223 535q-221 223 -534 223h-217q88 88 217 88h534q45 0 86 17.5t72 48t48 70.5t17 87q0 45 -17 86t-48 72t-72 48.5t-86 17.5h-534q-311 0 -535 -224q-221 -221 -221 -534q0 -315 221 -536.5 t535 -221.5h534q45 0 86 17.5t72 48t48 70.5t17 87zM1743 223q0 -78 -28.5 -144.5t-80 -117.5t-119 -79.5t-143.5 -28.5h-534q-375 0 -639.5 264t-264.5 641q0 375 265 639q266 266 639 266h534q76 0 143.5 -28.5t119 -80t80 -119t28.5 -143.5q0 -72 -25.5 -136 t-70.5 -113.5t-106.5 -81t-131.5 -37.5l68 -62q266 -264 266 -639z" />
<glyph unicode="&#xed;" d="M1595 758q0 313 -223 534q-221 223 -534 224h-535q-47 0 -87 -17.5t-69.5 -48.5t-47 -72t-17.5 -86q0 -92 65.5 -157.5t155.5 -65.5h535q129 0 221 -92t92 -219v-535q0 -92 65.5 -157.5t155.5 -65.5q45 0 86 17.5t72 48t48 70.5t17 87v535zM1743 223q0 -78 -28.5 -144.5 t-80 -117.5t-119 -79.5t-143.5 -28.5q-152 0 -260 108.5t-108 261.5v535q0 66 -49.5 115t-116.5 49h-535q-152 0 -260.5 108.5t-108.5 261.5q0 76 29 143.5t78 119t116.5 80t145.5 28.5h535q375 0 639 -266q266 -264 266 -639v-535z" />
<glyph unicode="&#xee;" d="M1061 223q0 45 -17.5 86t-48 72t-71.5 48t-86 17q-47 0 -87 -17t-70 -48t-47.5 -72t-17.5 -86q0 -92 66 -157.5t156 -65.5q45 0 86 17.5t71.5 48t48 70.5t17.5 87zM1595 758q0 313 -223 534q-221 223 -534 224q-311 0 -535 -224q-221 -221 -221 -534q0 -92 65.5 -157.5 t155.5 -65.5q47 0 88 17t71 47t47 71t17 88q0 129 90 219q92 92 222 92q68 0 121 -22.5t98 -65.5h-219q-47 0 -87 -17.5t-70 -48t-47.5 -71.5t-17.5 -86q0 -92 66 -157.5t156 -65.5h534q45 0 86 17t72 48t48 71t17 87zM1208 223q0 -78 -28.5 -144.5t-79.5 -117.5t-119 -79.5 t-143 -28.5q-152 0 -260.5 108.5t-108.5 261.5q0 78 29.5 147.5t83.5 121.5q-4 0 -4 4q-2 2 -3.5 2t-3.5 2q-51 -53 -119.5 -83t-148.5 -30q-152 0 -260.5 108.5t-108.5 262.5q0 375 265 639q266 266 639 266q375 0 639 -266q266 -264 266 -639q0 -78 -28.5 -144.5t-80 -118 t-119 -80t-143.5 -28.5h-203q39 -78 39 -164z" />
<glyph unicode="&#xef;" d="M1595 758q0 45 -17 86t-48 71.5t-72 48t-86 17.5q-47 0 -87 -17.5t-69.5 -48t-47 -71.5t-17.5 -86q0 -92 65.5 -157.5t155.5 -65.5q45 0 86 17t72 48t48 71t17 87zM82 758q0 -92 65.5 -157.5t155.5 -65.5q47 0 88 17t71 47t47 71t17 88q0 45 -17 86t-48 71.5t-72 48 t-86 17.5q-47 0 -87 -17.5t-69.5 -48t-47 -71.5t-17.5 -86zM1595 223q0 45 -17 86t-48 72t-72 48t-86 17q-127 0 -221 91q-90 94 -90 221q0 129 90 219q92 92 221 92q45 0 86 17.5t72 48t48 70.5t17 87q0 45 -17 86t-48 72t-72 48.5t-86 17.5q-156 0 -292 -58.5t-242 -163.5 q-111 106 -246 164t-289 58q-47 0 -87 -17.5t-69.5 -48.5t-47 -72t-17.5 -86q0 -92 65.5 -157.5t155.5 -65.5q129 0 221 -92t92 -219q0 -133 -92 -221q-94 -90 -221 -91q-47 0 -87 -17t-69.5 -48t-47 -72t-17.5 -86q0 -92 65.5 -157.5t155.5 -65.5q156 0 292 58.5t243 162.5 q111 -106 246 -163.5t288 -57.5q45 0 86 17.5t72 48t48 70.5t17 87zM1743 758q0 -80 -31 -148.5t-84 -120.5q53 -51 84 -119.5t31 -146.5t-28.5 -144.5t-80 -117.5t-119 -79.5t-143.5 -28.5q-150 0 -284 45t-250 129q-115 -84 -250 -129t-285 -45q-152 0 -260.5 108.5 t-108.5 261.5q0 78 30 147.5t83 121.5q-4 0 -4 4q-109 109 -109 262q0 78 30 147.5t83 120.5q-4 0 -4 4q-109 109 -109 262q0 76 29 143.5t78 119t116.5 80t145.5 28.5q147 0 282.5 -45t252.5 -131q115 86 249 131t285 45q76 0 143.5 -28.5t119 -80t80 -119t28.5 -143.5 q0 -80 -31 -148.5t-84 -119.5q53 -51 84 -119.5t31 -146.5z" />
<glyph unicode="&#xf0;" horiz-adv-x="608" d="M526 758q0 45 -17 86t-48 71.5t-72 48t-86 17.5q-47 0 -87 -17.5t-69.5 -48t-47 -71.5t-17.5 -86q0 -92 65.5 -157.5t155.5 -65.5q45 0 86 17t72 48t48 71t17 87zM674 758q0 -78 -29 -144.5t-80 -118t-118.5 -80t-143.5 -28.5q-152 0 -260.5 108.5t-108.5 262.5 q0 76 29 143.5t78 118.5t116.5 79.5t145.5 28.5q76 0 143.5 -28.5t118.5 -79.5t80 -118.5t29 -143.5z" />
<glyph unicode="&#xf1;" d="M1595 2689q0 45 -17 86t-48 71.5t-72 48t-86 17.5q-47 0 -87 -17.5t-69.5 -48t-47 -71.5t-17.5 -86q0 -127 -90 -217v217q0 45 -17.5 86t-48 71.5t-71.5 48t-86 17.5q-313 0 -534.5 -221t-221.5 -534q0 -92 65.5 -158t155.5 -66q47 0 88 17.5t71 47t47 70.5t17 89 q0 61 23.5 117.5t66.5 99.5v-217q0 -92 66 -158t156 -66q315 0 536 221.5t221 534.5zM1743 2689q0 -375 -264.5 -639t-640.5 -264q-152 0 -260 108q-2 2 -3.5 2t-3.5 2q-51 -53 -119.5 -82.5t-148.5 -29.5q-152 0 -260.5 108.5t-108.5 262.5q0 375 264.5 639t639.5 264 q78 0 146.5 -31t119.5 -84q51 53 119.5 84t148.5 31q76 0 143.5 -29t119 -80t80 -118.5t28.5 -143.5zM1595 758q0 313 -223 534q-221 223 -534 224q-311 0 -535 -224q-221 -221 -221 -534v-535q0 -92 65.5 -157.5t155.5 -65.5q47 0 88 17.5t71 47t47 70.5t17 88v535 q0 129 90 219q92 92 222 92q129 0 221 -92t92 -219v-535q0 -92 65.5 -157.5t155.5 -65.5q45 0 86 17.5t72 48t48 70.5t17 87v535zM1743 223q0 -78 -28.5 -144.5t-80 -117.5t-119 -79.5t-143.5 -28.5q-152 0 -260 108.5t-108 261.5v535q0 66 -49.5 115t-116.5 49 q-68 0 -117 -50q-47 -47 -47 -114v-535q0 -78 -29 -145.5t-79 -117.5t-117.5 -78.5t-145.5 -28.5q-152 0 -260.5 108.5t-108.5 261.5v535q0 375 265 639q266 266 639 266q375 0 639 -266q266 -264 266 -639v-535z" />
<glyph unicode="&#xf2;" d="M1132 2422q0 45 -17 86t-48 72t-72 48.5t-86 17.5q-47 0 -87 -17.5t-69.5 -48.5t-47 -72t-17.5 -86v-268q0 -47 17.5 -87t47 -69.5t69.5 -47t87 -17.5q92 0 157.5 65.5t65.5 155.5v268zM1280 2154q0 -152 -108.5 -260.5t-262.5 -108.5q-78 0 -144.5 29t-116.5 79 t-79 116.5t-29 144.5v268q0 76 29 143.5t78 119t116.5 80t145.5 28.5q76 0 143.5 -28.5t118.5 -80t80 -119t29 -143.5v-268zM1151 758q0 -133 -92 -221q-94 -90 -221 -91q-127 0 -222 91q-90 94 -90 221q0 129 90 219q92 92 222 92q129 0 221 -92t92 -219zM1595 758 q0 313 -223 534q-221 223 -534 224q-311 0 -535 -224q-221 -221 -221 -534q0 -315 221 -536.5t535 -221.5q313 0 534 221q223 224 223 537zM1743 758q0 -375 -266 -641q-264 -264 -639 -264t-639.5 264t-264.5 641q0 375 265 639q266 266 639 266q375 0 639 -266 q266 -264 266 -639zM1004 758q0 66 -49.5 115t-116.5 49q-68 0 -117 -50q-47 -47 -47 -114q0 -70 49 -119q45 -45 115 -45t118 49q48 47 48 115z" />
<glyph unicode="&#xf4;" d="M1261 1998q66 66 66 156q0 92 -66 158l-266 268q-63 63 -158 63q-94 0 -157 -63l-267 -268q-66 -66 -65 -158q0 -92 63 -156q66 -66 160 -65q43 0 84 16.5t72 48.5l110 109l109 -109q35 -35 74 -50t84 -15q91 -1 157 65zM1366 1894q-53 -53 -117.5 -81t-144.5 -28 q-74 0 -138.5 25t-124.5 84l-6 6l-6 -6l4 2q-53 -55 -121.5 -83t-140.5 -28q-156 0 -264 109q-53 53 -80 119.5t-27 140.5q0 154 109 262l266 268q106 106 262 107q156 0 263 -107l266 -268q53 -53 80.5 -117.5t27.5 -144.5q1 -151 -108 -260zM1151 758q0 -133 -92 -221 q-94 -90 -221 -91q-127 0 -222 91q-90 94 -90 221q0 129 90 219q92 92 222 92q129 0 221 -92t92 -219zM1595 758q0 313 -223 534q-221 223 -534 224q-311 0 -535 -224q-221 -221 -221 -534q0 -315 221 -536.5t535 -221.5q313 0 534 221q223 224 223 537zM1743 758 q0 -375 -266 -641q-264 -264 -639 -264t-639.5 264t-264.5 641q0 375 265 639q266 266 639 266q375 0 639 -266q266 -264 266 -639zM1004 758q0 66 -49.5 115t-116.5 49q-68 0 -117 -50q-47 -47 -47 -114q0 -70 49 -119q45 -45 115 -45t118 49q48 47 48 115z" />
<glyph unicode="&#xf5;" d="M1595 2689q0 45 -17 86t-48 71.5t-72 48t-86 17.5q-47 0 -87 -17.5t-69.5 -48t-47 -71.5t-17.5 -86q0 -127 -90 -217v217q0 45 -17.5 86t-48 71.5t-71.5 48t-86 17.5q-313 0 -534.5 -221t-221.5 -534q0 -92 65.5 -158t155.5 -66q47 0 88 17.5t71 47t47 70.5t17 89 q0 61 23.5 117.5t66.5 99.5v-217q0 -92 66 -158t156 -66q315 0 536 221.5t221 534.5zM1743 2689q0 -375 -264.5 -639t-640.5 -264q-152 0 -260 108q-2 2 -3.5 2t-3.5 2q-51 -53 -119.5 -82.5t-148.5 -29.5q-152 0 -260.5 108.5t-108.5 262.5q0 375 264.5 639t639.5 264 q78 0 146.5 -31t119.5 -84q51 53 119.5 84t148.5 31q76 0 143.5 -29t119 -80t80 -118.5t28.5 -143.5zM1151 758q0 -133 -92 -221q-94 -90 -221 -91q-127 0 -222 91q-90 94 -90 221q0 129 90 219q92 92 222 92q129 0 221 -92t92 -219zM1595 758q0 313 -223 534 q-221 223 -534 224q-311 0 -535 -224q-221 -221 -221 -534q0 -315 221 -536.5t535 -221.5q313 0 534 221q223 224 223 537zM1743 758q0 -375 -266 -641q-264 -264 -639 -264t-639.5 264t-264.5 641q0 375 265 639q266 266 639 266q375 0 639 -266q266 -264 266 -639z M1004 758q0 66 -49.5 115t-116.5 49q-68 0 -117 -50q-47 -47 -47 -114q0 -70 49 -119q45 -45 115 -45t118 49q48 47 48 115z" />
<glyph unicode="&#xf9;" d="M1132 2422q0 45 -17 86t-48 72t-72 48.5t-86 17.5q-47 0 -87 -17.5t-69.5 -48.5t-47 -72t-17.5 -86v-268q0 -47 17.5 -87t47 -69.5t69.5 -47t87 -17.5q92 0 157.5 65.5t65.5 155.5v268zM1280 2154q0 -152 -108.5 -260.5t-262.5 -108.5q-78 0 -144.5 29t-116.5 79 t-79 116.5t-29 144.5v268q0 76 29 143.5t78 119t116.5 80t145.5 28.5q76 0 143.5 -28.5t118.5 -80t80 -119t29 -143.5v-268zM1595 1292q0 45 -17 86t-48 72t-72 48.5t-86 17.5q-47 0 -87 -17.5t-69.5 -48.5t-47 -72t-17.5 -86v-534q0 -133 -92 -221q-94 -90 -221 -91 q-127 0 -222 91q-90 94 -90 221v534q0 45 -17 86t-48 72t-72 48.5t-86 17.5q-47 0 -87 -17.5t-69.5 -48.5t-47 -72t-17.5 -86v-534q0 -315 221 -536.5t535 -221.5q313 0 534 221q223 223 223 537v534zM1743 758q0 -375 -266 -641q-264 -264 -639 -264t-639.5 264t-264.5 641 v534q0 76 29 143.5t78 119t116.5 80t145.5 28.5q76 0 143.5 -28.5t118.5 -80t80 -119t29 -143.5v-534q0 -70 45 -115q49 -49 119 -49t118 49q47 47 48 115v534q0 76 28.5 143.5t77.5 119t116.5 80t145.5 28.5q76 0 143.5 -28.5t119 -80t80 -119t28.5 -143.5v-534z" />
<glyph unicode="&#xfb;" d="M1261 1998q66 66 66 156q0 92 -66 158l-266 268q-63 63 -158 63q-94 0 -157 -63l-267 -268q-66 -66 -65 -158q0 -92 63 -156q66 -66 160 -65q43 0 84 16.5t72 48.5l110 109l109 -109q35 -35 74 -50t84 -15q91 -1 157 65zM1366 1894q-53 -53 -117.5 -81t-144.5 -28 q-74 0 -138.5 25t-124.5 84l-6 6l-6 -6l4 2q-53 -55 -121.5 -83t-140.5 -28q-156 0 -264 109q-53 53 -80 119.5t-27 140.5q0 154 109 262l266 268q106 106 262 107q156 0 263 -107l266 -268q53 -53 80.5 -117.5t27.5 -144.5q1 -151 -108 -260zM1595 1292q0 45 -17 86t-48 72 t-72 48.5t-86 17.5q-47 0 -87 -17.5t-69.5 -48.5t-47 -72t-17.5 -86v-534q0 -133 -92 -221q-94 -90 -221 -91q-127 0 -222 91q-90 94 -90 221v534q0 45 -17 86t-48 72t-72 48.5t-86 17.5q-47 0 -87 -17.5t-69.5 -48.5t-47 -72t-17.5 -86v-534q0 -315 221 -536.5t535 -221.5 q313 0 534 221q223 223 223 537v534zM1743 758q0 -375 -266 -641q-264 -264 -639 -264t-639.5 264t-264.5 641v534q0 76 29 143.5t78 119t116.5 80t145.5 28.5q76 0 143.5 -28.5t118.5 -80t80 -119t29 -143.5v-534q0 -70 45 -115q49 -49 119 -49t118 49q47 47 48 115v534 q0 76 28.5 143.5t77.5 119t116.5 80t145.5 28.5q76 0 143.5 -28.5t119 -80t80 -119t28.5 -143.5v-534z" />
<glyph unicode="&#x152;" horiz-adv-x="3354" d="M3272 758q0 45 -17 86t-48 71.5t-72 48t-86 17.5h-534q-47 0 -87 -17.5t-70 -48t-47.5 -71.5t-17.5 -86q0 -92 66 -157.5t156 -65.5h534q45 0 86 17t72 48t48 71t17 87zM3272 223q0 45 -17 86t-48 72t-72 48t-86 17h-534q-127 0 -222 91q-90 94 -90 221q0 129 90 219 q92 92 222 92h534q45 0 86 17.5t72 48t48 70.5t17 87q0 45 -17 86t-48 72t-72 48.5t-86 17.5h-534q-311 0 -535 -224q-221 -221 -221 -534q0 -315 221 -536.5t535 -221.5h534q45 0 86 17.5t72 48t48 70.5t17 87zM3420 758q0 -80 -31 -148.5t-84 -120.5q53 -51 84 -119.5 t31 -146.5t-28.5 -144.5t-80 -117.5t-119 -79.5t-143.5 -28.5h-534q-375 0 -639.5 264t-264.5 641q0 375 265 639q266 266 639 266h534q76 0 143.5 -28.5t119 -80t80 -119t28.5 -143.5q0 -80 -31 -148.5t-84 -119.5q53 -51 84 -119.5t31 -146.5zM1151 758q0 -133 -92 -221 q-94 -90 -221 -91q-127 0 -222 91q-90 94 -90 221q0 129 90 219q92 92 222 92q129 0 221 -92t92 -219zM1595 758q0 313 -223 534q-221 223 -534 224q-311 0 -535 -224q-221 -221 -221 -534q0 -315 221 -536.5t535 -221.5q313 0 534 221q223 224 223 537zM1743 758 q0 -375 -266 -641q-264 -264 -639 -264t-639.5 264t-264.5 641q0 375 265 639q266 266 639 266q375 0 639 -266q266 -264 266 -639zM1004 758q0 66 -49.5 115t-116.5 49q-68 0 -117 -50q-47 -47 -47 -114q0 -70 49 -119q45 -45 115 -45t118 49q48 47 48 115z" />
<glyph unicode="&#x153;" horiz-adv-x="3354" d="M2515 981q-47 0 -87 -17.5t-70 -48t-47.5 -71.5t-17.5 -86q0 -92 66 -157.5t156 -65.5q45 0 86 17t71.5 48t48 71t17.5 87q0 45 -17.5 86t-48 71.5t-71.5 48t-86 17.5zM3272 223q0 45 -17 86t-48 72t-72 48t-86 17h-534q-127 0 -222 91q-90 94 -90 221q0 129 90 219 q92 92 222 92h534q45 0 86 17.5t72 48t48 70.5t17 87q0 45 -17 86t-48 72t-72 48.5t-86 17.5h-534q-311 0 -535 -224q-221 -221 -221 -534q0 -315 221 -536.5t535 -221.5h534q45 0 86 17.5t72 48t48 70.5t17 87zM3420 223q0 -78 -28.5 -144.5t-80 -117.5t-119 -79.5 t-143.5 -28.5h-534q-375 0 -639.5 264t-264.5 641q0 375 265 639q266 266 639 266h534q76 0 143.5 -28.5t119 -80t80 -119t28.5 -143.5q0 -78 -28.5 -144.5t-80 -117.5t-119 -79.5t-143.5 -28.5h-203q39 -78 39 -164t-39 -164h203q76 0 143.5 -28.5t119 -80t80 -119 t28.5 -143.5zM1151 758q0 -133 -92 -221q-94 -90 -221 -91q-127 0 -222 91q-90 94 -90 221q0 129 90 219q92 92 222 92q129 0 221 -92t92 -219zM1595 758q0 313 -223 534q-221 223 -534 224q-311 0 -535 -224q-221 -221 -221 -534q0 -315 221 -536.5t535 -221.5 q313 0 534 221q223 224 223 537zM1743 758q0 -375 -266 -641q-264 -264 -639 -264t-639.5 264t-264.5 641q0 375 265 639q266 266 639 266q375 0 639 -266q266 -264 266 -639zM1004 758q0 66 -49.5 115t-116.5 49q-68 0 -117 -50q-47 -47 -47 -114q0 -70 49 -119 q45 -45 115 -45t118 49q48 47 48 115z" />
<glyph unicode="&#x2c6;" horiz-adv-x="1142" d="M995 868q66 66 66 156q0 92 -66 158l-266 268q-63 63 -158 63q-94 0 -157 -63l-267 -268q-66 -66 -65 -158q0 -92 63 -156q66 -66 160 -65q43 0 84 16.5t72 48.5l110 109l109 -109q35 -35 74 -50t84 -15q91 -1 157 65zM1100 764q-53 -53 -117.5 -81t-144.5 -28 q-74 0 -138.5 25t-124.5 84l-6 6l-6 -6l4 2q-53 -55 -121.5 -83t-140.5 -28q-156 0 -264 109q-53 53 -80 119.5t-27 140.5q0 154 109 262l266 268q106 106 262 107q156 0 263 -107l266 -268q53 -53 80.5 -117.5t27.5 -144.5q1 -151 -108 -260z" />
<glyph unicode="&#x2dc;" horiz-adv-x="1024" d="M755 1026q0 45 -17 86t-48 71.5t-72 48t-86 17.5q-47 0 -87 -17.5t-69.5 -48t-47 -71.5t-17.5 -86q0 -127 -90 -217v217q0 45 -17.5 86t-48 71.5t-71.5 48t-86 17.5q-313 0 -534.5 -221t-221.5 -534q0 -92 65.5 -158t155.5 -66q47 0 88 17.5t71 47t47 70.5t17 89 q0 61 23.5 117.5t66.5 99.5v-217q0 -92 66 -158t156 -66q315 0 536 221.5t221 534.5zM903 1026q0 -375 -264.5 -639t-640.5 -264q-152 0 -260 108q-2 2 -3.5 2t-3.5 2q-51 -53 -119.5 -82.5t-148.5 -29.5q-152 0 -260.5 108.5t-108.5 262.5q0 375 264.5 639t639.5 264 q78 0 146.5 -31t119.5 -84q51 53 119.5 84t148.5 31q76 0 143.5 -29t119 -80t80 -118.5t28.5 -143.5z" />
<glyph unicode="&#x2000;" horiz-adv-x="1529" />
<glyph unicode="&#x2001;" horiz-adv-x="3059" />
<glyph unicode="&#x2002;" horiz-adv-x="1529" />
<glyph unicode="&#x2003;" horiz-adv-x="3059" />
<glyph unicode="&#x2004;" horiz-adv-x="1019" />
<glyph unicode="&#x2005;" horiz-adv-x="763" />
<glyph unicode="&#x2006;" horiz-adv-x="509" />
<glyph unicode="&#x2007;" horiz-adv-x="509" />
<glyph unicode="&#x2008;" horiz-adv-x="380" />
<glyph unicode="&#x2009;" horiz-adv-x="610" />
<glyph unicode="&#x200a;" horiz-adv-x="169" />
<glyph unicode="&#x2010;" horiz-adv-x="1142" d="M1061 758q0 45 -17.5 86t-48 71.5t-71.5 48t-86 17.5h-535q-47 0 -87 -17.5t-69.5 -48t-47 -71.5t-17.5 -86q0 -92 65.5 -157.5t155.5 -65.5h535q45 0 86 17t71.5 48t48 71t17.5 87zM1208 758q0 -78 -28.5 -144.5t-79.5 -118t-119 -80t-143 -28.5h-535 q-152 0 -260.5 108.5t-108.5 262.5q0 76 29 143.5t78 118.5t116.5 79.5t145.5 28.5h535q76 0 143.5 -28.5t118.5 -79.5t79.5 -118.5t28.5 -143.5z" />
<glyph unicode="&#x2011;" horiz-adv-x="1142" d="M1061 758q0 45 -17.5 86t-48 71.5t-71.5 48t-86 17.5h-535q-47 0 -87 -17.5t-69.5 -48t-47 -71.5t-17.5 -86q0 -92 65.5 -157.5t155.5 -65.5h535q45 0 86 17t71.5 48t48 71t17.5 87zM1208 758q0 -78 -28.5 -144.5t-79.5 -118t-119 -80t-143 -28.5h-535 q-152 0 -260.5 108.5t-108.5 262.5q0 76 29 143.5t78 118.5t116.5 79.5t145.5 28.5h535q76 0 143.5 -28.5t118.5 -79.5t79.5 -118.5t28.5 -143.5z" />
<glyph unicode="&#x2012;" horiz-adv-x="1142" d="M1061 758q0 45 -17.5 86t-48 71.5t-71.5 48t-86 17.5h-535q-47 0 -87 -17.5t-69.5 -48t-47 -71.5t-17.5 -86q0 -92 65.5 -157.5t155.5 -65.5h535q45 0 86 17t71.5 48t48 71t17.5 87zM1208 758q0 -78 -28.5 -144.5t-79.5 -118t-119 -80t-143 -28.5h-535 q-152 0 -260.5 108.5t-108.5 262.5q0 76 29 143.5t78 118.5t116.5 79.5t145.5 28.5h535q76 0 143.5 -28.5t118.5 -79.5t79.5 -118.5t28.5 -143.5z" />
<glyph unicode="&#x2013;" horiz-adv-x="1024" d="M-66 387v741h1156v-741h-1156z" />
<glyph unicode="&#x2014;" horiz-adv-x="2048" d="M-66 387v741h2180v-741h-2180z" />
<glyph unicode="&#x2018;" horiz-adv-x="608" d="M526 1292q0 45 -17 86t-48 72t-72 48.5t-86 17.5q-47 0 -87 -17.5t-69.5 -48.5t-47 -72t-17.5 -86v-268q0 -47 17.5 -87t47 -69.5t69.5 -47t87 -17.5q92 0 157.5 65.5t65.5 155.5v268zM674 1024q0 -152 -108.5 -260.5t-262.5 -108.5q-78 0 -144.5 29t-116.5 79t-79 116.5 t-29 144.5v268q0 76 29 143.5t78 119t116.5 80t145.5 28.5q76 0 143.5 -28.5t118.5 -80t80 -119t29 -143.5v-268z" />
<glyph unicode="&#x2019;" horiz-adv-x="608" d="M526 1292q0 45 -17 86t-48 72t-72 48.5t-86 17.5q-47 0 -87 -17.5t-69.5 -48.5t-47 -72t-17.5 -86v-268q0 -47 17.5 -87t47 -69.5t69.5 -47t87 -17.5q92 0 157.5 65.5t65.5 155.5v268zM674 1024q0 -152 -108.5 -260.5t-262.5 -108.5q-78 0 -144.5 29t-116.5 79t-79 116.5 t-29 144.5v268q0 76 29 143.5t78 119t116.5 80t145.5 28.5q76 0 143.5 -28.5t118.5 -80t80 -119t29 -143.5v-268z" />
<glyph unicode="&#x201c;" horiz-adv-x="1142" d="M1061 1292q0 45 -17.5 86t-48 72t-71.5 48.5t-86 17.5q-47 0 -87 -17.5t-70 -48.5t-47.5 -72t-17.5 -86v-268q0 -47 17.5 -87t47.5 -69.5t70 -47t87 -17.5q92 0 157.5 65.5t65.5 155.5v268zM526 1292q0 45 -17 86t-48 72t-72 48.5t-86 17.5q-47 0 -87 -17.5t-69.5 -48.5 t-47 -72t-17.5 -86v-268q0 -47 17.5 -87t47 -69.5t69.5 -47t87 -17.5q92 0 157.5 65.5t65.5 155.5v268zM1208 1024q0 -152 -108.5 -260.5t-261.5 -108.5q-80 0 -148.5 30t-120.5 83l-4 -4q-109 -109 -262 -109q-78 0 -144.5 29t-116.5 79t-79 116.5t-29 144.5v268 q0 76 29 143.5t78 119t116.5 80t145.5 28.5t146.5 -30.5t119.5 -84.5q51 53 120 84t149 31q76 0 143.5 -28.5t118.5 -80t79.5 -119t28.5 -143.5v-268z" />
<glyph unicode="&#x201d;" horiz-adv-x="1142" d="M1061 1292q0 45 -17.5 86t-48 72t-71.5 48.5t-86 17.5q-47 0 -87 -17.5t-70 -48.5t-47.5 -72t-17.5 -86v-268q0 -47 17.5 -87t47.5 -69.5t70 -47t87 -17.5q92 0 157.5 65.5t65.5 155.5v268zM526 1292q0 45 -17 86t-48 72t-72 48.5t-86 17.5q-47 0 -87 -17.5t-69.5 -48.5 t-47 -72t-17.5 -86v-268q0 -47 17.5 -87t47 -69.5t69.5 -47t87 -17.5q92 0 157.5 65.5t65.5 155.5v268zM1208 1024q0 -152 -108.5 -260.5t-261.5 -108.5q-80 0 -148.5 30t-120.5 83l-4 -4q-109 -109 -262 -109q-78 0 -144.5 29t-116.5 79t-79 116.5t-29 144.5v268 q0 76 29 143.5t78 119t116.5 80t145.5 28.5t146.5 -30.5t119.5 -84.5q51 53 120 84t149 31q76 0 143.5 -28.5t118.5 -80t79.5 -119t28.5 -143.5v-268z" />
<glyph unicode="&#x2026;" horiz-adv-x="1824" d="M1743 223q0 45 -17 86t-48 72t-72 48t-86 17q-47 0 -87 -17t-69.5 -48t-47 -72t-17.5 -86q0 -92 65.5 -157.5t155.5 -65.5q45 0 86 17.5t72 48t48 70.5t17 87zM1891 223q0 -78 -29 -144.5t-80 -117.5t-118.5 -79.5t-143.5 -28.5q-152 0 -260.5 108.5t-108.5 261.5 q0 76 29 143.5t78 119t116.5 80t145.5 28.5q76 0 143.5 -28.5t118.5 -80t80 -119t29 -143.5zM1134 223q0 45 -17 86t-48 72t-72 48t-86 17q-47 0 -87 -17t-69.5 -48t-47 -72t-17.5 -86q0 -92 65.5 -157.5t155.5 -65.5q45 0 86 17.5t72 48t48 70.5t17 87zM1282 223 q0 -78 -29 -144.5t-80 -117.5t-118.5 -79.5t-143.5 -28.5q-152 0 -260.5 108.5t-108.5 261.5q0 76 29 143.5t78 119t116.5 80t145.5 28.5q76 0 143.5 -28.5t118.5 -80t80 -119t29 -143.5zM526 223q0 45 -17 86t-48 72t-72 48t-86 17q-47 0 -87 -17t-69.5 -48t-47 -72 t-17.5 -86q0 -92 65.5 -157.5t155.5 -65.5q45 0 86 17.5t72 48t48 70.5t17 87zM674 223q0 -78 -29 -144.5t-80 -117.5t-118.5 -79.5t-143.5 -28.5q-152 0 -260.5 108.5t-108.5 261.5q0 76 29 143.5t78 119t116.5 80t145.5 28.5q76 0 143.5 -28.5t118.5 -80t80 -119 t29 -143.5z" />
<glyph unicode="&#x202f;" horiz-adv-x="610" />
<glyph unicode="&#x2039;" horiz-adv-x="874" d="M618 758l109 110q66 66 66 156q0 47 -17.5 88t-48.5 70.5t-72 47t-86 17.5q-86 0 -157 -65l-267 -267q-63 -63 -63 -157t63 -158l267 -266q35 -35 73.5 -50.5t83.5 -15.5q92 0 158 65.5t66 155.5q0 92 -66 158zM831 752q53 -53 81 -118t28 -145q0 -152 -109 -260 q-53 -53 -117.5 -80.5t-144.5 -27.5q-74 0 -138 24.5t-124 83.5l-266 267q-106 106 -107 262q0 156 107 262l268 268q117 106 260 107q76 0 143.5 -29t119 -79t80 -117.5t28.5 -145.5q0 -152 -109 -260v2l-8 -8l8 -8v2z" />
<glyph unicode="&#x203a;" horiz-adv-x="874" d="M727 600q66 66 66 158t-66 157l-266 267q-66 66 -158 65q-47 0 -87 -17.5t-69.5 -47t-47 -70.5t-17.5 -88q0 -92 63 -156l111 -110l-111 -111q-63 -63 -63 -158q0 -47 17.5 -87t47 -69.5t69.5 -47t87 -17.5q92 0 158 66zM565 229q-53 -53 -117.5 -80.5t-144.5 -27.5 q-78 0 -145.5 28.5t-116.5 79t-78 117t-29 143.5q0 156 107 263l6 6l-6 6q-106 106 -107 260q0 78 29 145.5t79 117.5t116.5 79t144.5 29q154 0 262 -109l266 -266q109 -109 109 -262q0 -80 -27.5 -144.5t-81.5 -117.5z" />
<glyph unicode="&#x205f;" horiz-adv-x="763" />
<glyph unicode="&#x2122;" horiz-adv-x="3354" d="M2738 758q0 45 -17.5 86t-48 71.5t-71.5 48t-86 17.5q-47 0 -87 -17.5t-70 -48t-47.5 -71.5t-17.5 -86v-535q0 -92 66 -157.5t156 -65.5q45 0 86 17.5t71.5 48t48 70.5t17.5 87v535zM3272 758q0 313 -223 534q-221 223 -534 224q-311 0 -535 -224q-221 -221 -221 -534 v-535q0 -92 65.5 -157.5t155.5 -65.5q47 0 88 17.5t71 47t47 70.5t17 88v535q0 129 90 219q92 92 222 92q129 0 221 -92t92 -219v-535q0 -92 65.5 -157.5t155.5 -65.5q45 0 86 17.5t72 48t48 70.5t17 87v535zM3420 223q0 -78 -28.5 -144.5t-80 -117.5t-119 -79.5 t-143.5 -28.5q-152 0 -260 108l-6 6q-51 -53 -121 -83.5t-147 -30.5q-152 0 -260 108l-7 6q-51 -53 -119.5 -83.5t-148.5 -30.5q-152 0 -260.5 108.5t-108.5 261.5v535q0 375 265 639q266 266 639 266q375 0 639 -266q266 -264 266 -639v-535zM1595 1292q0 45 -17 86t-48 72 t-72 48.5t-86 17.5h-1069q-47 0 -87 -17.5t-69.5 -48.5t-47 -72t-17.5 -86q0 -92 65.5 -157.5t155.5 -65.5h313v-846q0 -92 66 -157.5t156 -65.5q45 0 86 17.5t71.5 48t48 70.5t17.5 87v846h311q45 0 86 17.5t72 48t48 70.5t17 87zM1743 1292q0 -78 -28.5 -144.5t-80 -117.5 t-119 -79.5t-143.5 -28.5h-164v-699q0 -78 -28.5 -144.5t-79.5 -117.5t-119 -79.5t-143 -28.5q-152 0 -260.5 108.5t-108.5 261.5v699h-166q-152 0 -260.5 108.5t-108.5 261.5q0 76 29 143.5t78 119t116.5 80t145.5 28.5h1069q76 0 143.5 -28.5t119 -80t80 -119t28.5 -143.5 z" />
<glyph unicode="&#xe000;" horiz-adv-x="1665" d="M0 1665h1665v-1665h-1665v1665z" />
<glyph unicode="&#xfb01;" horiz-adv-x="3354" d="M3272 223q0 45 -17 86t-48 72t-72 48t-86 17h-311v623h311q45 0 86 17.5t72 48t48 70.5t17 87q0 45 -17 86t-48 72t-72 48.5t-86 17.5h-1069q-47 0 -87 -17.5t-69.5 -48.5t-47 -72t-17.5 -86q0 -92 65.5 -157.5t155.5 -65.5h313v-623h-313q-47 0 -87 -17t-69.5 -48 t-47 -72t-17.5 -86q0 -92 65.5 -157.5t155.5 -65.5h1069q45 0 86 17.5t72 48t48 70.5t17 87zM3420 223q0 -78 -28.5 -144.5t-80 -117.5t-119 -79.5t-143.5 -28.5h-1069q-152 0 -260.5 108.5t-108.5 261.5q0 76 29 143.5t78 119t116.5 80t145.5 28.5h166v328h-166 q-152 0 -260.5 108.5t-108.5 261.5q0 76 29 143.5t78 119t116.5 80t145.5 28.5h1069q76 0 143.5 -28.5t119 -80t80 -119t28.5 -143.5q0 -78 -28.5 -144.5t-80 -117.5t-119 -79.5t-143.5 -28.5h-164v-328h164q76 0 143.5 -28.5t119 -80t80 -119t28.5 -143.5zM1061 758 q0 45 -17.5 86t-48 71.5t-71.5 48t-86 17.5q-47 0 -87 -17.5t-70 -48t-47.5 -71.5t-17.5 -86q0 -92 66 -157.5t156 -65.5q45 0 86 17t71.5 48t48 71t17.5 87zM1595 1292q0 45 -17 86t-48 72t-72 48.5t-86 17.5h-534q-311 0 -535 -224q-221 -221 -221 -534v-535 q0 -92 65.5 -157.5t155.5 -65.5q47 0 88 17.5t71 47t47 70.5t17 88v535q0 129 90 219q92 92 222 92h534q45 0 86 17.5t72 48t48 70.5t17 87zM1208 758q0 -78 -28.5 -144.5t-79.5 -118t-119 -80t-143 -28.5q-90 0 -164 37v-201q0 -78 -29 -145.5t-79 -117.5t-117.5 -78.5 t-145.5 -28.5q-152 0 -260.5 108.5t-108.5 261.5v535q0 375 265 639q266 266 639 266h534q76 0 143.5 -28.5t119 -80t80 -119t28.5 -143.5q0 -78 -28.5 -144.5t-80 -117.5t-119 -79.5t-143.5 -28.5h-203q39 -78 39 -164z" />
<glyph unicode="&#xfb02;" horiz-adv-x="3354" d="M3272 223q0 45 -17 86t-48 72t-72 48t-86 17h-534q-127 0 -222 91q-90 94 -90 221v534q0 45 -17 86t-48 72t-72 48.5t-86 17.5q-47 0 -87 -17.5t-69.5 -48.5t-47 -72t-17.5 -86v-534q0 -315 221 -536.5t535 -221.5h534q45 0 86 17.5t72 48t48 70.5t17 87zM3420 223 q0 -78 -28.5 -144.5t-80 -117.5t-119 -79.5t-143.5 -28.5h-534q-375 0 -639.5 264t-264.5 641v534q0 76 29 143.5t78 119t116.5 80t145.5 28.5q76 0 143.5 -28.5t118.5 -80t80 -119t29 -143.5v-534q0 -70 49 -119q45 -45 115 -45h534q76 0 143.5 -28.5t119 -80t80 -119 t28.5 -143.5zM1061 758q0 45 -17.5 86t-48 71.5t-71.5 48t-86 17.5q-47 0 -87 -17.5t-70 -48t-47.5 -71.5t-17.5 -86q0 -92 66 -157.5t156 -65.5q45 0 86 17t71.5 48t48 71t17.5 87zM1595 1292q0 45 -17 86t-48 72t-72 48.5t-86 17.5h-534q-311 0 -535 -224 q-221 -221 -221 -534v-535q0 -92 65.5 -157.5t155.5 -65.5q47 0 88 17.5t71 47t47 70.5t17 88v535q0 129 90 219q92 92 222 92h534q45 0 86 17.5t72 48t48 70.5t17 87zM1208 758q0 -78 -28.5 -144.5t-79.5 -118t-119 -80t-143 -28.5q-90 0 -164 37v-201q0 -78 -29 -145.5 t-79 -117.5t-117.5 -78.5t-145.5 -28.5q-152 0 -260.5 108.5t-108.5 261.5v535q0 375 265 639q266 266 639 266h534q76 0 143.5 -28.5t119 -80t80 -119t28.5 -143.5q0 -78 -28.5 -144.5t-80 -117.5t-119 -79.5t-143.5 -28.5h-203q39 -78 39 -164z" />
<glyph unicode="&#xfb03;" horiz-adv-x="5031" d="M4950 223q0 45 -17 86t-48 72t-72 48t-86 17h-311v623h311q45 0 86 17.5t72 48t48 70.5t17 87q0 45 -17 86t-48 72t-72 48.5t-86 17.5h-1069q-47 0 -87 -17.5t-69.5 -48.5t-47 -72t-17.5 -86q0 -92 65.5 -157.5t155.5 -65.5h313v-623h-313q-47 0 -87 -17t-69.5 -48 t-47 -72t-17.5 -86q0 -92 65.5 -157.5t155.5 -65.5h1069q45 0 86 17.5t72 48t48 70.5t17 87zM5098 223q0 -78 -28.5 -144.5t-80 -117.5t-119 -79.5t-143.5 -28.5h-1069q-152 0 -260.5 108.5t-108.5 261.5q0 76 29 143.5t78 119t116.5 80t145.5 28.5h166v328h-166 q-152 0 -260.5 108.5t-108.5 261.5q0 76 29 143.5t78 119t116.5 80t145.5 28.5h1069q76 0 143.5 -28.5t119 -80t80 -119t28.5 -143.5q0 -78 -28.5 -144.5t-80 -117.5t-119 -79.5t-143.5 -28.5h-164v-328h164q76 0 143.5 -28.5t119 -80t80 -119t28.5 -143.5zM2738 758 q0 45 -17.5 86t-48 71.5t-71.5 48t-86 17.5q-47 0 -87 -17.5t-70 -48t-47.5 -71.5t-17.5 -86q0 -92 66 -157.5t156 -65.5q45 0 86 17t71.5 48t48 71t17.5 87zM3272 1292q0 45 -17 86t-48 72t-72 48.5t-86 17.5h-534q-311 0 -535 -224q-221 -221 -221 -534v-535 q0 -92 65.5 -157.5t155.5 -65.5q47 0 88 17.5t71 47t47 70.5t17 88v535q0 129 90 219q92 92 222 92h534q45 0 86 17.5t72 48t48 70.5t17 87zM2885 758q0 -78 -28.5 -144.5t-79.5 -118t-119 -80t-143 -28.5q-90 0 -164 37v-201q0 -78 -29 -145.5t-79 -117.5t-117.5 -78.5 t-145.5 -28.5q-152 0 -260.5 108.5t-108.5 261.5v535q0 375 265 639q266 266 639 266h534q76 0 143.5 -28.5t119 -80t80 -119t28.5 -143.5q0 -78 -28.5 -144.5t-80 -117.5t-119 -79.5t-143.5 -28.5h-203q39 -78 39 -164zM1061 758q0 45 -17.5 86t-48 71.5t-71.5 48t-86 17.5 q-47 0 -87 -17.5t-70 -48t-47.5 -71.5t-17.5 -86q0 -92 66 -157.5t156 -65.5q45 0 86 17t71.5 48t48 71t17.5 87zM1595 1292q0 45 -17 86t-48 72t-72 48.5t-86 17.5h-534q-311 0 -535 -224q-221 -221 -221 -534v-535q0 -92 65.5 -157.5t155.5 -65.5q47 0 88 17.5t71 47 t47 70.5t17 88v535q0 129 90 219q92 92 222 92h534q45 0 86 17.5t72 48t48 70.5t17 87zM1208 758q0 -78 -28.5 -144.5t-79.5 -118t-119 -80t-143 -28.5q-90 0 -164 37v-201q0 -78 -29 -145.5t-79 -117.5t-117.5 -78.5t-145.5 -28.5q-152 0 -260.5 108.5t-108.5 261.5v535 q0 375 265 639q266 266 639 266h534q76 0 143.5 -28.5t119 -80t80 -119t28.5 -143.5q0 -78 -28.5 -144.5t-80 -117.5t-119 -79.5t-143.5 -28.5h-203q39 -78 39 -164z" />
<glyph unicode="&#xfb04;" horiz-adv-x="5031" d="M4950 223q0 45 -17 86t-48 72t-72 48t-86 17h-534q-127 0 -222 91q-90 94 -90 221v534q0 45 -17 86t-48 72t-72 48.5t-86 17.5q-47 0 -87 -17.5t-69.5 -48.5t-47 -72t-17.5 -86v-534q0 -315 221 -536.5t535 -221.5h534q45 0 86 17.5t72 48t48 70.5t17 87zM5098 223 q0 -78 -28.5 -144.5t-80 -117.5t-119 -79.5t-143.5 -28.5h-534q-375 0 -639.5 264t-264.5 641v534q0 76 29 143.5t78 119t116.5 80t145.5 28.5q76 0 143.5 -28.5t118.5 -80t80 -119t29 -143.5v-534q0 -70 49 -119q45 -45 115 -45h534q76 0 143.5 -28.5t119 -80t80 -119 t28.5 -143.5zM2738 758q0 45 -17.5 86t-48 71.5t-71.5 48t-86 17.5q-47 0 -87 -17.5t-70 -48t-47.5 -71.5t-17.5 -86q0 -92 66 -157.5t156 -65.5q45 0 86 17t71.5 48t48 71t17.5 87zM3272 1292q0 45 -17 86t-48 72t-72 48.5t-86 17.5h-534q-311 0 -535 -224 q-221 -221 -221 -534v-535q0 -92 65.5 -157.5t155.5 -65.5q47 0 88 17.5t71 47t47 70.5t17 88v535q0 129 90 219q92 92 222 92h534q45 0 86 17.5t72 48t48 70.5t17 87zM2885 758q0 -78 -28.5 -144.5t-79.5 -118t-119 -80t-143 -28.5q-90 0 -164 37v-201q0 -78 -29 -145.5 t-79 -117.5t-117.5 -78.5t-145.5 -28.5q-152 0 -260.5 108.5t-108.5 261.5v535q0 375 265 639q266 266 639 266h534q76 0 143.5 -28.5t119 -80t80 -119t28.5 -143.5q0 -78 -28.5 -144.5t-80 -117.5t-119 -79.5t-143.5 -28.5h-203q39 -78 39 -164zM1061 758q0 45 -17.5 86 t-48 71.5t-71.5 48t-86 17.5q-47 0 -87 -17.5t-70 -48t-47.5 -71.5t-17.5 -86q0 -92 66 -157.5t156 -65.5q45 0 86 17t71.5 48t48 71t17.5 87zM1595 1292q0 45 -17 86t-48 72t-72 48.5t-86 17.5h-534q-311 0 -535 -224q-221 -221 -221 -534v-535q0 -92 65.5 -157.5 t155.5 -65.5q47 0 88 17.5t71 47t47 70.5t17 88v535q0 129 90 219q92 92 222 92h534q45 0 86 17.5t72 48t48 70.5t17 87zM1208 758q0 -78 -28.5 -144.5t-79.5 -118t-119 -80t-143 -28.5q-90 0 -164 37v-201q0 -78 -29 -145.5t-79 -117.5t-117.5 -78.5t-145.5 -28.5 q-152 0 -260.5 108.5t-108.5 261.5v535q0 375 265 639q266 266 639 266h534q76 0 143.5 -28.5t119 -80t80 -119t28.5 -143.5q0 -78 -28.5 -144.5t-80 -117.5t-119 -79.5t-143.5 -28.5h-203q39 -78 39 -164z" />
</font>
</defs>
</svg>
