<?xml version="1.0" standalone="no"?>
<!DOCTYPE svg PUBLIC "-//W3C//DTD SVG 1.1//EN" "http://www.w3.org/Graphics/SVG/1.1/DTD/svg11.dtd" >
<svg xmlns="http://www.w3.org/2000/svg">
<metadata>
This is a custom SVG webfont generated by Font Squirrel.
Copyright   : Copyright  IGMA FONTS 2006 All rights reserved  please read the included text file for more info
Designer    : IGMA FONTS  Brian Kent
Foundry     : IGMA FONTS
</metadata>
<defs>
<font id="webfontSKOuuhUP" horiz-adv-x="1677" >
<font-face units-per-em="2048" ascent="1782" descent="-266" />
<missing-glyph horiz-adv-x="1433" />
<glyph unicode=" "  horiz-adv-x="1433" />
<glyph unicode="&#x09;" horiz-adv-x="1433" />
<glyph unicode="&#xa0;" horiz-adv-x="1433" />
<glyph unicode="!" horiz-adv-x="608" d="M526 758q0 -47 -17 -87t-48 -71t-72 -48t-86 -17q-90 0 -155.5 65.5t-65.5 157.5v534q0 45 17.5 86t47 72t69.5 48.5t87 17.5q45 0 86 -17.5t72 -48.5t48 -72t17 -86v-534zM526 223q0 -47 -17 -87t-48 -70.5t-72 -48t-86 -17.5q-90 0 -155.5 65.5t-65.5 157.5 q0 45 17.5 86t47 72t69.5 48t87 17q45 0 86 -17t72 -48t48 -72t17 -86z" />
<glyph unicode="&#x22;" horiz-adv-x="1142" d="M526 1024q0 -90 -65.5 -155.5t-157.5 -65.5q-47 0 -87 17.5t-69.5 47t-47 69.5t-17.5 87v268q0 45 17.5 86t47 72t69.5 48.5t87 17.5q45 0 86 -17.5t72 -48.5t48 -72t17 -86v-268zM1061 1024q0 -90 -65.5 -155.5t-157.5 -65.5q-47 0 -87 17.5t-70 47t-47.5 69.5t-17.5 87 v268q0 45 17.5 86t47.5 72t70 48.5t87 17.5q45 0 86 -17.5t71.5 -48.5t48 -72t17.5 -86v-268z" />
<glyph unicode="#" d="M1595 492q0 -47 -17 -87t-48 -71t-72 -48.5t-86 -17.5h-45v-45q0 -47 -17.5 -87t-47 -70.5t-69.5 -48t-87 -17.5t-87 17.5t-70.5 48t-48 70.5t-17.5 87v45h-88v-45q0 -47 -17.5 -87t-48.5 -70.5t-72 -48t-86 -17.5q-47 0 -87 17.5t-70.5 48t-48 70.5t-17.5 87v45h-45 q-90 0 -155.5 65.5t-65.5 158.5q0 45 17.5 85.5t47 70.5t69.5 47.5t87 17.5h45v90h-45q-47 0 -87 17.5t-69.5 47t-47 69.5t-17.5 87q0 45 17.5 86t47 71.5t69.5 48t87 17.5h45v45q0 45 17.5 86t48 72t70.5 48.5t87 17.5q45 0 86 -17.5t72 -48.5t48.5 -72t17.5 -86v-45h88v45 q0 45 17.5 86t48 72t70.5 48.5t87 17.5q90 0 155.5 -66t65.5 -158v-45h45q45 0 86 -17.5t72 -48t48 -71.5t17 -86q0 -90 -65.5 -155.5t-157.5 -65.5h-45v-90h45q45 0 86 -17.5t72 -47.5t48 -69.5t17 -86.5zM883 803h-88v-90h88v90z" />
<glyph unicode="$" d="M1595 758q0 -258 -155 -459q-154 -201 -393 -268q14 -37 14 -74q0 -47 -17.5 -87t-48 -70.5t-71.5 -48t-86 -17.5q-90 0 -156 65.5t-66 157.5q0 23 5 43h-318q-90 0 -155.5 65.5t-65.5 157.5q0 45 17.5 86t47 72t69.5 48t87 17h535q127 0 221 91q92 88 92 221 q0 45 17.5 86t47 71.5t69.5 48t87 17.5q45 0 86 -17.5t72 -48t48 -71.5t17 -86zM82 758q0 256 151 456q154 201 396 271q-12 33 -13 74q0 45 17.5 86t47.5 71.5t70 48t87 17.5q45 0 86 -17.5t71.5 -48t48 -71.5t17.5 -86l-4 -43h315q45 0 86 -17.5t72 -48.5t48 -72t17 -86 q0 -47 -17 -87t-48 -70.5t-72 -48t-86 -17.5h-534q-129 0 -222 -92q-90 -90 -90 -219q0 -47 -17 -88t-47 -71t-71 -47t-88 -17q-90 0 -155.5 65.5t-65.5 157.5zM838 981q45 0 86 -17.5t71.5 -48t48 -71.5t17.5 -86q0 -47 -17.5 -87t-48 -71t-71.5 -48t-86 -17 q-90 0 -156 65.5t-66 157.5q0 45 17.5 86t47.5 71.5t70 48t87 17.5z" />
<glyph unicode="%" d="M461 66q-66 -66 -156 -66q-47 0 -87 17.5t-70.5 48t-48 70.5t-17.5 87q0 92 65 158l1067 1069q63 63 158 63q47 0 88 -17t71 -47t47 -71t17 -86q0 -92 -65 -157zM82 1292q0 45 17.5 86t47 72t69.5 48.5t87 17.5q45 0 86 -17.5t72 -48.5t48 -72t17 -86q0 -47 -17 -88 t-47 -70.5t-71 -47t-88 -17.5q-90 0 -155.5 65.5t-65.5 157.5zM1595 223q0 -47 -17 -87t-48 -70.5t-72 -48t-86 -17.5q-90 0 -155.5 65.5t-65.5 157.5q0 45 17.5 86t47 72t69.5 48t87 17q45 0 86 -17t72 -48t48 -72t17 -86z" />
<glyph unicode="&#x26;" d="M1595 758q0 -258 -155 -459q-154 -201 -393 -268q14 -37 14 -74q0 -47 -17.5 -87t-48 -70.5t-71.5 -48t-86 -17.5q-90 0 -156 65.5t-66 157.5q0 23 5 43h-318q-90 0 -155.5 65.5t-65.5 157.5q0 98 22.5 184.5t67.5 172.5q-90 63 -90 178q0 256 151 456q154 201 396 271 q-12 33 -13 74q0 45 17.5 86t47.5 71.5t70 48t87 17.5q45 0 86 -17.5t71.5 -48t48 -71.5t17.5 -86l-4 -43h315q45 0 86 -17.5t72 -48.5t48 -72t17 -86q0 -47 -17 -87t-48 -70.5t-72 -48t-86 -17.5h-534q-76 0 -144.5 -36t-111.5 -99q125 47 256 47q45 0 86 -17.5t71.5 -48 t48 -71.5t17.5 -86q0 -47 -17.5 -87t-48 -71t-71.5 -48t-86 -17q-129 0 -217 -89h217q127 0 221 91q92 88 92 221q0 45 17.5 86t47 71.5t69.5 48t87 17.5q45 0 86 -17.5t72 -48t48 -71.5t17 -86z" />
<glyph unicode="'" horiz-adv-x="608" d="M526 1024q0 -90 -65.5 -155.5t-157.5 -65.5q-47 0 -87 17.5t-69.5 47t-47 69.5t-17.5 87v268q0 45 17.5 86t47 72t69.5 48.5t87 17.5q45 0 86 -17.5t72 -48.5t48 -72t17 -86v-268z" />
<glyph unicode="(" horiz-adv-x="1142" d="M1061 223q0 -47 -17.5 -87t-48 -70.5t-71.5 -48t-86 -17.5q-313 0 -534.5 221t-221.5 537q0 313 221 534q223 223 535 224q45 0 86 -17.5t71.5 -48.5t48 -72t17.5 -86q0 -47 -17.5 -87t-48 -70.5t-71.5 -48t-86 -17.5q-129 0 -222 -92q-90 -90 -90 -219q0 -127 90 -221 q94 -90 222 -91q45 0 86 -17t71.5 -48t48 -72t17.5 -86z" />
<glyph unicode=")" horiz-adv-x="1142" d="M1061 758q0 -313 -223 -537q-221 -221 -535 -221q-90 0 -155.5 65.5t-65.5 157.5q0 45 17.5 86t47 72t69.5 48t87 17q127 0 221 91q92 88 92 221q0 127 -92 219t-221 92q-90 0 -155.5 65.5t-65.5 157.5q0 45 17.5 86t47 72t69.5 48.5t87 17.5q313 0 535 -224 q223 -221 223 -534z" />
<glyph unicode="*" horiz-adv-x="1372" d="M1044 774l56 -76q43 -59 43 -131q0 -111 -92 -180q-20 -14 -53 -27.5t-78 -13.5q-113 0 -181 90l-55 78l-55 -78q-33 -45 -80 -67.5t-103 -22.5q-72 0 -129 41q-90 66 -90 182q0 72 41 129l56 74l-88 29q-72 23 -113 81t-41 132q0 37 10 67q23 72 80 114t131 42 q35 0 70 -12l90 -29v96q0 45 17.5 86t47 72t69.5 48.5t87 17.5q45 0 86 -17.5t71.5 -48.5t48 -72t17.5 -86v-94l92 29q37 12 72 12q72 0 129 -42t80 -112q10 -31 10 -69q0 -72 -42 -131.5t-111 -79.5z" />
<glyph unicode="+" horiz-adv-x="1142" d="M1061 758q0 -47 -17.5 -87t-48 -71t-71.5 -48t-86 -17h-43v-43q0 -47 -17.5 -87t-48.5 -71t-72 -48.5t-86 -17.5q-47 0 -87 17.5t-70.5 48.5t-48 70.5t-17.5 87.5v43h-45q-90 0 -155.5 65.5t-65.5 157.5q0 45 17.5 86t47 71.5t69.5 48t87 17.5h45v43q0 45 17.5 86 t48 71.5t70.5 48t87 17.5q45 0 86 -17.5t72 -48t48.5 -71.5t17.5 -86v-43h43q45 0 86 -17.5t71.5 -48t48 -71.5t17.5 -86z" />
<glyph unicode="," horiz-adv-x="608" d="M526 -43q0 -47 -17 -87t-48 -70.5t-72 -48t-86 -17.5q-90 0 -155.5 65.5t-65.5 157.5v266q0 45 17.5 86t47 72t69.5 48t87 17q45 0 86 -17t72 -48t48 -72t17 -86v-266z" />
<glyph unicode="-" horiz-adv-x="1142" d="M1061 758q0 -47 -17.5 -87t-48 -71t-71.5 -48t-86 -17h-535q-90 0 -155.5 65.5t-65.5 157.5q0 45 17.5 86t47 71.5t69.5 48t87 17.5h535q45 0 86 -17.5t71.5 -48t48 -71.5t17.5 -86z" />
<glyph unicode="." horiz-adv-x="608" d="M526 223q0 -47 -17 -87t-48 -70.5t-72 -48t-86 -17.5q-90 0 -155.5 65.5t-65.5 157.5q0 45 17.5 86t47 72t69.5 48t87 17q45 0 86 -17t72 -48t48 -72t17 -86z" />
<glyph unicode="/" d="M461 66q-66 -66 -156 -66q-47 0 -87 17.5t-70.5 48t-48 70.5t-17.5 87q0 92 65 158l1067 1069q63 63 158 63q47 0 88 -17t71 -47t47 -71t17 -86q0 -92 -65 -157z" />
<glyph unicode="0" d="M1595 758q0 -313 -223 -537q-221 -221 -534 -221t-534.5 221t-221.5 537q0 313 221 534q223 223 535 224q313 0 534 -224q223 -221 223 -534zM1151 758q0 127 -92 219t-221 92t-222 -92q-90 -90 -90 -219q0 -127 90 -221q94 -90 222 -91q127 0 221 91q92 88 92 221z M1061 758q0 -47 -17.5 -87t-48 -71t-71.5 -48t-86 -17q-90 0 -156 65.5t-66 157.5q0 45 17.5 86t47.5 71.5t70 48t87 17.5q45 0 86 -17.5t71.5 -48t48 -71.5t17.5 -86z" />
<glyph unicode="1" horiz-adv-x="608" d="M526 223q0 -47 -17 -87t-48 -70.5t-72 -48t-86 -17.5q-90 0 -155.5 65.5t-65.5 157.5v1069q0 45 17.5 86t47 72t69.5 48.5t87 17.5q45 0 86 -17.5t72 -48.5t48 -72t17 -86v-1069z" />
<glyph unicode="2" d="M526 223q0 -47 -17 -88t-47 -70.5t-71 -47t-88 -17.5q-90 0 -155.5 65.5t-65.5 157.5q0 313 221 535q223 223 535 223h219q-45 43 -98.5 65.5t-120.5 22.5h-535q-90 0 -155.5 65.5t-65.5 157.5q0 45 17.5 86t47 72t69.5 48.5t87 17.5h535q313 0 534 -224 q223 -221 223 -534q0 -47 -17 -87t-48 -71t-72 -48t-86 -17h-534q-129 0 -222 -93q-90 -90 -90 -219zM1595 223q0 -47 -17 -87t-48 -70.5t-72 -48t-86 -17.5h-534q-90 0 -156 65.5t-66 157.5q0 45 17.5 86t47.5 72t70 48t87 17h534q45 0 86 -17t72 -48t48 -72t17 -86z" />
<glyph unicode="3" d="M1595 758q0 -313 -223 -537q-221 -221 -534 -221h-535q-90 0 -155.5 65.5t-65.5 157.5q0 45 17.5 86t47 72t69.5 48t87 17h535q127 0 221 91q92 88 92 221q0 127 -92 219t-221 92h-535q-90 0 -155.5 65.5t-65.5 157.5q0 45 17.5 86t47 72t69.5 48.5t87 17.5h535 q313 0 534 -224q223 -221 223 -534zM82 758q0 45 17.5 86t47 71.5t69.5 48t87 17.5h535q45 0 86 -17.5t71.5 -48t48 -71.5t17.5 -86q0 -47 -17.5 -87t-48 -71t-71.5 -48t-86 -17h-535q-90 0 -155.5 65.5t-65.5 157.5z" />
<glyph unicode="4" d="M1595 223q0 -47 -17 -87t-48 -70.5t-72 -48t-86 -17.5q-90 0 -155.5 65.5t-65.5 157.5v312h-848q-90 0 -155.5 65.5t-65.5 157.5v534q0 45 17.5 86t47 72t69.5 48.5t87 17.5q45 0 86 -17.5t72 -48.5t48 -72t17 -86v-311h625v311q0 45 17.5 86t47 72t69.5 48.5t87 17.5 q45 0 86 -17.5t72 -48.5t48 -72t17 -86v-1069z" />
<glyph unicode="5" d="M1595 223q0 -47 -17 -87t-48 -70.5t-72 -48t-86 -17.5q-90 0 -155.5 65.5t-65.5 157.5q0 127 -92 219.5t-221 92.5h-535q-90 0 -155.5 65.5t-65.5 157.5v534q0 45 17.5 86t47 72t69.5 48.5t87 17.5h1069q45 0 86 -17.5t72 -48.5t48 -72t17 -86q0 -47 -17 -87t-48 -70.5 t-72 -48t-86 -17.5h-846v-88h312q313 0 534 -223q223 -222 223 -535zM1061 223q0 -47 -17.5 -87t-48 -70.5t-71.5 -48t-86 -17.5h-535q-90 0 -155.5 65.5t-65.5 157.5q0 45 17.5 86t47 72t69.5 48t87 17h535q45 0 86 -17t71.5 -48t48 -72t17.5 -86z" />
<glyph unicode="6" d="M1595 758q0 -313 -223 -537q-221 -221 -534 -221t-534.5 221t-221.5 537q0 313 221 534q223 223 535 224h534q45 0 86 -17.5t72 -48.5t48 -72t17 -86q0 -47 -17 -87t-48 -70.5t-72 -48t-86 -17.5h-534q-129 0 -217 -88h751q45 0 86 -17.5t72 -48t48 -71.5t17 -86z M838 446q129 0 219 89h-436q88 -89 217 -89z" />
<glyph unicode="7" d="M1595 223q0 -47 -17 -87t-48 -70.5t-72 -48t-86 -17.5q-90 0 -155.5 65.5t-65.5 157.5v846h-848q-90 0 -155.5 65.5t-65.5 157.5q0 45 17.5 86t47 72t69.5 48.5t87 17.5h1069q45 0 86 -17.5t72 -48.5t48 -72t17 -86v-1069z" />
<glyph unicode="8" d="M1374 758q104 -104 162.5 -242.5t58.5 -292.5q0 -47 -17 -87t-48 -70.5t-72 -48t-86 -17.5h-1069q-90 0 -155.5 65.5t-65.5 157.5q0 154 58.5 292t162.5 243q-104 104 -162.5 242.5t-58.5 291.5q0 45 17.5 86t47 72t69.5 48.5t87 17.5h1069q45 0 86 -17.5t72 -48.5 t48 -72t17 -86q0 -154 -58.5 -292t-162.5 -242zM621 1069q88 -88 217 -88t219 88h-436zM1057 446q-45 43 -98.5 66t-120.5 23q-129 0 -217 -89h436z" />
<glyph unicode="9" d="M1595 223q0 -47 -17 -87t-48 -70.5t-72 -48t-86 -17.5q-90 0 -155.5 65.5t-65.5 157.5v535q0 127 -92 219t-221 92h-217q88 -88 217 -88q45 0 86 -17.5t71.5 -48t48 -71.5t17.5 -86q0 -47 -17.5 -87t-48 -71t-71.5 -48t-86 -17q-313 0 -534.5 221t-221.5 536 q0 45 17.5 86t47 72t69.5 48.5t87 17.5h535q313 0 534 -224q223 -221 223 -534v-535z" />
<glyph unicode=":" horiz-adv-x="608" d="M82 1292q0 45 17.5 86t47 72t69.5 48.5t87 17.5q45 0 86 -17.5t72 -48.5t48 -72t17 -86q0 -47 -17 -87t-48 -70.5t-72 -48t-86 -17.5q-90 0 -155.5 65.5t-65.5 157.5zM526 223q0 -47 -17 -87t-48 -70.5t-72 -48t-86 -17.5q-90 0 -155.5 65.5t-65.5 157.5q0 45 17.5 86 t47 72t69.5 48t87 17q45 0 86 -17t72 -48t48 -72t17 -86z" />
<glyph unicode=";" horiz-adv-x="608" d="M82 1292q0 45 17.5 86t47 72t69.5 48.5t87 17.5q45 0 86 -17.5t72 -48.5t48 -72t17 -86q0 -47 -17 -87t-48 -70.5t-72 -48t-86 -17.5q-90 0 -155.5 65.5t-65.5 157.5zM526 -43q0 -47 -17 -87t-48 -70.5t-72 -48t-86 -17.5q-90 0 -155.5 65.5t-65.5 157.5v266 q0 45 17.5 86t47 72t69.5 48t87 17q45 0 86 -17t72 -48t48 -72t17 -86v-266z" />
<glyph unicode="&#x3c;" horiz-adv-x="874" d="M727 647q66 -66 66 -158q0 -90 -65.5 -155.5t-158.5 -65.5q-45 0 -84 15.5t-73 50.5l-267 266q-63 63 -63 158q0 94 63 157l267 267q72 66 157 65q45 0 86 -17.5t72 -47t48.5 -70.5t17.5 -88q0 -90 -66 -156l-109 -110z" />
<glyph unicode="=" horiz-adv-x="1142" d="M82 1024q0 45 17.5 86t47 71.5t69.5 48t87 17.5h535q45 0 86 -17.5t71.5 -48t48 -71.5t17.5 -86q0 -90 -65.5 -155.5t-157.5 -65.5h-535q-47 0 -87 17.5t-69.5 47t-47 69.5t-17.5 87zM1061 492q0 -47 -17.5 -87t-48 -71t-71.5 -48.5t-86 -17.5h-535q-90 0 -155.5 65.5 t-65.5 158.5q0 45 17.5 85.5t47 70.5t69.5 47.5t87 17.5h535q45 0 86 -17.5t71.5 -47.5t48 -69.5t17.5 -86.5z" />
<glyph unicode="&#x3e;" horiz-adv-x="874" d="M461 334q-66 -66 -158 -66q-47 0 -87 17.5t-69.5 47t-47 69.5t-17.5 87q0 94 63 158l111 111l-111 110q-63 63 -63 156q0 47 17.5 88t47 70.5t69.5 47t87 17.5q92 0 158 -65l266 -267q66 -66 66 -157q0 -92 -66 -158z" />
<glyph unicode="?" d="M1595 1292q0 -313 -223 -536q-221 -221 -534 -221q-90 0 -156 65.5t-66 157.5q0 45 17.5 86t47.5 71.5t70 48t87 17.5q129 0 219 88h-219q-129 0 -222 -92q-90 -90 -90 -219q0 -47 -17 -88t-47 -71t-71 -47t-88 -17q-90 0 -155.5 65.5t-65.5 157.5q0 313 221 534 q223 223 535 224h534q45 0 86 -17.5t72 -48.5t48 -72t17 -86zM1061 223q0 -47 -17.5 -87t-48 -70.5t-71.5 -48t-86 -17.5q-90 0 -156 65.5t-66 157.5q0 45 17.5 86t47.5 72t70 48t87 17q45 0 86 -17t71.5 -48t48 -72t17.5 -86z" />
<glyph unicode="@" d="M1595 758q0 -313 -223 -537q-221 -221 -534 -221q-90 0 -156 65.5t-66 157.5v535q0 45 17.5 86t47.5 71.5t70 48t87 17.5h219q-45 43 -98.5 65.5t-120.5 22.5q-129 0 -222 -92q-90 -90 -90 -219v-535q0 -47 -17 -88t-47 -70.5t-71 -47t-88 -17.5q-90 0 -155.5 65.5 t-65.5 157.5v535q0 313 221 534q223 223 535 224q313 0 534 -224q223 -221 223 -534z" />
<glyph unicode="A" d="M1595 223q0 -47 -17 -87t-48 -70.5t-72 -48t-86 -17.5q-90 0 -155.5 65.5t-65.5 157.5v535q0 127 -92 219t-221 92t-222 -92q-90 -90 -90 -219v-535q0 -47 -17 -88t-47 -70.5t-71 -47t-88 -17.5q-90 0 -155.5 65.5t-65.5 157.5v535q0 313 221 534q223 223 535 224 q313 0 534 -224q223 -221 223 -534v-535zM1061 758q0 -47 -17.5 -87t-48 -71t-71.5 -48t-86 -17q-90 0 -156 65.5t-66 157.5q0 45 17.5 86t47.5 71.5t70 48t87 17.5q45 0 86 -17.5t71.5 -48t48 -71.5t17.5 -86z" />
<glyph unicode="B" d="M1595 758q0 -313 -223 -537q-221 -221 -534 -221q-90 0 -156 65.5t-66 157.5q0 45 17.5 86t47.5 72t70 48t87 17q78 0 145.5 36t110.5 100q-125 -47 -256 -47q-90 0 -156 65.5t-66 157.5q0 45 17.5 86t47.5 71.5t70 48t87 17.5q129 0 219 88h-219q-129 0 -222 -92 q-90 -90 -90 -219v-535q0 -47 -17 -88t-47 -70.5t-71 -47t-88 -17.5q-90 0 -155.5 65.5t-65.5 157.5v535q0 313 221 534q223 223 535 224h534q45 0 86 -17.5t72 -48.5t48 -72t17 -86q0 -98 -22.5 -184t-67.5 -172q90 -63 90 -178z" />
<glyph unicode="C" d="M1595 223q0 -47 -17 -87t-48 -70.5t-72 -48t-86 -17.5h-534q-313 0 -534.5 221t-221.5 537q0 313 221 534q223 223 535 224h534q45 0 86 -17.5t72 -48.5t48 -72t17 -86q0 -47 -17 -87t-48 -70.5t-72 -48t-86 -17.5h-534q-129 0 -222 -92q-90 -90 -90 -219q0 -127 90 -221 q94 -90 222 -91h534q45 0 86 -17t72 -48t48 -72t17 -86z" />
<glyph unicode="D" d="M1595 758q0 -313 -223 -537q-221 -221 -534 -221h-535q-90 0 -155.5 65.5t-65.5 157.5v535q0 45 17.5 86t47 71.5t69.5 48t87 17.5q45 0 86 -17.5t72 -48t48 -71.5t17 -86v-312h312q127 0 221 91q92 88 92 221q0 127 -92 219t-221 92h-535q-90 0 -155.5 65.5t-65.5 157.5 q0 45 17.5 86t47 72t69.5 48.5t87 17.5h535q313 0 534 -224q223 -221 223 -534z" />
<glyph unicode="E" d="M1595 223q0 -47 -17 -87t-48 -70.5t-72 -48t-86 -17.5h-534q-313 0 -534.5 221t-221.5 537q0 313 221 534q223 223 535 224h534q45 0 86 -17.5t72 -48.5t48 -72t17 -86q0 -47 -17 -87t-48 -70.5t-72 -48t-86 -17.5h-534q-129 0 -222 -92q-90 -90 -90 -219q0 -127 90 -221 q94 -90 222 -91h534q45 0 86 -17t72 -48t48 -72t17 -86zM1595 758q0 -47 -17 -87t-48 -71t-72 -48t-86 -17h-534q-90 0 -156 65.5t-66 157.5q0 45 17.5 86t47.5 71.5t70 48t87 17.5h534q45 0 86 -17.5t72 -48t48 -71.5t17 -86z" />
<glyph unicode="F" d="M526 223q0 -47 -17 -88t-47 -70.5t-71 -47t-88 -17.5q-90 0 -155.5 65.5t-65.5 157.5v535q0 313 221 534q223 223 535 224h534q45 0 86 -17.5t72 -48.5t48 -72t17 -86q0 -47 -17 -87t-48 -70.5t-72 -48t-86 -17.5h-534q-129 0 -222 -92q-90 -90 -90 -219v-535zM1595 758 q0 -47 -17 -87t-48 -71t-72 -48t-86 -17h-534q-90 0 -156 65.5t-66 157.5q0 45 17.5 86t47.5 71.5t70 48t87 17.5h534q45 0 86 -17.5t72 -48t48 -71.5t17 -86z" />
<glyph unicode="G" d="M1595 223q0 -47 -17 -87t-48 -70.5t-72 -48t-86 -17.5h-534q-313 0 -534.5 221t-221.5 537q0 313 221 534q223 223 535 224h534q45 0 86 -17.5t72 -48.5t48 -72t17 -86q0 -47 -17 -87t-48 -70.5t-72 -48t-86 -17.5h-534q-129 0 -222 -92q-90 -90 -90 -219q0 -127 90 -221 q94 -90 222 -91h313v89h-313q-90 0 -156 65.5t-66 157.5q0 45 17.5 86t47.5 71.5t70 48t87 17.5h534q45 0 86 -17.5t72 -48t48 -71.5t17 -86v-535z" />
<glyph unicode="H" d="M526 223q0 -47 -17 -88t-47 -70.5t-71 -47t-88 -17.5q-90 0 -155.5 65.5t-65.5 157.5v1069q0 45 17.5 86t47 72t69.5 48.5t87 17.5q45 0 86 -17.5t72 -48.5t48 -72t17 -86v-1069zM1595 223q0 -47 -17 -87t-48 -70.5t-72 -48t-86 -17.5q-90 0 -155.5 65.5t-65.5 157.5 v1069q0 45 17.5 86t47 72t69.5 48.5t87 17.5q45 0 86 -17.5t72 -48.5t48 -72t17 -86v-1069zM1061 758q0 -47 -17.5 -87t-48 -71t-71.5 -48t-86 -17q-90 0 -156 65.5t-66 157.5q0 45 17.5 86t47.5 71.5t70 48t87 17.5q45 0 86 -17.5t71.5 -48t48 -71.5t17.5 -86z" />
<glyph unicode="I" d="M1595 223q0 -47 -17 -87t-48 -70.5t-72 -48t-86 -17.5h-1069q-90 0 -155.5 65.5t-65.5 157.5q0 45 17.5 86t47 72t69.5 48t87 17h1069q45 0 86 -17t72 -48t48 -72t17 -86zM838 981q45 0 86 -17.5t71.5 -48t48 -71.5t17.5 -86q0 -47 -17.5 -87t-48 -71t-71.5 -48t-86 -17 q-90 0 -156 65.5t-66 157.5q0 45 17.5 86t47.5 71.5t70 48t87 17.5zM82 1292q0 45 17.5 86t47 72t69.5 48.5t87 17.5h1069q45 0 86 -17.5t72 -48.5t48 -72t17 -86q0 -47 -17 -87t-48 -70.5t-72 -48t-86 -17.5h-1069q-90 0 -155.5 65.5t-65.5 157.5z" />
<glyph unicode="J" d="M1595 758q0 -313 -223 -537q-221 -221 -534 -221t-534.5 221t-221.5 537q0 45 17.5 86t47 71.5t69.5 48t87 17.5q45 0 86 -17.5t72 -48t48 -71.5t17 -86q0 -127 90 -221q94 -90 222 -91q127 0 221 91q92 88 92 221v534q0 45 17.5 86t47 72t69.5 48.5t87 17.5 q45 0 86 -17.5t72 -48.5t48 -72t17 -86v-534z" />
<glyph unicode="K" d="M526 223q0 -47 -17 -88t-47 -70.5t-71 -47t-88 -17.5q-90 0 -155.5 65.5t-65.5 157.5v1069q0 45 17.5 86t47 72t69.5 48.5t87 17.5q45 0 86 -17.5t72 -48.5t48 -72t17 -86v-1069zM1595 223q0 -47 -17 -87t-48 -70.5t-72 -48t-86 -17.5q-90 0 -155.5 65.5t-65.5 157.5 q0 127 -92 219.5t-221 92.5q-90 0 -156 65.5t-66 157.5q0 309 222 534q221 223 534 224q45 0 86 -17.5t72 -48.5t48 -72t17 -86q0 -47 -17 -87t-48 -70.5t-72 -48t-86 -17.5q-82 0 -149.5 -37t-110.5 -104q219 -84 348 -275q135 -190 135 -430z" />
<glyph unicode="L" d="M1595 223q0 -47 -17 -87t-48 -70.5t-72 -48t-86 -17.5h-1069q-90 0 -155.5 65.5t-65.5 157.5v1069q0 45 17.5 86t47 72t69.5 48.5t87 17.5q45 0 86 -17.5t72 -48.5t48 -72t17 -86v-846h846q45 0 86 -17t72 -48t48 -72t17 -86z" />
<glyph unicode="M" d="M1595 223q0 -47 -17 -87t-48 -70.5t-72 -48t-86 -17.5q-90 0 -155.5 65.5t-65.5 157.5v535q0 127 -92 219t-221 92t-222 -92q-90 -90 -90 -219v-535q0 -47 -17 -88t-47 -70.5t-71 -47t-88 -17.5q-90 0 -155.5 65.5t-65.5 157.5v535q0 313 221 534q223 223 535 224 q313 0 534 -224q223 -221 223 -534v-535zM1061 223q0 -47 -17.5 -87t-48 -70.5t-71.5 -48t-86 -17.5q-90 0 -156 65.5t-66 157.5v535q0 45 17.5 86t47.5 71.5t70 48t87 17.5q45 0 86 -17.5t71.5 -48t48 -71.5t17.5 -86v-535z" />
<glyph unicode="N" d="M1595 223q0 -47 -17 -87t-48 -70.5t-72 -48t-86 -17.5q-313 0 -534.5 221t-221.5 537q0 127 -92 219t-221 92q-90 0 -155.5 65.5t-65.5 157.5q0 45 17.5 86t47 72t69.5 48.5t87 17.5q313 0 535 -224q223 -221 223 -534q0 -127 90 -221q94 -90 221 -91q45 0 86 -17t72 -48 t48 -72t17 -86zM526 223q0 -47 -17 -88t-47 -70.5t-71 -47t-88 -17.5q-90 0 -155.5 65.5t-65.5 157.5v535q0 45 17.5 86t47 71.5t69.5 48t87 17.5q45 0 86 -17.5t72 -48t48 -71.5t17 -86v-535zM1595 758q0 -47 -17 -87t-48 -71t-72 -48t-86 -17q-90 0 -155.5 65.5 t-65.5 157.5v534q0 45 17.5 86t47 72t69.5 48.5t87 17.5q45 0 86 -17.5t72 -48.5t48 -72t17 -86v-534z" />
<glyph unicode="O" d="M1595 758q0 -313 -223 -537q-221 -221 -534 -221t-534.5 221t-221.5 537q0 313 221 534q223 223 535 224q313 0 534 -224q223 -221 223 -534zM1151 758q0 127 -92 219t-221 92t-222 -92q-90 -90 -90 -219q0 -127 90 -221q94 -90 222 -91q127 0 221 91q92 88 92 221z" />
<glyph unicode="P" d="M1595 1292q0 -313 -223 -536q-221 -221 -534 -221q-90 0 -156 65.5t-66 157.5q0 45 17.5 86t47.5 71.5t70 48t87 17.5q129 0 219 88h-219q-129 0 -222 -92q-90 -90 -90 -219v-535q0 -47 -17 -88t-47 -70.5t-71 -47t-88 -17.5q-90 0 -155.5 65.5t-65.5 157.5v535 q0 313 221 534q223 223 535 224h534q45 0 86 -17.5t72 -48.5t48 -72t17 -86z" />
<glyph unicode="Q" d="M1595 223q0 -47 -17 -87t-48 -70.5t-72 -48t-86 -17.5q-111 0 -178 90q-164 -90 -356 -90q-313 0 -534.5 221t-221.5 537q0 313 221 534q223 223 535 224q313 0 534 -224q223 -221 223 -534q0 -98 -22.5 -184.5t-67.5 -172.5q90 -63 90 -178zM1151 758q0 127 -92 219 t-221 92t-222 -92q-90 -90 -90 -219q0 -127 90 -221q94 -90 222 -91q127 0 221 91q92 88 92 221z" />
<glyph unicode="R" d="M1374 758q104 -104 162.5 -242.5t58.5 -292.5q0 -47 -17 -87t-48 -70.5t-72 -48t-86 -17.5q-90 0 -155.5 65.5t-65.5 157.5q0 127 -92 219.5t-221 92.5q-90 0 -156 65.5t-66 157.5q0 45 17.5 86t47.5 71.5t70 48t87 17.5q129 0 219 88h-219q-129 0 -222 -92 q-90 -90 -90 -219v-535q0 -47 -17 -88t-47 -70.5t-71 -47t-88 -17.5q-90 0 -155.5 65.5t-65.5 157.5v535q0 313 221 534q223 223 535 224h534q45 0 86 -17.5t72 -48.5t48 -72t17 -86q0 -154 -58.5 -292t-162.5 -242z" />
<glyph unicode="S" d="M1595 223q0 -47 -17 -87t-48 -70.5t-72 -48t-86 -17.5q-90 0 -155.5 65.5t-65.5 157.5q0 127 -92 219.5t-221 92.5q-313 0 -534.5 221t-221.5 536q0 45 17.5 86t47 72t69.5 48.5t87 17.5q45 0 86 -17.5t72 -48.5t48 -72t17 -86q0 -127 90 -221q94 -90 222 -90 q313 0 534 -223q223 -222 223 -535zM616 1292q0 45 17.5 86t47.5 72t70 48.5t87 17.5h534q45 0 86 -17.5t72 -48.5t48 -72t17 -86q0 -47 -17 -87t-48 -70.5t-72 -48t-86 -17.5h-534q-90 0 -156 65.5t-66 157.5zM1061 223q0 -47 -17.5 -87t-48 -70.5t-71.5 -48t-86 -17.5 h-535q-90 0 -155.5 65.5t-65.5 157.5q0 45 17.5 86t47 72t69.5 48t87 17h535q45 0 86 -17t71.5 -48t48 -72t17.5 -86z" />
<glyph unicode="T" d="M1595 1292q0 -47 -17 -87t-48 -70.5t-72 -48t-86 -17.5h-311v-846q0 -47 -17.5 -87t-48 -70.5t-71.5 -48t-86 -17.5q-90 0 -156 65.5t-66 157.5v846h-313q-90 0 -155.5 65.5t-65.5 157.5q0 45 17.5 86t47 72t69.5 48.5t87 17.5h1069q45 0 86 -17.5t72 -48.5t48 -72 t17 -86z" />
<glyph unicode="U" d="M1595 758q0 -313 -223 -537q-221 -221 -534 -221t-534.5 221t-221.5 537v534q0 45 17.5 86t47 72t69.5 48.5t87 17.5q45 0 86 -17.5t72 -48.5t48 -72t17 -86v-534q0 -127 90 -221q94 -90 222 -91q127 0 221 91q92 88 92 221v534q0 45 17.5 86t47 72t69.5 48.5t87 17.5 q45 0 86 -17.5t72 -48.5t48 -72t17 -86v-534z" />
<glyph unicode="V" d="M1595 223q0 -47 -17 -87t-48 -70.5t-72 -48t-86 -17.5h-534q-313 0 -534.5 221t-221.5 537v534q0 45 17.5 86t47 72t69.5 48.5t87 17.5q45 0 86 -17.5t72 -48.5t48 -72t17 -86v-534q0 -127 90 -221q94 -90 222 -91h313v846q0 45 17.5 86t47 72t69.5 48.5t87 17.5 q45 0 86 -17.5t72 -48.5t48 -72t17 -86v-1069z" />
<glyph unicode="W" d="M1595 758q0 -313 -223 -537q-221 -221 -534 -221t-534.5 221t-221.5 537v534q0 45 17.5 86t47 72t69.5 48.5t87 17.5q45 0 86 -17.5t72 -48.5t48 -72t17 -86v-534q0 -127 90 -221q94 -90 222 -91q127 0 221 91q92 88 92 221v534q0 45 17.5 86t47 72t69.5 48.5t87 17.5 q45 0 86 -17.5t72 -48.5t48 -72t17 -86v-534zM616 1292q0 45 17.5 86t47.5 72t70 48.5t87 17.5q45 0 86 -17.5t71.5 -48.5t48 -72t17.5 -86v-534q0 -47 -17.5 -87t-48 -71t-71.5 -48t-86 -17q-90 0 -156 65.5t-66 157.5v534z" />
<glyph unicode="X" d="M1374 758q104 -104 162.5 -242.5t58.5 -292.5q0 -47 -17 -87t-48 -70.5t-72 -48t-86 -17.5q-90 0 -155.5 65.5t-65.5 157.5q0 127 -92 219.5t-221 92.5t-222 -93q-90 -90 -90 -219q0 -47 -17 -88t-47 -70.5t-71 -47t-88 -17.5q-90 0 -155.5 65.5t-65.5 157.5 q0 154 58.5 292t162.5 243q-104 104 -162.5 242.5t-58.5 291.5q0 45 17.5 86t47 72t69.5 48.5t87 17.5q45 0 86 -17.5t72 -48.5t48 -72t17 -86q0 -127 90 -221q94 -90 222 -90q127 0 221 90q92 88 92 221q0 45 17.5 86t47 72t69.5 48.5t87 17.5q45 0 86 -17.5t72 -48.5 t48 -72t17 -86q0 -154 -58.5 -292t-162.5 -242z" />
<glyph unicode="Y" d="M1061 223q0 -47 -17.5 -87t-48 -70.5t-71.5 -48t-86 -17.5q-90 0 -156 65.5t-66 157.5v346q-233 70 -385 271q-150 199 -149 452q0 45 17.5 86t47 72t69.5 48.5t87 17.5q45 0 86 -17.5t72 -48.5t48 -72t17 -86q0 -127 90 -221q94 -90 222 -90q127 0 221 90q92 88 92 221 q0 45 17.5 86t47 72t69.5 48.5t87 17.5q45 0 86 -17.5t72 -48.5t48 -72t17 -86q0 -250 -151 -450q-154 -203 -383 -273v-346z" />
<glyph unicode="Z" d="M1595 223q0 -47 -17 -87t-48 -70.5t-72 -48t-86 -17.5h-1069q-68 0 -123 37t-82 102q-16 37 -16 84q0 92 65 158l689 688h-533q-90 0 -155.5 65.5t-65.5 157.5q0 45 17.5 86t47 72t69.5 48.5t87 17.5h1069q70 0 125 -37t82 -103q16 -45 16 -84q0 -92 -65 -157l-688 -689 h530q45 0 86 -17t72 -48t48 -72t17 -86z" />
<glyph unicode="[" horiz-adv-x="1142" d="M1061 223q0 -47 -17.5 -87t-48 -70.5t-71.5 -48t-86 -17.5h-535q-90 0 -155.5 65.5t-65.5 157.5v1069q0 45 17.5 86t47 72t69.5 48.5t87 17.5h535q45 0 86 -17.5t71.5 -48.5t48 -72t17.5 -86q0 -47 -17.5 -87t-48 -70.5t-71.5 -48t-86 -17.5h-312v-623h312q45 0 86 -17 t71.5 -48t48 -72t17.5 -86z" />
<glyph unicode="\" d="M1530 66q-66 -66 -158 -66q-86 0 -158 66l-1067 1069q-66 66 -65 157q0 43 17.5 83t47 71t70.5 49t88 18q92 0 156 -63l1069 -1069q66 -66 65 -158q1 -91 -65 -157z" />
<glyph unicode="]" horiz-adv-x="1142" d="M1061 223q0 -47 -17.5 -87t-48 -70.5t-71.5 -48t-86 -17.5h-535q-90 0 -155.5 65.5t-65.5 157.5q0 45 17.5 86t47 72t69.5 48t87 17h313v623h-313q-90 0 -155.5 65.5t-65.5 157.5q0 45 17.5 86t47 72t69.5 48.5t87 17.5h535q45 0 86 -17.5t71.5 -48.5t48 -72t17.5 -86 v-1069z" />
<glyph unicode="^" horiz-adv-x="1142" d="M995 868q-66 -66 -157 -65q-45 0 -84 15.5t-74 49.5l-109 109l-110 -109q-31 -33 -72 -49t-84 -16q-94 0 -160 65q-63 63 -63 156q0 92 65 158l267 268q63 63 157 63t158 -63l266 -268q66 -66 66 -158q0 -90 -66 -156z" />
<glyph unicode="_" horiz-adv-x="1142" d="M1061 -43q0 -47 -17.5 -87t-48 -70.5t-71.5 -48t-86 -17.5h-535q-90 0 -155.5 65.5t-65.5 157.5q0 45 17.5 86t47 70.5t69.5 47t87 17.5h535q45 0 86 -17.5t71.5 -47t48 -69.5t17.5 -87z" />
<glyph unicode="`" horiz-adv-x="608" d="M526 1024q0 -90 -65.5 -155.5t-157.5 -65.5q-47 0 -87 17.5t-69.5 47t-47 69.5t-17.5 87v268q0 45 17.5 86t47 72t69.5 48.5t87 17.5q45 0 86 -17.5t72 -48.5t48 -72t17 -86v-268z" />
<glyph unicode="a" d="M1595 223q0 -47 -17 -87t-48 -70.5t-72 -48t-86 -17.5q-90 0 -155.5 65.5t-65.5 157.5v535q0 127 -92 219t-221 92t-222 -92q-90 -90 -90 -219q0 -127 90 -221q94 -90 222 -91q45 0 86 -17t71.5 -48t48 -72t17.5 -86q0 -47 -17.5 -87t-48 -70.5t-71.5 -48t-86 -17.5 q-313 0 -534.5 221t-221.5 537q0 313 221 534q223 223 535 224q313 0 534 -224q223 -221 223 -534v-535z" />
<glyph unicode="b" d="M1595 758q0 -313 -223 -537q-221 -221 -534 -221t-534.5 221t-221.5 537v801q0 45 17.5 86t47 71.5t69.5 48t87 17.5q45 0 86 -17.5t72 -48t48 -71.5t17 -86v-801q0 -127 90 -221q94 -90 222 -91q127 0 221 91q92 88 92 221q0 127 -92 219t-221 92q-90 0 -156 65.5 t-66 157.5q0 45 17.5 86t47.5 72t70 48.5t87 17.5q313 0 534 -224q223 -221 223 -534z" />
<glyph unicode="c" horiz-adv-x="1605" d="M1493 379q-102 -176 -276 -277q-176 -102 -377 -102q-313 0 -537 221q-221 223 -221 537q0 313 221 534q223 223 537 224q102 0 197.5 -26t179 -75t154.5 -119.5t122 -158.5q31 -53 31 -115q0 -127 -111 -191q-53 -31 -110 -30q-59 0 -111.5 29.5t-83.5 82.5 q-88 156 -268 156q-127 0 -222 -90q-92 -90 -92 -221q0 -127 92.5 -219.5t221.5 -92.5q86 0 155.5 41t112.5 115q63 113 195 113q45 0 84.5 -18.5t70.5 -49.5t48.5 -70.5t17.5 -84.5q0 -62 -31 -113z" />
<glyph unicode="d" d="M1595 758q0 -313 -223 -537q-221 -221 -534 -221t-534.5 221t-221.5 537q0 313 221 534q223 223 535 224q45 0 86 -17.5t71.5 -48.5t48 -72t17.5 -86q0 -47 -17.5 -87t-48 -70.5t-71.5 -48t-86 -17.5q-129 0 -222 -92q-90 -90 -90 -219q0 -127 90 -221q94 -90 222 -91 q127 0 221 91q92 88 92 221v801q0 45 17.5 86t47 71.5t69.5 48t87 17.5q45 0 86 -17.5t72 -48t48 -71.5t17 -86v-801z" />
<glyph unicode="e" d="M1595 223q0 -47 -17 -87t-48 -70.5t-72 -48t-86 -17.5h-534q-313 0 -534.5 221t-221.5 537q0 313 221 534q223 223 535 224h534q45 0 86 -17.5t72 -48.5t48 -72t17 -86q0 -47 -17 -87t-48 -70.5t-72 -48t-86 -17.5h-534q-129 0 -222 -92q-90 -90 -90 -219q0 -127 90 -221 q94 -90 222 -91h534q45 0 86 -17t72 -48t48 -72t17 -86zM838 981q45 0 86 -17.5t71.5 -48t48 -71.5t17.5 -86q0 -47 -17.5 -87t-48 -71t-71.5 -48t-86 -17q-90 0 -156 65.5t-66 157.5q0 45 17.5 86t47.5 71.5t70 48t87 17.5z" />
<glyph unicode="f" d="M1595 1292q0 -47 -17 -87t-48 -70.5t-72 -48t-86 -17.5h-534q-129 0 -222 -92q-90 -90 -90 -219v-535q0 -47 -17 -88t-47 -70.5t-71 -47t-88 -17.5q-90 0 -155.5 65.5t-65.5 157.5v535q0 313 221 534q223 223 535 224h534q45 0 86 -17.5t72 -48.5t48 -72t17 -86z M1061 758q0 -47 -17.5 -87t-48 -71t-71.5 -48t-86 -17q-90 0 -156 65.5t-66 157.5q0 45 17.5 86t47.5 71.5t70 48t87 17.5q45 0 86 -17.5t71.5 -48t48 -71.5t17.5 -86z" />
<glyph unicode="g" d="M1595 758q0 -313 -223 -537q-221 -221 -534 -221h-535q-90 0 -155.5 65.5t-65.5 157.5q0 45 17.5 86t47 72t69.5 48t87 17h535q127 0 221 91q92 88 92 221q0 127 -92 219t-221 92h-217q88 -88 217 -88q45 0 86 -17.5t71.5 -48t48 -71.5t17.5 -86q0 -47 -17.5 -87t-48 -71 t-71.5 -48t-86 -17q-313 0 -534.5 221t-221.5 536q0 45 17.5 86t47 72t69.5 48.5t87 17.5h535q313 0 534 -224q223 -221 223 -534z" />
<glyph unicode="h" d="M1595 223q0 -47 -17 -87t-48 -70.5t-72 -48t-86 -17.5q-90 0 -155.5 65.5t-65.5 157.5v312h-625v-312q0 -47 -17 -88t-47 -70.5t-71 -47t-88 -17.5q-90 0 -155.5 65.5t-65.5 157.5v1069q0 45 17.5 86t47 72t69.5 48.5t87 17.5q45 0 86 -17.5t72 -48.5t48 -72t17 -86v-311 h625v311q0 45 17.5 86t47 72t69.5 48.5t87 17.5q45 0 86 -17.5t72 -48.5t48 -72t17 -86v-1069z" />
<glyph unicode="i" d="M1595 223q0 -47 -17 -87t-48 -70.5t-72 -48t-86 -17.5h-1069q-90 0 -155.5 65.5t-65.5 157.5q0 45 17.5 86t47 72t69.5 48t87 17h313v623h-313q-90 0 -155.5 65.5t-65.5 157.5q0 45 17.5 86t47 72t69.5 48.5t87 17.5h1069q45 0 86 -17.5t72 -48.5t48 -72t17 -86 q0 -47 -17 -87t-48 -70.5t-72 -48t-86 -17.5h-311v-623h311q45 0 86 -17t72 -48t48 -72t17 -86z" />
<glyph unicode="j" d="M1595 758q0 -313 -223 -537q-221 -221 -534 -221t-534.5 221t-221.5 537q0 45 17.5 86t47 71.5t69.5 48t87 17.5q45 0 86 -17.5t72 -48t48 -71.5t17 -86q0 -127 90 -221q94 -90 222 -91q127 0 221 91q92 88 92 221q0 45 17.5 86t47 71.5t69.5 48t87 17.5q45 0 86 -17.5 t72 -48t48 -71.5t17 -86zM1151 1292q0 45 17.5 86t47 72t69.5 48.5t87 17.5q45 0 86 -17.5t72 -48.5t48 -72t17 -86q0 -47 -17 -87t-48 -70.5t-72 -48t-86 -17.5q-90 0 -155.5 65.5t-65.5 157.5z" />
<glyph unicode="k" d="M1595 223q0 -47 -17 -87t-48 -70.5t-72 -48t-86 -17.5q-313 0 -534.5 221t-221.5 537q0 45 17.5 86t47.5 71.5t70 48t87 17.5q127 0 221 90q92 88 92 221q0 45 17.5 86t47 72t69.5 48.5t87 17.5q45 0 86 -17.5t72 -48.5t48 -72t17 -86q0 -236 -133 -430 q-133 -193 -350 -274q43 -66 110.5 -104t149.5 -38q45 0 86 -17t72 -48t48 -72t17 -86zM526 223q0 -47 -17 -88t-47 -70.5t-71 -47t-88 -17.5q-90 0 -155.5 65.5t-65.5 157.5v1069q0 45 17.5 86t47 72t69.5 48.5t87 17.5q45 0 86 -17.5t72 -48.5t48 -72t17 -86v-1069z" />
<glyph unicode="l" d="M1595 223q0 -47 -17 -87t-48 -70.5t-72 -48t-86 -17.5h-534q-313 0 -534.5 221t-221.5 537v534q0 45 17.5 86t47 72t69.5 48.5t87 17.5q45 0 86 -17.5t72 -48.5t48 -72t17 -86v-534q0 -127 90 -221q94 -90 222 -91h534q45 0 86 -17t72 -48t48 -72t17 -86z" />
<glyph unicode="m" d="M1595 223q0 -47 -17 -87t-48 -70.5t-72 -48t-86 -17.5q-90 0 -155.5 65.5t-65.5 157.5v535q0 127 -92 219t-221 92t-222 -92q-90 -90 -90 -219v-535q0 -47 -17 -88t-47 -70.5t-71 -47t-88 -17.5q-90 0 -155.5 65.5t-65.5 157.5v535q0 313 221 534q223 223 535 224 q313 0 534 -224q223 -221 223 -534v-535zM1061 223q0 -47 -17.5 -87t-48 -70.5t-71.5 -48t-86 -17.5q-90 0 -156 65.5t-66 157.5v535q0 45 17.5 86t47.5 71.5t70 48t87 17.5q45 0 86 -17.5t71.5 -48t48 -71.5t17.5 -86v-535z" />
<glyph unicode="n" d="M1595 223q0 -47 -17 -87t-48 -70.5t-72 -48t-86 -17.5q-90 0 -155.5 65.5t-65.5 157.5v535q0 127 -92 219t-221 92t-222 -92q-90 -90 -90 -219v-535q0 -47 -17 -88t-47 -70.5t-71 -47t-88 -17.5q-90 0 -155.5 65.5t-65.5 157.5v535q0 313 221 534q223 223 535 224 q313 0 534 -224q223 -221 223 -534v-535z" />
<glyph unicode="o" d="M1595 758q0 -313 -223 -537q-221 -221 -534 -221t-534.5 221t-221.5 537q0 313 221 534q223 223 535 224q313 0 534 -224q223 -221 223 -534zM1151 758q0 127 -92 219t-221 92t-222 -92q-90 -90 -90 -219q0 -127 90 -221q94 -90 222 -91q127 0 221 91q92 88 92 221z" />
<glyph unicode="p" d="M1595 758q0 -313 -223 -537q-221 -221 -534 -221q-90 0 -156 65.5t-66 157.5q0 45 17.5 86t47.5 72t70 48t87 17q127 0 221 91q92 88 92 221q0 127 -92 219t-221 92t-222 -92q-90 -90 -90 -219v-801q0 -47 -17 -88t-47 -70.5t-71 -47t-88 -17.5q-90 0 -155.5 65.5 t-65.5 157.5v801q0 313 221 534q223 223 535 224q313 0 534 -224q223 -221 223 -534z" />
<glyph unicode="q" d="M1595 -43q0 -47 -17 -87t-48 -70.5t-72 -48t-86 -17.5q-90 0 -155.5 65.5t-65.5 157.5v801q0 127 -92 219t-221 92t-222 -92q-90 -90 -90 -219q0 -127 90 -221q94 -90 222 -91q45 0 86 -17t71.5 -48t48 -72t17.5 -86q0 -47 -17.5 -87t-48 -70.5t-71.5 -48t-86 -17.5 q-313 0 -534.5 221t-221.5 537q0 313 221 534q223 223 535 224q313 0 534 -224q223 -221 223 -534v-801z" />
<glyph unicode="r" d="M1595 1292q0 -47 -17 -87t-48 -70.5t-72 -48t-86 -17.5h-534q-129 0 -222 -92q-90 -90 -90 -219v-535q0 -47 -17 -88t-47 -70.5t-71 -47t-88 -17.5q-90 0 -155.5 65.5t-65.5 157.5v535q0 313 221 534q223 223 535 224h534q45 0 86 -17.5t72 -48.5t48 -72t17 -86z" />
<glyph unicode="s" d="M1595 758q0 -313 -223 -537q-221 -221 -534 -221h-535q-90 0 -155.5 65.5t-65.5 157.5q0 45 17.5 86t47 72t69.5 48t87 17h535q127 0 221 91q92 88 92 221q0 45 17.5 86t47 71.5t69.5 48t87 17.5q45 0 86 -17.5t72 -48t48 -71.5t17 -86zM82 758q0 313 221 534 q223 223 535 224h534q45 0 86 -17.5t72 -48.5t48 -72t17 -86q0 -47 -17 -87t-48 -70.5t-72 -48t-86 -17.5h-534q-129 0 -222 -92q-90 -90 -90 -219q0 -47 -17 -88t-47 -71t-71 -47t-88 -17q-90 0 -155.5 65.5t-65.5 157.5zM838 981q45 0 86 -17.5t71.5 -48t48 -71.5 t17.5 -86q0 -47 -17.5 -87t-48 -71t-71.5 -48t-86 -17q-90 0 -156 65.5t-66 157.5q0 45 17.5 86t47.5 71.5t70 48t87 17.5z" />
<glyph unicode="t" horiz-adv-x="1142" d="M1061 223q0 -47 -17.5 -87t-48 -70.5t-71.5 -48t-86 -17.5q-313 0 -534.5 221t-221.5 537v801q0 45 17.5 86t47 71.5t69.5 48t87 17.5q45 0 86 -17.5t72 -48t48 -71.5t17 -86v-801q0 -127 90 -221q94 -90 222 -91q45 0 86 -17t71.5 -48t48 -72t17.5 -86zM616 1292 q0 45 17.5 86t47.5 72t70 48.5t87 17.5q45 0 86 -17.5t71.5 -48.5t48 -72t17.5 -86q0 -47 -17.5 -87t-48 -70.5t-71.5 -48t-86 -17.5q-90 0 -156 65.5t-66 157.5z" />
<glyph unicode="u" d="M1595 758q0 -313 -223 -537q-221 -221 -534 -221t-534.5 221t-221.5 537v534q0 45 17.5 86t47 72t69.5 48.5t87 17.5q45 0 86 -17.5t72 -48.5t48 -72t17 -86v-534q0 -127 90 -221q94 -90 222 -91q127 0 221 91q92 88 92 221v534q0 45 17.5 86t47 72t69.5 48.5t87 17.5 q45 0 86 -17.5t72 -48.5t48 -72t17 -86v-534z" />
<glyph unicode="v" d="M1595 758q0 -313 -223 -537q-221 -221 -534 -221h-535q-90 0 -155.5 65.5t-65.5 157.5v1069q0 45 17.5 86t47 72t69.5 48.5t87 17.5q45 0 86 -17.5t72 -48.5t48 -72t17 -86v-846h312q127 0 221 91q92 88 92 221v534q0 45 17.5 86t47 72t69.5 48.5t87 17.5q45 0 86 -17.5 t72 -48.5t48 -72t17 -86v-534z" />
<glyph unicode="w" d="M1595 758q0 -313 -223 -537q-221 -221 -534 -221t-534.5 221t-221.5 537v534q0 45 17.5 86t47 72t69.5 48.5t87 17.5q45 0 86 -17.5t72 -48.5t48 -72t17 -86v-534q0 -127 90 -221q94 -90 222 -91q127 0 221 91q92 88 92 221v534q0 45 17.5 86t47 72t69.5 48.5t87 17.5 q45 0 86 -17.5t72 -48.5t48 -72t17 -86v-534zM616 1292q0 45 17.5 86t47.5 72t70 48.5t87 17.5q45 0 86 -17.5t71.5 -48.5t48 -72t17.5 -86v-534q0 -47 -17.5 -87t-48 -71t-71.5 -48t-86 -17q-90 0 -156 65.5t-66 157.5v534z" />
<glyph unicode="x" d="M1595 223q0 -47 -17 -87t-48 -70.5t-72 -48t-86 -17.5q-154 0 -289 57.5t-245 163.5q-106 -104 -242.5 -162.5t-292.5 -58.5q-90 0 -155.5 65.5t-65.5 157.5q0 45 17.5 86t47 72t69.5 48t87 17q127 0 221 91q92 88 92 221q0 127 -92 219t-221 92q-90 0 -155.5 65.5 t-65.5 157.5q0 45 17.5 86t47 72t69.5 48.5t87 17.5q154 0 289 -57.5t246 -164.5q106 104 242.5 163t291.5 59q45 0 86 -17.5t72 -48.5t48 -72t17 -86q0 -47 -17 -87t-48 -70.5t-72 -48t-86 -17.5q-129 0 -221 -92q-90 -90 -90 -219q0 -127 90 -221q94 -90 221 -91 q45 0 86 -17t72 -48t48 -72t17 -86z" />
<glyph unicode="y" d="M1595 758q0 -313 -223 -537q-221 -221 -534 -221h-535q-90 0 -155.5 65.5t-65.5 157.5q0 45 17.5 86t47 72t69.5 48t87 17h535q127 0 221 91q92 88 92 221v534q0 45 17.5 86t47 72t69.5 48.5t87 17.5q45 0 86 -17.5t72 -48.5t48 -72t17 -86v-534zM82 1292q0 45 17.5 86 t47 72t69.5 48.5t87 17.5q45 0 86 -17.5t72 -48.5t48 -72t17 -86q0 -127 90 -221q94 -90 222 -90q45 0 86 -17.5t71.5 -48t48 -71.5t17.5 -86q0 -47 -17.5 -87t-48 -71t-71.5 -48t-86 -17q-313 0 -534.5 221t-221.5 536z" />
<glyph unicode="z" d="M526 223q0 -47 -17 -88t-47 -70.5t-71 -47t-88 -17.5q-90 0 -155.5 65.5t-65.5 157.5q0 313 221 535q223 223 535 223q127 0 221 90q92 88 92 221q0 45 17.5 86t47 72t69.5 48.5t87 17.5q45 0 86 -17.5t72 -48.5t48 -72t17 -86q0 -313 -223 -536q-221 -221 -534 -221 q-129 0 -222 -93q-90 -90 -90 -219zM82 1292q0 45 17.5 86t47 72t69.5 48.5t87 17.5h535q45 0 86 -17.5t71.5 -48.5t48 -72t17.5 -86q0 -47 -17.5 -87t-48 -70.5t-71.5 -48t-86 -17.5h-535q-90 0 -155.5 65.5t-65.5 157.5zM1595 223q0 -47 -17 -87t-48 -70.5t-72 -48 t-86 -17.5h-534q-90 0 -156 65.5t-66 157.5q0 45 17.5 86t47.5 72t70 48t87 17h534q45 0 86 -17t72 -48t48 -72t17 -86z" />
<glyph unicode="{" horiz-adv-x="1411" d="M1329 223q0 -47 -17.5 -87t-48 -70.5t-71.5 -48t-86 -17.5q-258 0 -457 154q-201 154 -270 395q-37 -14 -74 -14q-47 0 -87 17t-70.5 48t-48 71t-17.5 87q0 45 17.5 86t48 71.5t70.5 48t87 17.5q29 0 74 -14q70 242 270 395q199 154 457 154q45 0 86 -17.5t71.5 -48.5 t48 -72t17.5 -86q0 -47 -17.5 -87t-48 -70.5t-71.5 -48t-86 -17.5q-129 0 -221 -92q-90 -90 -90 -219q0 -127 90 -221q94 -90 221 -91q45 0 86 -17t71.5 -48t48 -72t17.5 -86z" />
<glyph unicode="|" horiz-adv-x="608" d="M526 -43q0 -47 -17 -87t-48 -70.5t-72 -48t-86 -17.5q-90 0 -155.5 65.5t-65.5 157.5v1602q0 45 17.5 86t47 71.5t69.5 48t87 17.5q45 0 86 -17.5t72 -48t48 -71.5t17 -86v-1602z" />
<glyph unicode="}" horiz-adv-x="1411" d="M1329 758q0 -47 -17.5 -87t-48 -71t-71.5 -48t-86 -17q-29 0 -74 14q-70 -242 -270.5 -395.5t-456.5 -153.5q-47 0 -87 17.5t-70.5 48t-48 70.5t-17.5 87q0 45 17.5 86t48 72t70.5 48t87 17q129 0 219 91q92 92 92 221t-92 219q-90 92 -219 92q-47 0 -87 17.5t-70.5 48 t-48 70.5t-17.5 87q0 45 17.5 86t48 72t70.5 48.5t87 17.5q256 0 457 -154t270 -395q37 14 74 14q45 0 86 -17.5t71.5 -48t48 -71.5t17.5 -86z" />
<glyph unicode="~" d="M1595 1024q0 -313 -221 -534.5t-536 -221.5q-90 0 -156 65.5t-66 158.5v217q-43 -43 -66.5 -99.5t-23.5 -117.5q0 -47 -17 -88.5t-47 -71t-71 -47t-88 -17.5q-90 0 -155.5 65.5t-65.5 158.5q0 313 221 534t535 221q45 0 86 -17.5t71.5 -48t48 -71.5t17.5 -86v-217 q90 90 90 217q0 45 17.5 86t47 71.5t69.5 48t87 17.5q45 0 86 -17.5t72 -48t48 -71.5t17 -86z" />
<glyph unicode="&#xaa;" d="M1595 223q0 -47 -17 -87t-48 -70.5t-72 -48t-86 -17.5q-90 0 -155.5 65.5t-65.5 157.5v535q0 127 -92 219t-221 92t-222 -92q-90 -90 -90 -219q0 -127 90 -221q94 -90 222 -91q45 0 86 -17t71.5 -48t48 -72t17.5 -86q0 -47 -17.5 -87t-48 -70.5t-71.5 -48t-86 -17.5 q-313 0 -534.5 221t-221.5 537q0 313 221 534q223 223 535 224q313 0 534 -224q223 -221 223 -534v-535z" />
<glyph unicode="&#xad;" horiz-adv-x="1142" d="M1061 758q0 -47 -17.5 -87t-48 -71t-71.5 -48t-86 -17h-535q-90 0 -155.5 65.5t-65.5 157.5q0 45 17.5 86t47 71.5t69.5 48t87 17.5h535q45 0 86 -17.5t71.5 -48t48 -71.5t17.5 -86z" />
<glyph unicode="&#xb2;" d="M526 223q0 -47 -17 -88t-47 -70.5t-71 -47t-88 -17.5q-90 0 -155.5 65.5t-65.5 157.5q0 313 221 535q223 223 535 223h219q-45 43 -98.5 65.5t-120.5 22.5h-535q-90 0 -155.5 65.5t-65.5 157.5q0 45 17.5 86t47 72t69.5 48.5t87 17.5h535q313 0 534 -224 q223 -221 223 -534q0 -47 -17 -87t-48 -71t-72 -48t-86 -17h-534q-129 0 -222 -93q-90 -90 -90 -219zM1595 223q0 -47 -17 -87t-48 -70.5t-72 -48t-86 -17.5h-534q-90 0 -156 65.5t-66 157.5q0 45 17.5 86t47.5 72t70 48t87 17h534q45 0 86 -17t72 -48t48 -72t17 -86z" />
<glyph unicode="&#xb3;" d="M1595 758q0 -313 -223 -537q-221 -221 -534 -221h-535q-90 0 -155.5 65.5t-65.5 157.5q0 45 17.5 86t47 72t69.5 48t87 17h535q127 0 221 91q92 88 92 221q0 127 -92 219t-221 92h-535q-90 0 -155.5 65.5t-65.5 157.5q0 45 17.5 86t47 72t69.5 48.5t87 17.5h535 q313 0 534 -224q223 -221 223 -534zM82 758q0 45 17.5 86t47 71.5t69.5 48t87 17.5h535q45 0 86 -17.5t71.5 -48t48 -71.5t17.5 -86q0 -47 -17.5 -87t-48 -71t-71.5 -48t-86 -17h-535q-90 0 -155.5 65.5t-65.5 157.5z" />
<glyph unicode="&#xb9;" horiz-adv-x="608" d="M526 223q0 -47 -17 -87t-48 -70.5t-72 -48t-86 -17.5q-90 0 -155.5 65.5t-65.5 157.5v1069q0 45 17.5 86t47 72t69.5 48.5t87 17.5q45 0 86 -17.5t72 -48.5t48 -72t17 -86v-1069z" />
<glyph unicode="&#xba;" d="M1595 758q0 -313 -223 -537q-221 -221 -534 -221t-534.5 221t-221.5 537q0 313 221 534q223 223 535 224q313 0 534 -224q223 -221 223 -534zM1151 758q0 127 -92 219t-221 92t-222 -92q-90 -90 -90 -219q0 -127 90 -221q94 -90 222 -91q127 0 221 91q92 88 92 221z" />
<glyph unicode="&#xc0;" d="M1595 223q0 -47 -17 -87t-48 -70.5t-72 -48t-86 -17.5q-90 0 -155.5 65.5t-65.5 157.5v535q0 127 -92 219t-221 92t-222 -92q-90 -90 -90 -219v-535q0 -47 -17 -88t-47 -70.5t-71 -47t-88 -17.5q-90 0 -155.5 65.5t-65.5 157.5v535q0 313 221 534q223 223 535 224 q313 0 534 -224q223 -221 223 -534v-535zM1061 492q0 -47 -17.5 -87t-48 -71t-71.5 -48.5t-86 -17.5q-90 0 -156 65.5t-66 158.5q0 45 17.5 85.5t47.5 70.5t70 47.5t87 17.5q45 0 86 -17.5t71.5 -47.5t48 -69.5t17.5 -86.5z" />
<glyph unicode="&#xc1;" d="M1595 758q0 -313 -223 -537q-221 -221 -534 -221h-535q-90 0 -155.5 65.5t-65.5 157.5q0 313 221 535q223 223 535 223q45 0 86 -17.5t71.5 -48t48 -71.5t17.5 -86q0 -47 -17.5 -87t-48 -71t-71.5 -48t-86 -17q-129 0 -217 -89h217q127 0 221 91q92 88 92 221 q0 127 -92 219t-221 92h-535q-90 0 -155.5 65.5t-65.5 157.5q0 45 17.5 86t47 72t69.5 48.5t87 17.5h535q313 0 534 -224q223 -221 223 -534z" />
<glyph unicode="&#xc2;" d="M1595 758q0 -313 -223 -537q-221 -221 -534 -221t-534.5 221t-221.5 537q0 45 17.5 86t47 71.5t69.5 48t87 17.5h535q45 0 86 -17.5t71.5 -48t48 -71.5t17.5 -86q0 -47 -17.5 -87t-48 -71t-71.5 -48t-86 -17h-217q88 -88 217 -89q127 0 221 91q92 88 92 221 q0 127 -92 219t-221 92h-535q-90 0 -155.5 65.5t-65.5 157.5q0 45 17.5 86t47 72t69.5 48.5t87 17.5h535q313 0 534 -224q223 -221 223 -534z" />
<glyph unicode="&#xc3;" d="M1595 223q0 -47 -17 -87t-48 -70.5t-72 -48t-86 -17.5h-534q-313 0 -534.5 221t-221.5 537q0 313 221 534q223 223 535 224q313 0 534 -224q223 -221 223 -534q0 -47 -17 -87t-48 -71t-72 -48t-86 -17q-90 0 -155.5 65.5t-65.5 157.5q0 127 -92 219t-221 92t-222 -92 q-90 -90 -90 -219q0 -127 90 -221q94 -90 222 -91h534q45 0 86 -17t72 -48t48 -72t17 -86z" />
<glyph unicode="&#xc4;" d="M1374 758q104 -104 162.5 -242.5t58.5 -292.5q0 -47 -17 -87t-48 -70.5t-72 -48t-86 -17.5h-534q-90 0 -156 65.5t-66 157.5q0 45 17.5 86t47.5 72t70 48t87 17h219q-45 43 -98.5 66t-120.5 23q-90 0 -156 65.5t-66 157.5q0 45 17.5 86t47.5 71.5t70 48t87 17.5 q129 0 219 88h-219q-129 0 -222 -92q-90 -90 -90 -219v-535q0 -47 -17 -88t-47 -70.5t-71 -47t-88 -17.5q-90 0 -155.5 65.5t-65.5 157.5v535q0 313 221 534q223 223 535 224h534q45 0 86 -17.5t72 -48.5t48 -72t17 -86q0 -154 -58.5 -292t-162.5 -242z" />
<glyph unicode="&#xc5;" d="M1505 580q90 -170 90 -357q0 -47 -17 -87t-48 -70.5t-72 -48t-86 -17.5h-534q-90 0 -156 65.5t-66 157.5q0 45 17.5 86t47.5 72t70 48t87 17h219q-45 43 -98.5 66t-120.5 23q-90 0 -156 65.5t-66 157.5q0 45 17.5 86t47.5 71.5t70 48t87 17.5q131 0 256 -47 q-43 63 -109.5 99t-146.5 36q-129 0 -222 -92q-90 -90 -90 -219v-535q0 -47 -17 -88t-47 -70.5t-71 -47t-88 -17.5q-90 0 -155.5 65.5t-65.5 157.5v535q0 313 221 534q223 223 535 224q313 0 534 -224q223 -221 223 -534q0 -53 -24.5 -100t-65.5 -78z" />
<glyph unicode="&#xc6;" horiz-adv-x="2746" d="M1061 758q0 -47 -17.5 -87t-48 -71t-71.5 -48t-86 -17q-90 0 -156 65.5t-66 157.5q0 45 17.5 86t47.5 71.5t70 48t87 17.5q45 0 86 -17.5t71.5 -48t48 -71.5t17.5 -86zM2664 223q0 -47 -17 -87t-48 -70.5t-72 -48t-86 -17.5h-534q-313 0 -534.5 221t-221.5 537 q0 127 -92 219t-221 92t-222 -92q-90 -90 -90 -219v-535q0 -47 -17 -87t-47 -70.5t-70 -48t-87 -17.5t-87 17.5t-70.5 48t-48 70.5t-17.5 87v535q0 313 221 534q223 223 535 224q154 0 289 -57.5t245 -164.5q106 104 242.5 163t292.5 59h534q45 0 86 -17.5t72 -48.5t48 -72 t17 -86q0 -47 -17 -87t-48 -70.5t-72 -48t-86 -17.5h-534q-129 0 -221 -92q-90 -90 -91 -219q0 -127 91 -221q94 -90 221 -91h534q45 0 86 -17t72 -48t48 -72t17 -86zM2664 758q0 -47 -17 -87t-48 -71t-72 -48t-86 -17h-534q-47 0 -87 17t-71 48t-48.5 71t-17.5 87 q0 45 17.5 86t48.5 71.5t71 48t87 17.5h534q45 0 86 -17.5t72 -48t48 -71.5t17 -86z" />
<glyph unicode="&#xc7;" d="M1595 758q0 -313 -223 -537q-221 -221 -534 -221q-90 0 -156 65.5t-66 157.5q0 45 17.5 86t47.5 72t70 48t87 17q127 0 221 91q92 88 92 221q0 127 -92 219t-221 92h-312v-846q0 -47 -17 -88t-47 -70.5t-71 -47t-88 -17.5q-90 0 -155.5 65.5t-65.5 157.5v1069 q0 45 17.5 86t47 72t69.5 48.5t87 17.5h535q313 0 534 -224q223 -221 223 -534z" />
<glyph unicode="&#xc8;" d="M1595 758q0 -313 -223 -537q-221 -221 -534 -221h-535q-90 0 -155.5 65.5t-65.5 157.5q0 45 17.5 86t47 72t69.5 48t87 17h535q127 0 221 91q92 88 92 221q0 127 -92 219t-221 92h-312v-311q0 -47 -17 -88t-47 -71t-71 -47t-88 -17q-90 0 -155.5 65.5t-65.5 157.5v534 q0 45 17.5 86t47 72t69.5 48.5t87 17.5h535q313 0 534 -224q223 -221 223 -534z" />
<glyph unicode="&#xc9;" horiz-adv-x="1605" d="M1493 379q-102 -176 -276 -277q-176 -102 -377 -102q-313 0 -537 221q-221 223 -221 537q0 313 221 534q223 223 537 224q102 0 197.5 -26t179 -75t154.5 -119.5t122 -158.5q31 -53 31 -115q0 -127 -111 -191q-53 -31 -110 -30q-59 0 -111.5 29.5t-83.5 82.5 q-88 156 -268 156q-127 0 -222 -90q-92 -90 -92 -221q0 -127 92.5 -219.5t221.5 -92.5q86 0 155.5 41t112.5 115q63 113 195 113q45 0 84.5 -18.5t70.5 -49.5t48.5 -70.5t17.5 -84.5q0 -62 -31 -113zM1061 758q0 -47 -17.5 -87t-47 -71t-69.5 -48t-87 -17t-87 17t-71 48 t-48.5 71t-17.5 87q0 45 17.5 86t48.5 71.5t71 48t87 17.5q90 0 155.5 -65.5t65.5 -157.5z" />
<glyph unicode="&#xca;" d="M1595 223q0 -47 -17 -87t-48 -70.5t-72 -48t-86 -17.5h-534q-313 0 -534.5 221t-221.5 537q0 313 221 534q223 223 535 224q313 0 534 -224q223 -221 223 -534q0 -47 -17 -87t-48 -71t-72 -48t-86 -17h-534q-90 0 -156 65.5t-66 157.5q0 45 17.5 86t47.5 71.5t70 48 t87 17.5h219q-45 43 -98.5 65.5t-120.5 22.5q-129 0 -222 -92q-90 -90 -90 -219q0 -127 90 -221q94 -90 222 -91h534q45 0 86 -17t72 -48t48 -72t17 -86z" />
<glyph unicode="&#xcb;" d="M1595 223q0 -47 -17 -87t-48 -70.5t-72 -48t-86 -17.5h-534q-313 0 -534.5 221t-221.5 537q0 313 221 534q223 223 535 224h534q45 0 86 -17.5t72 -48.5t48 -72t17 -86q0 -313 -223 -536q-221 -221 -534 -221q-90 0 -156 65.5t-66 157.5q0 45 17.5 86t47.5 71.5t70 48 t87 17.5q129 0 219 88h-219q-129 0 -222 -92q-90 -90 -90 -219q0 -127 90 -221q94 -90 222 -91h534q45 0 86 -17t72 -48t48 -72t17 -86z" />
<glyph unicode="&#xcc;" d="M1595 758q0 -47 -17 -87t-48 -71t-72 -48t-86 -17q-90 0 -155.5 65.5t-65.5 157.5q0 127 -92 219t-221 92t-222 -92q-90 -90 -90 -219v-535q0 -47 -17 -88t-47 -70.5t-71 -47t-88 -17.5q-90 0 -155.5 65.5t-65.5 157.5v535q0 313 221 534q223 223 535 224q313 0 534 -224 q223 -221 223 -534zM1061 758q0 -47 -17.5 -87t-48 -71t-71.5 -48t-86 -17q-90 0 -156 65.5t-66 157.5q0 45 17.5 86t47.5 71.5t70 48t87 17.5q45 0 86 -17.5t71.5 -48t48 -71.5t17.5 -86z" />
<glyph unicode="&#xcd;" d="M1595 758q0 -313 -223 -537q-221 -221 -534 -221t-534.5 221t-221.5 537q0 313 221 534q223 223 535 224h534q45 0 86 -17.5t72 -48.5t48 -72t17 -86q0 -47 -17 -87t-48 -70.5t-72 -48t-86 -17.5h-534q-129 0 -222 -92q-90 -90 -90 -219q0 -127 90 -221q94 -90 222 -91 q129 0 219 89h-219q-90 0 -156 65.5t-66 157.5q0 45 17.5 86t47.5 71.5t70 48t87 17.5h534q45 0 86 -17.5t72 -48t48 -71.5t17 -86z" />
<glyph unicode="&#xce;" d="M1595 223q0 -47 -17 -87t-48 -70.5t-72 -48t-86 -17.5h-534q-313 0 -534.5 221t-221.5 537q0 313 221 534q223 223 535 224h534q45 0 86 -17.5t72 -48.5t48 -72t17 -86q0 -47 -17 -87t-48 -70.5t-72 -48t-86 -17.5h-534q-129 0 -222 -92q-90 -90 -90 -219q0 -127 90 -221 q94 -90 222 -91h219q-45 43 -98.5 66t-120.5 23q-90 0 -156 65.5t-66 157.5q0 45 17.5 86t47.5 71.5t70 48t87 17.5q313 0 534 -223q223 -222 223 -535z" />
<glyph unicode="&#xcf;" d="M1595 758q0 -313 -223 -537q-221 -221 -534 -221h-535q-90 0 -155.5 65.5t-65.5 157.5q0 45 17.5 86t47 72t69.5 48t87 17h535q127 0 221 91q92 88 92 221q0 127 -92 219t-221 92t-217 -88h217q45 0 86 -17.5t71.5 -48t48 -71.5t17.5 -86q0 -47 -17.5 -87t-48 -71 t-71.5 -48t-86 -17h-535q-90 0 -155.5 65.5t-65.5 157.5q0 313 221 534q223 223 535 224q313 0 534 -224q223 -221 223 -534z" />
<glyph unicode="&#xd0;" horiz-adv-x="608" d="M526 223q0 -47 -17 -87t-48 -70.5t-72 -48t-86 -17.5q-90 0 -155.5 65.5t-65.5 157.5v535q0 45 17.5 86t47 71.5t69.5 48t87 17.5q45 0 86 -17.5t72 -48t48 -71.5t17 -86v-535zM82 1292q0 45 17.5 86t47 72t69.5 48.5t87 17.5q45 0 86 -17.5t72 -48.5t48 -72t17 -86 q0 -47 -17 -87t-48 -70.5t-72 -48t-86 -17.5q-90 0 -155.5 65.5t-65.5 157.5z" />
<glyph unicode="&#xd1;" horiz-adv-x="608" d="M526 -43q0 -47 -17 -87t-48 -70.5t-72 -48t-86 -17.5q-90 0 -155.5 65.5t-65.5 157.5v801q0 45 17.5 86t47 71.5t69.5 48t87 17.5q45 0 86 -17.5t72 -48t48 -71.5t17 -86v-801zM82 1292q0 45 17.5 86t47 72t69.5 48.5t87 17.5q45 0 86 -17.5t72 -48.5t48 -72t17 -86 q0 -47 -17 -87t-48 -70.5t-72 -48t-86 -17.5q-90 0 -155.5 65.5t-65.5 157.5z" />
<glyph unicode="&#xd2;" horiz-adv-x="1142" d="M1061 758q0 -313 -223 -537q-221 -221 -535 -221q-90 0 -155.5 65.5t-65.5 157.5q0 45 17.5 86t47 72t69.5 48t87 17q127 0 221 91q92 88 92 221q0 45 17.5 86t47.5 71.5t70 48t87 17.5q45 0 86 -17.5t71.5 -48t48 -71.5t17.5 -86zM616 1292q0 45 17.5 86t47.5 72 t70 48.5t87 17.5q45 0 86 -17.5t71.5 -48.5t48 -72t17.5 -86q0 -47 -17.5 -87t-48 -70.5t-71.5 -48t-86 -17.5q-90 0 -156 65.5t-66 157.5z" />
<glyph unicode="&#xd3;" d="M526 223q0 -47 -17 -88t-47 -70.5t-71 -47t-88 -17.5q-90 0 -155.5 65.5t-65.5 157.5v1069q0 45 17.5 86t47 72t69.5 48.5t87 17.5q45 0 86 -17.5t72 -48.5t48 -72t17 -86v-1069zM1530 381q66 -66 65 -158q0 -47 -17 -88t-48 -70.5t-72 -47t-86 -17.5q-86 0 -158 66 l-534 534q-63 63 -64 158q0 94 64 157l534 535q63 63 158 63q47 0 88 -17t71 -47t47 -71t17 -86q0 -92 -65 -157l-377 -377z" />
<glyph unicode="&#xd4;" d="M526 223q0 -47 -17 -88t-47 -70.5t-71 -47t-88 -17.5q-90 0 -155.5 65.5t-65.5 157.5v1069q0 45 17.5 86t47 72t69.5 48.5t87 17.5q45 0 86 -17.5t72 -48.5t48 -72t17 -86v-1069zM1595 223q0 -47 -17 -87t-48 -70.5t-72 -48t-86 -17.5q-313 0 -534.5 221t-221.5 537 q0 309 222 534q221 223 534 224q45 0 86 -17.5t72 -48.5t48 -72t17 -86q0 -47 -17 -87t-48 -70.5t-72 -48t-86 -17.5q-129 0 -221 -92q-90 -90 -90 -219q0 -127 90 -221q94 -90 221 -91q45 0 86 -17t72 -48t48 -72t17 -86z" />
<glyph unicode="&#xd5;" d="M526 223q0 -47 -17 -88t-47 -70.5t-71 -47t-88 -17.5q-90 0 -155.5 65.5t-65.5 157.5v1069q0 45 17.5 86t47 72t69.5 48.5t87 17.5q45 0 86 -17.5t72 -48.5t48 -72t17 -86v-1069zM1374 758q104 -104 162.5 -242.5t58.5 -292.5q0 -47 -17 -87t-48 -70.5t-72 -48t-86 -17.5 q-90 0 -155.5 65.5t-65.5 157.5q0 127 -92 219.5t-221 92.5q-90 0 -156 65.5t-66 157.5q0 45 17.5 86t47.5 71.5t70 48t87 17.5q127 0 221 90q92 88 92 221q0 45 17.5 86t47 72t69.5 48.5t87 17.5q45 0 86 -17.5t72 -48.5t48 -72t17 -86q0 -154 -58.5 -292t-162.5 -242z" />
<glyph unicode="&#xd6;" d="M1595 223q0 -68 -36.5 -123t-100.5 -82q-43 -16 -86 -16q-94 0 -158 64l-688 688v-531q0 -47 -17 -88t-47 -70.5t-71 -47t-88 -17.5q-90 0 -155.5 65.5t-65.5 157.5v1069q0 68 37 123t100 82q37 16 86 16q92 0 156 -63l690 -688v530q0 45 17.5 86t47 72t69.5 48.5 t87 17.5q45 0 86 -17.5t72 -48.5t48 -72t17 -86v-1069z" />
<glyph unicode="&#xd7;" d="M1047 31q14 -37 14 -74q0 -47 -17.5 -87t-48 -70.5t-71.5 -48t-86 -17.5q-90 0 -156 65.5t-66 157.5q0 39 13 74q-236 68 -393 268q-154 203 -154 459q0 313 221 534q223 223 535 224q313 0 534 -224q223 -221 223 -534q0 -258 -155 -459q-153 -200 -393 -268zM1151 758 q0 127 -92 219t-221 92t-222 -92q-90 -90 -90 -219q0 -127 90 -221q94 -90 222 -91q127 0 221 91q92 88 92 221z" />
<glyph unicode="&#xd8;" d="M1595 223q0 -47 -17 -87t-48 -70.5t-72 -48t-86 -17.5q-313 0 -534.5 221t-221.5 537q0 45 17.5 86t47.5 71.5t70 48t87 17.5q129 0 219 88h-219q-129 0 -222 -92q-90 -90 -90 -219v-535q0 -47 -17 -88t-47 -70.5t-71 -47t-88 -17.5q-90 0 -155.5 65.5t-65.5 157.5v535 q0 313 221 534q223 223 535 224h534q45 0 86 -17.5t72 -48.5t48 -72t17 -86q0 -236 -133 -430q-133 -193 -350 -274q43 -66 110.5 -104t149.5 -38q45 0 86 -17t72 -48t48 -72t17 -86z" />
<glyph unicode="&#xd9;" d="M1505 580q90 -170 90 -357q0 -47 -17 -87t-48 -70.5t-72 -48t-86 -17.5q-90 0 -155.5 65.5t-65.5 157.5q0 127 -92 219.5t-221 92.5q-90 0 -156 65.5t-66 157.5q0 45 17.5 86t47.5 71.5t70 48t87 17.5q131 0 256 -47q-43 63 -109.5 99t-146.5 36q-129 0 -222 -92 q-90 -90 -90 -219v-535q0 -47 -17 -88t-47 -70.5t-71 -47t-88 -17.5q-90 0 -155.5 65.5t-65.5 157.5v535q0 313 221 534q223 223 535 224q313 0 534 -224q223 -221 223 -534q0 -53 -24.5 -100t-65.5 -78z" />
<glyph unicode="&#xda;" d="M1595 758q0 -47 -17 -87t-48 -71t-72 -48t-86 -17q-90 0 -155.5 65.5t-65.5 157.5q0 127 -92 219t-221 92t-222 -92q-90 -90 -90 -219v-535q0 -47 -17 -88t-47 -70.5t-71 -47t-88 -17.5q-90 0 -155.5 65.5t-65.5 157.5v535q0 313 221 534q223 223 535 224q313 0 534 -224 q223 -221 223 -534z" />
<glyph unicode="&#xdb;" d="M1595 758q0 -313 -223 -537q-221 -221 -534 -221h-535q-90 0 -155.5 65.5t-65.5 157.5q0 45 17.5 86t47 72t69.5 48t87 17h535q129 0 219 89h-754q-90 0 -155.5 65.5t-65.5 157.5q0 313 221 534q223 223 535 224h534q45 0 86 -17.5t72 -48.5t48 -72t17 -86q0 -47 -17 -87 t-48 -70.5t-72 -48t-86 -17.5h-534q-129 0 -217 -88h751q45 0 86 -17.5t72 -48t48 -71.5t17 -86z" />
<glyph unicode="&#xdc;" horiz-adv-x="1142" d="M1061 223q0 -47 -17.5 -87t-48 -70.5t-71.5 -48t-86 -17.5q-313 0 -534.5 221t-221.5 537v534q0 45 17.5 86t47 72t69.5 48.5t87 17.5q45 0 86 -17.5t72 -48.5t48 -72t17 -86v-534q0 -127 90 -221q94 -90 222 -91q45 0 86 -17t71.5 -48t48 -72t17.5 -86zM616 1024 q0 45 17.5 86t47.5 71.5t70 48t87 17.5q45 0 86 -17.5t71.5 -48t48 -71.5t17.5 -86q0 -90 -65.5 -155.5t-157.5 -65.5q-47 0 -87 17.5t-70 47t-47.5 69.5t-17.5 87z" />
<glyph unicode="&#xdd;" d="M1595 758q0 -313 -223 -537q-221 -221 -534 -221t-534.5 221t-221.5 537v801q0 45 17.5 86t47 71.5t69.5 48t87 17.5q45 0 86 -17.5t72 -48t48 -71.5t17 -86v-801q0 -127 90 -221q94 -90 222 -91q127 0 221 91q92 88 92 221q0 45 17.5 86t47 71.5t69.5 48t87 17.5 q45 0 86 -17.5t72 -48t48 -71.5t17 -86zM616 1292q0 45 17.5 86t47.5 72t70 48.5t87 17.5q45 0 86 -17.5t71.5 -48.5t48 -72t17.5 -86q0 -47 -17.5 -87t-48 -70.5t-71.5 -48t-86 -17.5q-90 0 -156 65.5t-66 157.5z" />
<glyph unicode="&#xde;" d="M1595 758q0 -313 -223 -537q-221 -221 -534 -221t-534.5 221t-221.5 537v534q0 45 17.5 86t47 72t69.5 48.5t87 17.5q45 0 86 -17.5t72 -48.5t48 -72t17 -86v-534q0 -127 90 -221q94 -90 222 -91q127 0 221 91q92 88 92 221q0 45 17.5 86t47 71.5t69.5 48t87 17.5 q45 0 86 -17.5t72 -48t48 -71.5t17 -86zM616 1024q0 45 17.5 86t47.5 71.5t70 48t87 17.5q45 0 86 -17.5t71.5 -48t48 -71.5t17.5 -86q0 -90 -65.5 -155.5t-157.5 -65.5q-47 0 -87 17.5t-70 47t-47.5 69.5t-17.5 87z" />
<glyph unicode="&#xdf;" horiz-adv-x="1681" d="M1042 125q-63 -125 -200 -125q-135 0 -199 125l-534 1067q-25 49 -25 100q-2 47 19.5 89t54 73t73.5 47.5t78 14.5q61 0 115.5 -34t83.5 -91l334 -670l336 670q29 59 83 92t117 33q49 0 99 -25q123 -61 122 -199q0 -51 -24 -100z" />
<glyph unicode="&#xe0;" d="M1530 381q66 -66 65 -158q0 -47 -17 -88t-48 -70.5t-72 -47t-86 -17.5q-86 0 -158 66l-376 376l-377 -376q-66 -66 -156 -66q-47 0 -87 17.5t-70.5 48t-48 70.5t-17.5 87q0 92 65 158l377 377l-377 377q-66 66 -65 157q0 43 17.5 83t47 71t70.5 49t88 18q92 0 156 -63 l377 -377l376 377q63 63 158 63q47 0 88 -17t71 -47t47 -71t17 -86q0 -92 -65 -157l-377 -377z" />
<glyph unicode="&#xe1;" d="M1595 223q0 -47 -17 -87t-48 -70.5t-72 -48t-86 -17.5q-90 0 -155.5 65.5t-65.5 157.5q0 127 -92 219.5t-221 92.5q-313 0 -534.5 221t-221.5 536q0 45 17.5 86t47 72t69.5 48.5t87 17.5q45 0 86 -17.5t72 -48.5t48 -72t17 -86q0 -127 90 -221q94 -90 222 -90 q313 0 534 -223q223 -222 223 -535zM1151 1292q0 45 17.5 86t47 72t69.5 48.5t87 17.5q45 0 86 -17.5t72 -48.5t48 -72t17 -86q0 -47 -17 -87t-48 -70.5t-72 -48t-86 -17.5q-90 0 -155.5 65.5t-65.5 157.5zM526 223q0 -47 -17 -88t-47 -70.5t-71 -47t-88 -17.5 q-90 0 -155.5 65.5t-65.5 157.5q0 45 17.5 86t47 72t69.5 48t87 17q45 0 86 -17t72 -48t48 -72t17 -86z" />
<glyph unicode="&#xe2;" d="M838 535q-129 0 -222 -93q-90 -90 -90 -219q0 -47 -17 -88t-47 -70.5t-71 -47t-88 -17.5q-90 0 -155.5 65.5t-65.5 157.5q0 313 221 535q223 223 535 223q127 0 221 90q92 88 92 221q0 45 17.5 86t47 72t69.5 48.5t87 17.5q45 0 86 -17.5t72 -48.5t48 -72t17 -86 q0 -313 -223 -536q-221 -221 -534 -221zM82 1292q0 45 17.5 86t47 72t69.5 48.5t87 17.5q45 0 86 -17.5t72 -48.5t48 -72t17 -86q0 -47 -17 -88t-47 -70.5t-71 -47t-88 -17.5q-90 0 -155.5 65.5t-65.5 157.5zM1595 223q0 -47 -17 -87t-48 -70.5t-72 -48t-86 -17.5 q-90 0 -155.5 65.5t-65.5 157.5q0 45 17.5 86t47 72t69.5 48t87 17q45 0 86 -17t72 -48t48 -72t17 -86z" />
<glyph unicode="&#xe3;" d="M1595 1292q0 -313 -223 -536q-221 -221 -534 -221t-534.5 221t-221.5 536q0 45 17.5 86t47 72t69.5 48.5t87 17.5q45 0 86 -17.5t72 -48.5t48 -72t17 -86q0 -127 90 -221q94 -90 222 -90q127 0 221 90q92 88 92 221q0 45 17.5 86t47 72t69.5 48.5t87 17.5q45 0 86 -17.5 t72 -48.5t48 -72t17 -86zM1061 223q0 -47 -17.5 -87t-48 -70.5t-71.5 -48t-86 -17.5q-90 0 -156 65.5t-66 157.5q0 45 17.5 86t47.5 72t70 48t87 17q45 0 86 -17t71.5 -48t48 -72t17.5 -86z" />
<glyph unicode="&#xe4;" d="M1061 758q0 -47 -17.5 -87t-48 -71t-71.5 -48t-86 -17q-90 0 -156 65.5t-66 157.5q0 45 17.5 86t47.5 71.5t70 48t87 17.5q45 0 86 -17.5t71.5 -48t48 -71.5t17.5 -86zM82 1292q0 45 17.5 86t47 72t69.5 48.5t87 17.5h535q313 0 534 -224q223 -221 223 -534 q0 -47 -17 -87t-48 -71t-72 -48t-86 -17q-90 0 -155.5 65.5t-65.5 157.5q0 127 -92 219t-221 92h-535q-90 0 -155.5 65.5t-65.5 157.5zM1595 223q0 -47 -17 -87t-48 -70.5t-72 -48t-86 -17.5h-534q-313 0 -534.5 221t-221.5 537q0 45 17.5 86t47 71.5t69.5 48t87 17.5 q45 0 86 -17.5t72 -48t48 -71.5t17 -86q0 -127 90 -221q94 -90 222 -91h534q45 0 86 -17t72 -48t48 -72t17 -86z" />
<glyph unicode="&#xe5;" d="M1595 223q0 -47 -17 -87t-48 -70.5t-72 -48t-86 -17.5h-534q-313 0 -534.5 221t-221.5 537q0 45 17.5 86t47 71.5t69.5 48t87 17.5h754q-45 43 -98.5 65.5t-120.5 22.5h-535q-90 0 -155.5 65.5t-65.5 157.5q0 45 17.5 86t47 72t69.5 48.5t87 17.5h535q313 0 534 -224 q223 -221 223 -534q0 -47 -17 -87t-48 -71t-72 -48t-86 -17h-751q88 -88 217 -89h534q45 0 86 -17t72 -48t48 -72t17 -86z" />
<glyph unicode="&#xe6;" horiz-adv-x="2746" d="M2664 223q0 -47 -17 -87t-48 -70.5t-72 -48t-86 -17.5h-534q-313 0 -534.5 221t-221.5 537q0 127 -92 219t-221 92t-222 -92q-90 -90 -90 -219q0 -127 92.5 -219.5t219.5 -92.5q45 0 86 -17t71.5 -48t48 -72t17.5 -86q0 -47 -17.5 -87t-48 -70.5t-71.5 -48t-86 -17.5 q-313 0 -534.5 221t-221.5 537q0 313 221 534q223 223 535 224q154 0 289 -57.5t245 -164.5q106 104 242.5 163t292.5 59h534q45 0 86 -17.5t72 -48.5t48 -72t17 -86q0 -47 -17 -87t-48 -70.5t-72 -48t-86 -17.5h-534q-129 0 -221 -92q-90 -90 -91 -219q0 -127 91 -221 q94 -90 221 -91h534q45 0 86 -17t72 -48t48 -72t17 -86zM2664 758q0 -47 -17 -87t-48 -71t-72 -48t-86 -17h-534q-47 0 -87 17t-71 48t-48.5 71t-17.5 87q0 45 17.5 86t48.5 71.5t71 48t87 17.5h534q45 0 86 -17.5t72 -48t48 -71.5t17 -86z" />
<glyph unicode="&#xe7;" d="M1595 758q0 -313 -223 -537q-221 -221 -534 -221h-535q-90 0 -155.5 65.5t-65.5 157.5q0 45 17.5 86t47 72t69.5 48t87 17h535q127 0 221 91q92 88 92 221q0 127 -92 219t-221 92h-535q-90 0 -155.5 65.5t-65.5 157.5q0 45 17.5 86t47 72t69.5 48.5t87 17.5h535 q313 0 534 -224q223 -221 223 -534zM838 535q-90 0 -156 65.5t-66 157.5q0 45 17.5 86t47.5 71.5t70 48t87 17.5q45 0 86 -17.5t71.5 -48t48 -71.5t17.5 -86q0 -47 -17.5 -87t-48 -71t-71.5 -48t-86 -17z" />
<glyph unicode="&#xe8;" d="M1595 758q0 -313 -223 -537q-221 -221 -534 -221h-535q-90 0 -155.5 65.5t-65.5 157.5q0 45 17.5 86t47 72t69.5 48t87 17h535q78 0 145.5 36t110.5 100q-125 -47 -256 -47q-90 0 -156 65.5t-66 157.5q0 45 17.5 86t47.5 71.5t70 48t87 17.5q129 0 219 88h-754 q-90 0 -155.5 65.5t-65.5 157.5q0 45 17.5 86t47 72t69.5 48.5t87 17.5h1069q45 0 86 -17.5t72 -48.5t48 -72t17 -86q0 -98 -22.5 -184t-67.5 -172q90 -63 90 -178z" />
<glyph unicode="&#xe9;" d="M1061 758q0 -47 -17.5 -87t-48 -71t-71.5 -48t-86 -17q-313 0 -534.5 221t-221.5 536q0 45 17.5 86t47 72t69.5 48.5t87 17.5q45 0 86 -17.5t72 -48.5t48 -72t17 -86q0 -127 90 -221q94 -90 222 -90q45 0 86 -17.5t71.5 -48t48 -71.5t17.5 -86zM1595 223q0 -47 -17 -87 t-48 -70.5t-72 -48t-86 -17.5q-90 0 -155.5 65.5t-65.5 157.5v1069q0 45 17.5 86t47 72t69.5 48.5t87 17.5q45 0 86 -17.5t72 -48.5t48 -72t17 -86v-1069z" />
<glyph unicode="&#xea;" d="M1061 758q0 -47 -17.5 -87t-48 -71t-71.5 -48t-86 -17h-535q-90 0 -155.5 65.5t-65.5 157.5v534q0 45 17.5 86t47 72t69.5 48.5t87 17.5q45 0 86 -17.5t72 -48.5t48 -72t17 -86v-311h312q45 0 86 -17.5t71.5 -48t48 -71.5t17.5 -86zM1595 223q0 -47 -17 -87t-48 -70.5 t-72 -48t-86 -17.5q-90 0 -155.5 65.5t-65.5 157.5v1069q0 45 17.5 86t47 72t69.5 48.5t87 17.5q45 0 86 -17.5t72 -48.5t48 -72t17 -86v-1069z" />
<glyph unicode="&#xeb;" d="M1595 758q0 -313 -223 -537q-221 -221 -534 -221h-535q-90 0 -155.5 65.5t-65.5 157.5q0 45 17.5 86t47 72t69.5 48t87 17h535q129 0 219 89h-219q-313 0 -534.5 221t-221.5 536q0 45 17.5 86t47 72t69.5 48.5t87 17.5q45 0 86 -17.5t72 -48.5t48 -72t17 -86 q0 -127 90 -221q94 -90 222 -90h534q45 0 86 -17.5t72 -48t48 -71.5t17 -86zM616 1292q0 45 17.5 86t47.5 72t70 48.5t87 17.5h534q45 0 86 -17.5t72 -48.5t48 -72t17 -86q0 -47 -17 -87t-48 -70.5t-72 -48t-86 -17.5h-534q-90 0 -156 65.5t-66 157.5z" />
<glyph unicode="&#xec;" d="M1595 223q0 -47 -17 -87t-48 -70.5t-72 -48t-86 -17.5h-534q-313 0 -534.5 221t-221.5 537q0 313 221 534q223 223 535 224h534q45 0 86 -17.5t72 -48.5t48 -72t17 -86q0 -47 -17 -87t-48 -70.5t-72 -48t-86 -17.5h-534q-129 0 -217 -88h217q313 0 534 -223 q223 -222 223 -535zM1057 446q-45 43 -98.5 66t-120.5 23h-217q88 -88 217 -89h219z" />
<glyph unicode="&#xed;" d="M1595 223q0 -47 -17 -87t-48 -70.5t-72 -48t-86 -17.5q-90 0 -155.5 65.5t-65.5 157.5v535q0 127 -92 219t-221 92h-535q-90 0 -155.5 65.5t-65.5 157.5q0 45 17.5 86t47 72t69.5 48.5t87 17.5h535q313 0 534 -224q223 -221 223 -534v-535z" />
<glyph unicode="&#xee;" d="M1595 758q0 -47 -17 -87t-48 -71t-72 -48t-86 -17h-534q-90 0 -156 65.5t-66 157.5q0 45 17.5 86t47.5 71.5t70 48t87 17.5h219q-45 43 -98.5 65.5t-120.5 22.5q-129 0 -222 -92q-90 -90 -90 -219q0 -47 -17 -88t-47 -71t-71 -47t-88 -17q-90 0 -155.5 65.5t-65.5 157.5 q0 313 221 534q223 223 535 224q313 0 534 -224q223 -221 223 -534zM1061 223q0 -47 -17.5 -87t-48 -70.5t-71.5 -48t-86 -17.5q-90 0 -156 65.5t-66 157.5q0 45 17.5 86t47.5 72t70 48t87 17q45 0 86 -17t71.5 -48t48 -72t17.5 -86z" />
<glyph unicode="&#xef;" d="M1595 223q0 -47 -17 -87t-48 -70.5t-72 -48t-86 -17.5q-154 0 -289 57.5t-245 163.5q-106 -104 -242.5 -162.5t-292.5 -58.5q-90 0 -155.5 65.5t-65.5 157.5q0 45 17.5 86t47 72t69.5 48t87 17q127 0 221 91q92 88 92 221q0 127 -92 219t-221 92q-90 0 -155.5 65.5 t-65.5 157.5q0 45 17.5 86t47 72t69.5 48.5t87 17.5q154 0 289 -57.5t246 -164.5q106 104 242.5 163t291.5 59q45 0 86 -17.5t72 -48.5t48 -72t17 -86q0 -47 -17 -87t-48 -70.5t-72 -48t-86 -17.5q-129 0 -221 -92q-90 -90 -90 -219q0 -127 90 -221q94 -90 221 -91 q45 0 86 -17t72 -48t48 -72t17 -86zM82 758q0 45 17.5 86t47 71.5t69.5 48t87 17.5q45 0 86 -17.5t72 -48t48 -71.5t17 -86q0 -47 -17 -88t-47 -71t-71 -47t-88 -17q-90 0 -155.5 65.5t-65.5 157.5zM1595 758q0 -47 -17 -87t-48 -71t-72 -48t-86 -17q-90 0 -155.5 65.5 t-65.5 157.5q0 45 17.5 86t47 71.5t69.5 48t87 17.5q45 0 86 -17.5t72 -48t48 -71.5t17 -86z" />
<glyph unicode="&#xf0;" horiz-adv-x="608" d="M526 758q0 -47 -17 -87t-48 -71t-72 -48t-86 -17q-90 0 -155.5 65.5t-65.5 157.5q0 45 17.5 86t47 71.5t69.5 48t87 17.5q45 0 86 -17.5t72 -48t48 -71.5t17 -86z" />
<glyph unicode="&#xf1;" d="M1595 2394q0 -313 -221 -534.5t-536 -221.5q-90 0 -156 65.5t-66 158.5v217q-43 -43 -66.5 -99.5t-23.5 -117.5q0 -47 -17 -88.5t-47 -71t-71 -47t-88 -17.5q-90 0 -155.5 65.5t-65.5 158.5q0 313 221 534t535 221q45 0 86 -17.5t71.5 -48t48 -71.5t17.5 -86v-217 q90 90 90 217q0 45 17.5 86t47 71.5t69.5 48t87 17.5q45 0 86 -17.5t72 -48t48 -71.5t17 -86zM1595 223q0 -47 -17 -87t-48 -70.5t-72 -48t-86 -17.5q-90 0 -155.5 65.5t-65.5 157.5v535q0 127 -92 219t-221 92t-222 -92q-90 -90 -90 -219v-535q0 -47 -17 -88t-47 -70.5 t-71 -47t-88 -17.5q-90 0 -155.5 65.5t-65.5 157.5v535q0 313 221 534q223 223 535 224q313 0 534 -224q223 -221 223 -534v-535z" />
<glyph unicode="&#xf2;" d="M1104 1860q0 -90 -65.5 -155.5t-157.5 -65.5q-47 0 -87 17.5t-69.5 47t-47 69.5t-17.5 87v268q0 45 17.5 86t47 72t69.5 48.5t87 17.5q45 0 86 -17.5t72 -48.5t48 -72t17 -86v-268zM1595 758q0 -313 -223 -537q-221 -221 -534 -221t-534.5 221t-221.5 537q0 313 221 534 q223 223 535 224q313 0 534 -224q223 -221 223 -534zM1151 758q0 127 -92 219t-221 92t-222 -92q-90 -90 -90 -219q0 -127 90 -221q94 -90 222 -91q127 0 221 91q92 88 92 221z" />
<glyph unicode="&#xf4;" d="M1261 1704q-66 -66 -157 -65q-45 0 -84 15.5t-74 49.5l-109 109l-110 -109q-31 -33 -72 -49t-84 -16q-94 0 -160 65q-63 63 -63 156q0 92 65 158l267 268q63 63 157 63t158 -63l266 -268q66 -66 66 -158q0 -90 -66 -156zM1595 758q0 -313 -223 -537q-221 -221 -534 -221 t-534.5 221t-221.5 537q0 313 221 534q223 223 535 224q313 0 534 -224q223 -221 223 -534zM1151 758q0 127 -92 219t-221 92t-222 -92q-90 -90 -90 -219q0 -127 90 -221q94 -90 222 -91q127 0 221 91q92 88 92 221z" />
<glyph unicode="&#xf5;" d="M1595 2394q0 -313 -221 -534.5t-536 -221.5q-90 0 -156 65.5t-66 158.5v217q-43 -43 -66.5 -99.5t-23.5 -117.5q0 -47 -17 -88.5t-47 -71t-71 -47t-88 -17.5q-90 0 -155.5 65.5t-65.5 158.5q0 313 221 534t535 221q45 0 86 -17.5t71.5 -48t48 -71.5t17.5 -86v-217 q90 90 90 217q0 45 17.5 86t47 71.5t69.5 48t87 17.5q45 0 86 -17.5t72 -48t48 -71.5t17 -86zM1595 758q0 -313 -223 -537q-221 -221 -534 -221t-534.5 221t-221.5 537q0 313 221 534q223 223 535 224q313 0 534 -224q223 -221 223 -534zM1151 758q0 127 -92 219t-221 92 t-222 -92q-90 -90 -90 -219q0 -127 90 -221q94 -90 222 -91q127 0 221 91q92 88 92 221z" />
<glyph unicode="&#xf9;" d="M1104 1860q0 -90 -65.5 -155.5t-157.5 -65.5q-47 0 -87 17.5t-69.5 47t-47 69.5t-17.5 87v268q0 45 17.5 86t47 72t69.5 48.5t87 17.5q45 0 86 -17.5t72 -48.5t48 -72t17 -86v-268zM1595 758q0 -313 -223 -537q-221 -221 -534 -221t-534.5 221t-221.5 537v534 q0 45 17.5 86t47 72t69.5 48.5t87 17.5q45 0 86 -17.5t72 -48.5t48 -72t17 -86v-534q0 -127 90 -221q94 -90 222 -91q127 0 221 91q92 88 92 221v534q0 45 17.5 86t47 72t69.5 48.5t87 17.5q45 0 86 -17.5t72 -48.5t48 -72t17 -86v-534z" />
<glyph unicode="&#xfb;" d="M1261 1704q-66 -66 -157 -65q-45 0 -84 15.5t-74 49.5l-109 109l-110 -109q-31 -33 -72 -49t-84 -16q-94 0 -160 65q-63 63 -63 156q0 92 65 158l267 268q63 63 157 63t158 -63l266 -268q66 -66 66 -158q0 -90 -66 -156zM1595 758q0 -313 -223 -537q-221 -221 -534 -221 t-534.5 221t-221.5 537v534q0 45 17.5 86t47 72t69.5 48.5t87 17.5q45 0 86 -17.5t72 -48.5t48 -72t17 -86v-534q0 -127 90 -221q94 -90 222 -91q127 0 221 91q92 88 92 221v534q0 45 17.5 86t47 72t69.5 48.5t87 17.5q45 0 86 -17.5t72 -48.5t48 -72t17 -86v-534z" />
<glyph unicode="&#x152;" horiz-adv-x="3354" d="M3272 223q0 -47 -17 -87t-48 -70.5t-72 -48t-86 -17.5h-534q-313 0 -534.5 221t-221.5 537q0 313 221 534q223 223 535 224h534q45 0 86 -17.5t72 -48.5t48 -72t17 -86q0 -47 -17 -87t-48 -70.5t-72 -48t-86 -17.5h-534q-129 0 -222 -92q-90 -90 -90 -219q0 -127 90 -221 q94 -90 222 -91h534q45 0 86 -17t72 -48t48 -72t17 -86zM3272 758q0 -47 -17 -87t-48 -71t-72 -48t-86 -17h-534q-90 0 -156 65.5t-66 157.5q0 45 17.5 86t47.5 71.5t70 48t87 17.5h534q45 0 86 -17.5t72 -48t48 -71.5t17 -86zM1595 758q0 -313 -223 -537 q-221 -221 -534 -221t-534.5 221t-221.5 537q0 313 221 534q223 223 535 224q313 0 534 -224q223 -221 223 -534zM1151 758q0 127 -92 219t-221 92t-222 -92q-90 -90 -90 -219q0 -127 90 -221q94 -90 222 -91q127 0 221 91q92 88 92 221z" />
<glyph unicode="&#x153;" horiz-adv-x="3354" d="M3272 223q0 -47 -17 -87t-48 -70.5t-72 -48t-86 -17.5h-534q-313 0 -534.5 221t-221.5 537q0 313 221 534q223 223 535 224h534q45 0 86 -17.5t72 -48.5t48 -72t17 -86q0 -47 -17 -87t-48 -70.5t-72 -48t-86 -17.5h-534q-129 0 -222 -92q-90 -90 -90 -219q0 -127 90 -221 q94 -90 222 -91h534q45 0 86 -17t72 -48t48 -72t17 -86zM2515 981q45 0 86 -17.5t71.5 -48t48 -71.5t17.5 -86q0 -47 -17.5 -87t-48 -71t-71.5 -48t-86 -17q-90 0 -156 65.5t-66 157.5q0 45 17.5 86t47.5 71.5t70 48t87 17.5zM1595 758q0 -313 -223 -537 q-221 -221 -534 -221t-534.5 221t-221.5 537q0 313 221 534q223 223 535 224q313 0 534 -224q223 -221 223 -534zM1151 758q0 127 -92 219t-221 92t-222 -92q-90 -90 -90 -219q0 -127 90 -221q94 -90 222 -91q127 0 221 91q92 88 92 221z" />
<glyph unicode="&#x2c6;" horiz-adv-x="1142" d="M995 868q-66 -66 -157 -65q-45 0 -84 15.5t-74 49.5l-109 109l-110 -109q-31 -33 -72 -49t-84 -16q-94 0 -160 65q-63 63 -63 156q0 92 65 158l267 268q63 63 157 63t158 -63l266 -268q66 -66 66 -158q0 -90 -66 -156z" />
<glyph unicode="&#x2dc;" horiz-adv-x="1433" d="M755 879q0 -313 -221 -534.5t-536 -221.5q-90 0 -156 65.5t-66 158.5v217q-43 -43 -66.5 -99.5t-23.5 -117.5q0 -47 -17 -88.5t-47 -71t-71 -47t-88 -17.5q-90 0 -155.5 65.5t-65.5 158.5q0 313 221 534t535 221q45 0 86 -17.5t71.5 -48t48 -71.5t17.5 -86v-217 q90 90 90 217q0 45 17.5 86t47 71.5t69.5 48t87 17.5q45 0 86 -17.5t72 -48t48 -71.5t17 -86z" />
<glyph unicode="&#x2000;" horiz-adv-x="1308" />
<glyph unicode="&#x2001;" horiz-adv-x="2617" />
<glyph unicode="&#x2002;" horiz-adv-x="1308" />
<glyph unicode="&#x2003;" horiz-adv-x="2617" />
<glyph unicode="&#x2004;" horiz-adv-x="872" />
<glyph unicode="&#x2005;" horiz-adv-x="653" />
<glyph unicode="&#x2006;" horiz-adv-x="436" />
<glyph unicode="&#x2007;" horiz-adv-x="436" />
<glyph unicode="&#x2008;" horiz-adv-x="325" />
<glyph unicode="&#x2009;" horiz-adv-x="522" />
<glyph unicode="&#x200a;" horiz-adv-x="145" />
<glyph unicode="&#x2010;" horiz-adv-x="1142" d="M1061 758q0 -47 -17.5 -87t-48 -71t-71.5 -48t-86 -17h-535q-90 0 -155.5 65.5t-65.5 157.5q0 45 17.5 86t47 71.5t69.5 48t87 17.5h535q45 0 86 -17.5t71.5 -48t48 -71.5t17.5 -86z" />
<glyph unicode="&#x2011;" horiz-adv-x="1142" d="M1061 758q0 -47 -17.5 -87t-48 -71t-71.5 -48t-86 -17h-535q-90 0 -155.5 65.5t-65.5 157.5q0 45 17.5 86t47 71.5t69.5 48t87 17.5h535q45 0 86 -17.5t71.5 -48t48 -71.5t17.5 -86z" />
<glyph unicode="&#x2012;" horiz-adv-x="1142" d="M1061 758q0 -47 -17.5 -87t-48 -71t-71.5 -48t-86 -17h-535q-90 0 -155.5 65.5t-65.5 157.5q0 45 17.5 86t47 71.5t69.5 48t87 17.5h535q45 0 86 -17.5t71.5 -48t48 -71.5t17.5 -86z" />
<glyph unicode="&#x2013;" horiz-adv-x="1024" d="M82 535v446h860v-446h-860z" />
<glyph unicode="&#x2014;" horiz-adv-x="2048" d="M82 535v446h1884v-446h-1884z" />
<glyph unicode="&#x2018;" horiz-adv-x="608" d="M526 1024q0 -90 -65.5 -155.5t-157.5 -65.5q-47 0 -87 17.5t-69.5 47t-47 69.5t-17.5 87v268q0 45 17.5 86t47 72t69.5 48.5t87 17.5q45 0 86 -17.5t72 -48.5t48 -72t17 -86v-268z" />
<glyph unicode="&#x2019;" horiz-adv-x="608" d="M526 1024q0 -90 -65.5 -155.5t-157.5 -65.5q-47 0 -87 17.5t-69.5 47t-47 69.5t-17.5 87v268q0 45 17.5 86t47 72t69.5 48.5t87 17.5q45 0 86 -17.5t72 -48.5t48 -72t17 -86v-268z" />
<glyph unicode="&#x201c;" horiz-adv-x="1142" d="M526 1024q0 -90 -65.5 -155.5t-157.5 -65.5q-47 0 -87 17.5t-69.5 47t-47 69.5t-17.5 87v268q0 45 17.5 86t47 72t69.5 48.5t87 17.5q45 0 86 -17.5t72 -48.5t48 -72t17 -86v-268zM1061 1024q0 -90 -65.5 -155.5t-157.5 -65.5q-47 0 -87 17.5t-70 47t-47.5 69.5t-17.5 87 v268q0 45 17.5 86t47.5 72t70 48.5t87 17.5q45 0 86 -17.5t71.5 -48.5t48 -72t17.5 -86v-268z" />
<glyph unicode="&#x201d;" horiz-adv-x="1142" d="M526 1024q0 -90 -65.5 -155.5t-157.5 -65.5q-47 0 -87 17.5t-69.5 47t-47 69.5t-17.5 87v268q0 45 17.5 86t47 72t69.5 48.5t87 17.5q45 0 86 -17.5t72 -48.5t48 -72t17 -86v-268zM1061 1024q0 -90 -65.5 -155.5t-157.5 -65.5q-47 0 -87 17.5t-70 47t-47.5 69.5t-17.5 87 v268q0 45 17.5 86t47.5 72t70 48.5t87 17.5q45 0 86 -17.5t71.5 -48.5t48 -72t17.5 -86v-268z" />
<glyph unicode="&#x2026;" horiz-adv-x="1824" d="M1743 223q0 -47 -17 -87t-48 -70.5t-72 -48t-86 -17.5q-90 0 -155.5 65.5t-65.5 157.5q0 45 17.5 86t47 72t69.5 48t87 17q45 0 86 -17t72 -48t48 -72t17 -86zM1134 223q0 -47 -17 -87t-48 -70.5t-72 -48t-86 -17.5q-90 0 -155.5 65.5t-65.5 157.5q0 45 17.5 86t47 72 t69.5 48t87 17q45 0 86 -17t72 -48t48 -72t17 -86zM526 223q0 -47 -17 -87t-48 -70.5t-72 -48t-86 -17.5q-90 0 -155.5 65.5t-65.5 157.5q0 45 17.5 86t47 72t69.5 48t87 17q45 0 86 -17t72 -48t48 -72t17 -86z" />
<glyph unicode="&#x202f;" horiz-adv-x="522" />
<glyph unicode="&#x2039;" horiz-adv-x="874" d="M727 647q66 -66 66 -158q0 -90 -65.5 -155.5t-158.5 -65.5q-45 0 -84 15.5t-73 50.5l-267 266q-63 63 -63 158q0 94 63 157l267 267q72 66 157 65q45 0 86 -17.5t72 -47t48.5 -70.5t17.5 -88q0 -90 -66 -156l-109 -110z" />
<glyph unicode="&#x203a;" horiz-adv-x="874" d="M461 334q-66 -66 -158 -66q-47 0 -87 17.5t-69.5 47t-47 69.5t-17.5 87q0 94 63 158l111 111l-111 110q-63 63 -63 156q0 47 17.5 88t47 70.5t69.5 47t87 17.5q92 0 158 -65l266 -267q66 -66 66 -157q0 -92 -66 -158z" />
<glyph unicode="&#x205f;" horiz-adv-x="653" />
<glyph unicode="&#x2122;" horiz-adv-x="3354" d="M3272 223q0 -47 -17 -87t-48 -70.5t-72 -48t-86 -17.5q-90 0 -155.5 65.5t-65.5 157.5v535q0 127 -92 219t-221 92t-222 -92q-90 -90 -90 -219v-535q0 -47 -17 -88t-47 -70.5t-71 -47t-88 -17.5q-90 0 -155.5 65.5t-65.5 157.5v535q0 313 221 534q223 223 535 224 q313 0 534 -224q223 -221 223 -534v-535zM2738 223q0 -47 -17.5 -87t-48 -70.5t-71.5 -48t-86 -17.5q-90 0 -156 65.5t-66 157.5v535q0 45 17.5 86t47.5 71.5t70 48t87 17.5q45 0 86 -17.5t71.5 -48t48 -71.5t17.5 -86v-535zM1595 1292q0 -47 -17 -87t-48 -70.5t-72 -48 t-86 -17.5h-311v-846q0 -47 -17.5 -87t-48 -70.5t-71.5 -48t-86 -17.5q-90 0 -156 65.5t-66 157.5v846h-313q-90 0 -155.5 65.5t-65.5 157.5q0 45 17.5 86t47 72t69.5 48.5t87 17.5h1069q45 0 86 -17.5t72 -48.5t48 -72t17 -86z" />
<glyph unicode="&#xe000;" horiz-adv-x="1515" d="M0 1515h1515v-1515h-1515v1515z" />
<glyph unicode="&#xfb01;" horiz-adv-x="3354" d="M3272 223q0 -47 -17 -87t-48 -70.5t-72 -48t-86 -17.5h-1069q-90 0 -155.5 65.5t-65.5 157.5q0 45 17.5 86t47 72t69.5 48t87 17h313v623h-313q-90 0 -155.5 65.5t-65.5 157.5q0 45 17.5 86t47 72t69.5 48.5t87 17.5h1069q45 0 86 -17.5t72 -48.5t48 -72t17 -86 q0 -47 -17 -87t-48 -70.5t-72 -48t-86 -17.5h-311v-623h311q45 0 86 -17t72 -48t48 -72t17 -86zM1595 1292q0 -47 -17 -87t-48 -70.5t-72 -48t-86 -17.5h-534q-129 0 -222 -92q-90 -90 -90 -219v-535q0 -47 -17 -88t-47 -70.5t-71 -47t-88 -17.5q-90 0 -155.5 65.5 t-65.5 157.5v535q0 313 221 534q223 223 535 224h534q45 0 86 -17.5t72 -48.5t48 -72t17 -86zM1061 758q0 -47 -17.5 -87t-48 -71t-71.5 -48t-86 -17q-90 0 -156 65.5t-66 157.5q0 45 17.5 86t47.5 71.5t70 48t87 17.5q45 0 86 -17.5t71.5 -48t48 -71.5t17.5 -86z" />
<glyph unicode="&#xfb02;" horiz-adv-x="3354" d="M3272 223q0 -47 -17 -87t-48 -70.5t-72 -48t-86 -17.5h-534q-313 0 -534.5 221t-221.5 537v534q0 45 17.5 86t47 72t69.5 48.5t87 17.5q45 0 86 -17.5t72 -48.5t48 -72t17 -86v-534q0 -127 90 -221q94 -90 222 -91h534q45 0 86 -17t72 -48t48 -72t17 -86zM1595 1292 q0 -47 -17 -87t-48 -70.5t-72 -48t-86 -17.5h-534q-129 0 -222 -92q-90 -90 -90 -219v-535q0 -47 -17 -88t-47 -70.5t-71 -47t-88 -17.5q-90 0 -155.5 65.5t-65.5 157.5v535q0 313 221 534q223 223 535 224h534q45 0 86 -17.5t72 -48.5t48 -72t17 -86zM1061 758 q0 -47 -17.5 -87t-48 -71t-71.5 -48t-86 -17q-90 0 -156 65.5t-66 157.5q0 45 17.5 86t47.5 71.5t70 48t87 17.5q45 0 86 -17.5t71.5 -48t48 -71.5t17.5 -86z" />
<glyph unicode="&#xfb03;" horiz-adv-x="5031" d="M4950 223q0 -47 -17 -87t-48 -70.5t-72 -48t-86 -17.5h-1069q-90 0 -155.5 65.5t-65.5 157.5q0 45 17.5 86t47 72t69.5 48t87 17h313v623h-313q-90 0 -155.5 65.5t-65.5 157.5q0 45 17.5 86t47 72t69.5 48.5t87 17.5h1069q45 0 86 -17.5t72 -48.5t48 -72t17 -86 q0 -47 -17 -87t-48 -70.5t-72 -48t-86 -17.5h-311v-623h311q45 0 86 -17t72 -48t48 -72t17 -86zM3272 1292q0 -47 -17 -87t-48 -70.5t-72 -48t-86 -17.5h-534q-129 0 -222 -92q-90 -90 -90 -219v-535q0 -47 -17 -88t-47 -70.5t-71 -47t-88 -17.5q-90 0 -155.5 65.5 t-65.5 157.5v535q0 313 221 534q223 223 535 224h534q45 0 86 -17.5t72 -48.5t48 -72t17 -86zM2738 758q0 -47 -17.5 -87t-48 -71t-71.5 -48t-86 -17q-90 0 -156 65.5t-66 157.5q0 45 17.5 86t47.5 71.5t70 48t87 17.5q45 0 86 -17.5t71.5 -48t48 -71.5t17.5 -86zM1595 1292 q0 -47 -17 -87t-48 -70.5t-72 -48t-86 -17.5h-534q-129 0 -222 -92q-90 -90 -90 -219v-535q0 -47 -17 -88t-47 -70.5t-71 -47t-88 -17.5q-90 0 -155.5 65.5t-65.5 157.5v535q0 313 221 534q223 223 535 224h534q45 0 86 -17.5t72 -48.5t48 -72t17 -86zM1061 758 q0 -47 -17.5 -87t-48 -71t-71.5 -48t-86 -17q-90 0 -156 65.5t-66 157.5q0 45 17.5 86t47.5 71.5t70 48t87 17.5q45 0 86 -17.5t71.5 -48t48 -71.5t17.5 -86z" />
<glyph unicode="&#xfb04;" horiz-adv-x="5031" d="M4950 223q0 -47 -17 -87t-48 -70.5t-72 -48t-86 -17.5h-534q-313 0 -534.5 221t-221.5 537v534q0 45 17.5 86t47 72t69.5 48.5t87 17.5q45 0 86 -17.5t72 -48.5t48 -72t17 -86v-534q0 -127 90 -221q94 -90 222 -91h534q45 0 86 -17t72 -48t48 -72t17 -86zM3272 1292 q0 -47 -17 -87t-48 -70.5t-72 -48t-86 -17.5h-534q-129 0 -222 -92q-90 -90 -90 -219v-535q0 -47 -17 -88t-47 -70.5t-71 -47t-88 -17.5q-90 0 -155.5 65.5t-65.5 157.5v535q0 313 221 534q223 223 535 224h534q45 0 86 -17.5t72 -48.5t48 -72t17 -86zM2738 758 q0 -47 -17.5 -87t-48 -71t-71.5 -48t-86 -17q-90 0 -156 65.5t-66 157.5q0 45 17.5 86t47.5 71.5t70 48t87 17.5q45 0 86 -17.5t71.5 -48t48 -71.5t17.5 -86zM1595 1292q0 -47 -17 -87t-48 -70.5t-72 -48t-86 -17.5h-534q-129 0 -222 -92q-90 -90 -90 -219v-535 q0 -47 -17 -88t-47 -70.5t-71 -47t-88 -17.5q-90 0 -155.5 65.5t-65.5 157.5v535q0 313 221 534q223 223 535 224h534q45 0 86 -17.5t72 -48.5t48 -72t17 -86zM1061 758q0 -47 -17.5 -87t-48 -71t-71.5 -48t-86 -17q-90 0 -156 65.5t-66 157.5q0 45 17.5 86t47.5 71.5t70 48 t87 17.5q45 0 86 -17.5t71.5 -48t48 -71.5t17.5 -86z" />
</font>
</defs>
</svg>
